%TF.GenerationSoftware,KiCad,Pcbnew,10.0.5*%
%TF.CreationDate,2026-08-06T22:40:01+08:00*%
%TF.ProjectId,BrufikMobileBase,42727566-696b-44d6-9f62-696c65426173,0.1*%
%TF.SameCoordinates,Original*%
%TF.FileFunction,Drillmap*%
%TF.FilePolarity,Positive*%
%FSLAX45Y45*%
G04 Gerber Fmt 4.5, Leading zero omitted, Abs format (unit mm)*
G04 Created by KiCad (PCBNEW 10.0.5) date 2026-08-06 22:40:01*
%MOMM*%
%LPD*%
G01*
G04 APERTURE LIST*
%ADD10C,0.100000*%
%ADD11C,0.200000*%
%ADD12C,0.360000*%
G04 APERTURE END LIST*
D10*
X0Y-400000D02*
X400000Y0D01*
X0Y-7000000D02*
X0Y-400000D01*
X400000Y0D02*
X8800000Y0D01*
X400000Y-7400000D02*
X0Y-7000000D01*
X8800000Y0D02*
X9200000Y-400000D01*
X8800000Y-7400000D02*
X400000Y-7400000D01*
X9200000Y-400000D02*
X9200000Y-7000000D01*
X9200000Y-7000000D02*
X8800000Y-7400000D01*
D11*
D12*
X1520000Y-1070000D02*
X1880000Y-1430000D01*
X1880000Y-1070000D02*
X1520000Y-1430000D01*
X1520000Y-5970000D02*
X1880000Y-6330000D01*
X1880000Y-5970000D02*
X1520000Y-6330000D01*
X7320000Y-1070000D02*
X7680000Y-1430000D01*
X7680000Y-1070000D02*
X7320000Y-1430000D01*
X7320000Y-5970000D02*
X7680000Y-6330000D01*
X7680000Y-5970000D02*
X7320000Y-6330000D01*
D11*
X255777Y-7716484D02*
X255777Y-7516484D01*
X255777Y-7516484D02*
X303396Y-7516484D01*
X303396Y-7516484D02*
X331967Y-7526008D01*
X331967Y-7526008D02*
X351015Y-7545055D01*
X351015Y-7545055D02*
X360539Y-7564103D01*
X360539Y-7564103D02*
X370062Y-7602198D01*
X370062Y-7602198D02*
X370062Y-7630769D01*
X370062Y-7630769D02*
X360539Y-7668865D01*
X360539Y-7668865D02*
X351015Y-7687912D01*
X351015Y-7687912D02*
X331967Y-7706960D01*
X331967Y-7706960D02*
X303396Y-7716484D01*
X303396Y-7716484D02*
X255777Y-7716484D01*
X455777Y-7716484D02*
X455777Y-7583150D01*
X455777Y-7621246D02*
X465301Y-7602198D01*
X465301Y-7602198D02*
X474824Y-7592674D01*
X474824Y-7592674D02*
X493872Y-7583150D01*
X493872Y-7583150D02*
X512920Y-7583150D01*
X579586Y-7716484D02*
X579586Y-7583150D01*
X579586Y-7516484D02*
X570063Y-7526008D01*
X570063Y-7526008D02*
X579586Y-7535531D01*
X579586Y-7535531D02*
X589110Y-7526008D01*
X589110Y-7526008D02*
X579586Y-7516484D01*
X579586Y-7516484D02*
X579586Y-7535531D01*
X703396Y-7716484D02*
X684348Y-7706960D01*
X684348Y-7706960D02*
X674824Y-7687912D01*
X674824Y-7687912D02*
X674824Y-7516484D01*
X808158Y-7716484D02*
X789110Y-7706960D01*
X789110Y-7706960D02*
X779586Y-7687912D01*
X779586Y-7687912D02*
X779586Y-7516484D01*
X1036729Y-7716484D02*
X1036729Y-7516484D01*
X1036729Y-7516484D02*
X1103396Y-7659341D01*
X1103396Y-7659341D02*
X1170063Y-7516484D01*
X1170063Y-7516484D02*
X1170063Y-7716484D01*
X1351015Y-7716484D02*
X1351015Y-7611722D01*
X1351015Y-7611722D02*
X1341491Y-7592674D01*
X1341491Y-7592674D02*
X1322444Y-7583150D01*
X1322444Y-7583150D02*
X1284348Y-7583150D01*
X1284348Y-7583150D02*
X1265301Y-7592674D01*
X1351015Y-7706960D02*
X1331967Y-7716484D01*
X1331967Y-7716484D02*
X1284348Y-7716484D01*
X1284348Y-7716484D02*
X1265301Y-7706960D01*
X1265301Y-7706960D02*
X1255777Y-7687912D01*
X1255777Y-7687912D02*
X1255777Y-7668865D01*
X1255777Y-7668865D02*
X1265301Y-7649817D01*
X1265301Y-7649817D02*
X1284348Y-7640293D01*
X1284348Y-7640293D02*
X1331967Y-7640293D01*
X1331967Y-7640293D02*
X1351015Y-7630769D01*
X1446253Y-7583150D02*
X1446253Y-7783150D01*
X1446253Y-7592674D02*
X1465301Y-7583150D01*
X1465301Y-7583150D02*
X1503396Y-7583150D01*
X1503396Y-7583150D02*
X1522443Y-7592674D01*
X1522443Y-7592674D02*
X1531967Y-7602198D01*
X1531967Y-7602198D02*
X1541491Y-7621246D01*
X1541491Y-7621246D02*
X1541491Y-7678388D01*
X1541491Y-7678388D02*
X1531967Y-7697436D01*
X1531967Y-7697436D02*
X1522443Y-7706960D01*
X1522443Y-7706960D02*
X1503396Y-7716484D01*
X1503396Y-7716484D02*
X1465301Y-7716484D01*
X1465301Y-7716484D02*
X1446253Y-7706960D01*
X1627205Y-7697436D02*
X1636729Y-7706960D01*
X1636729Y-7706960D02*
X1627205Y-7716484D01*
X1627205Y-7716484D02*
X1617682Y-7706960D01*
X1617682Y-7706960D02*
X1627205Y-7697436D01*
X1627205Y-7697436D02*
X1627205Y-7716484D01*
X1627205Y-7592674D02*
X1636729Y-7602198D01*
X1636729Y-7602198D02*
X1627205Y-7611722D01*
X1627205Y-7611722D02*
X1617682Y-7602198D01*
X1617682Y-7602198D02*
X1627205Y-7592674D01*
X1627205Y-7592674D02*
X1627205Y-7611722D01*
X-205000Y-7945000D02*
X-5000Y-8145000D01*
X-5000Y-7945000D02*
X-205000Y-8145000D01*
X236729Y-7936484D02*
X360539Y-7936484D01*
X360539Y-7936484D02*
X293872Y-8012674D01*
X293872Y-8012674D02*
X322444Y-8012674D01*
X322444Y-8012674D02*
X341491Y-8022198D01*
X341491Y-8022198D02*
X351015Y-8031722D01*
X351015Y-8031722D02*
X360539Y-8050769D01*
X360539Y-8050769D02*
X360539Y-8098388D01*
X360539Y-8098388D02*
X351015Y-8117436D01*
X351015Y-8117436D02*
X341491Y-8126960D01*
X341491Y-8126960D02*
X322444Y-8136484D01*
X322444Y-8136484D02*
X265301Y-8136484D01*
X265301Y-8136484D02*
X246253Y-8126960D01*
X246253Y-8126960D02*
X236729Y-8117436D01*
X446253Y-8117436D02*
X455777Y-8126960D01*
X455777Y-8126960D02*
X446253Y-8136484D01*
X446253Y-8136484D02*
X436729Y-8126960D01*
X436729Y-8126960D02*
X446253Y-8117436D01*
X446253Y-8117436D02*
X446253Y-8136484D01*
X627205Y-7936484D02*
X589110Y-7936484D01*
X589110Y-7936484D02*
X570063Y-7946008D01*
X570063Y-7946008D02*
X560539Y-7955531D01*
X560539Y-7955531D02*
X541491Y-7984103D01*
X541491Y-7984103D02*
X531967Y-8022198D01*
X531967Y-8022198D02*
X531967Y-8098388D01*
X531967Y-8098388D02*
X541491Y-8117436D01*
X541491Y-8117436D02*
X551015Y-8126960D01*
X551015Y-8126960D02*
X570063Y-8136484D01*
X570063Y-8136484D02*
X608158Y-8136484D01*
X608158Y-8136484D02*
X627205Y-8126960D01*
X627205Y-8126960D02*
X636729Y-8117436D01*
X636729Y-8117436D02*
X646253Y-8098388D01*
X646253Y-8098388D02*
X646253Y-8050769D01*
X646253Y-8050769D02*
X636729Y-8031722D01*
X636729Y-8031722D02*
X627205Y-8022198D01*
X627205Y-8022198D02*
X608158Y-8012674D01*
X608158Y-8012674D02*
X570063Y-8012674D01*
X570063Y-8012674D02*
X551015Y-8022198D01*
X551015Y-8022198D02*
X541491Y-8031722D01*
X541491Y-8031722D02*
X531967Y-8050769D01*
X770062Y-7936484D02*
X789110Y-7936484D01*
X789110Y-7936484D02*
X808158Y-7946008D01*
X808158Y-7946008D02*
X817682Y-7955531D01*
X817682Y-7955531D02*
X827205Y-7974579D01*
X827205Y-7974579D02*
X836729Y-8012674D01*
X836729Y-8012674D02*
X836729Y-8060293D01*
X836729Y-8060293D02*
X827205Y-8098388D01*
X827205Y-8098388D02*
X817682Y-8117436D01*
X817682Y-8117436D02*
X808158Y-8126960D01*
X808158Y-8126960D02*
X789110Y-8136484D01*
X789110Y-8136484D02*
X770062Y-8136484D01*
X770062Y-8136484D02*
X751015Y-8126960D01*
X751015Y-8126960D02*
X741491Y-8117436D01*
X741491Y-8117436D02*
X731967Y-8098388D01*
X731967Y-8098388D02*
X722443Y-8060293D01*
X722443Y-8060293D02*
X722443Y-8012674D01*
X722443Y-8012674D02*
X731967Y-7974579D01*
X731967Y-7974579D02*
X741491Y-7955531D01*
X741491Y-7955531D02*
X751015Y-7946008D01*
X751015Y-7946008D02*
X770062Y-7936484D01*
X960539Y-7936484D02*
X979586Y-7936484D01*
X979586Y-7936484D02*
X998634Y-7946008D01*
X998634Y-7946008D02*
X1008158Y-7955531D01*
X1008158Y-7955531D02*
X1017682Y-7974579D01*
X1017682Y-7974579D02*
X1027205Y-8012674D01*
X1027205Y-8012674D02*
X1027205Y-8060293D01*
X1027205Y-8060293D02*
X1017682Y-8098388D01*
X1017682Y-8098388D02*
X1008158Y-8117436D01*
X1008158Y-8117436D02*
X998634Y-8126960D01*
X998634Y-8126960D02*
X979586Y-8136484D01*
X979586Y-8136484D02*
X960539Y-8136484D01*
X960539Y-8136484D02*
X941491Y-8126960D01*
X941491Y-8126960D02*
X931967Y-8117436D01*
X931967Y-8117436D02*
X922443Y-8098388D01*
X922443Y-8098388D02*
X912920Y-8060293D01*
X912920Y-8060293D02*
X912920Y-8012674D01*
X912920Y-8012674D02*
X922443Y-7974579D01*
X922443Y-7974579D02*
X931967Y-7955531D01*
X931967Y-7955531D02*
X941491Y-7946008D01*
X941491Y-7946008D02*
X960539Y-7936484D01*
X1112920Y-8136484D02*
X1112920Y-8003150D01*
X1112920Y-8022198D02*
X1122444Y-8012674D01*
X1122444Y-8012674D02*
X1141491Y-8003150D01*
X1141491Y-8003150D02*
X1170063Y-8003150D01*
X1170063Y-8003150D02*
X1189110Y-8012674D01*
X1189110Y-8012674D02*
X1198634Y-8031722D01*
X1198634Y-8031722D02*
X1198634Y-8136484D01*
X1198634Y-8031722D02*
X1208158Y-8012674D01*
X1208158Y-8012674D02*
X1227205Y-8003150D01*
X1227205Y-8003150D02*
X1255777Y-8003150D01*
X1255777Y-8003150D02*
X1274825Y-8012674D01*
X1274825Y-8012674D02*
X1284348Y-8031722D01*
X1284348Y-8031722D02*
X1284348Y-8136484D01*
X1379586Y-8136484D02*
X1379586Y-8003150D01*
X1379586Y-8022198D02*
X1389110Y-8012674D01*
X1389110Y-8012674D02*
X1408158Y-8003150D01*
X1408158Y-8003150D02*
X1436729Y-8003150D01*
X1436729Y-8003150D02*
X1455777Y-8012674D01*
X1455777Y-8012674D02*
X1465301Y-8031722D01*
X1465301Y-8031722D02*
X1465301Y-8136484D01*
X1465301Y-8031722D02*
X1474824Y-8012674D01*
X1474824Y-8012674D02*
X1493872Y-8003150D01*
X1493872Y-8003150D02*
X1522443Y-8003150D01*
X1522443Y-8003150D02*
X1541491Y-8012674D01*
X1541491Y-8012674D02*
X1551015Y-8031722D01*
X1551015Y-8031722D02*
X1551015Y-8136484D01*
X1941491Y-7926960D02*
X1770063Y-8184103D01*
X2198634Y-7936484D02*
X2217682Y-7936484D01*
X2217682Y-7936484D02*
X2236729Y-7946008D01*
X2236729Y-7946008D02*
X2246253Y-7955531D01*
X2246253Y-7955531D02*
X2255777Y-7974579D01*
X2255777Y-7974579D02*
X2265301Y-8012674D01*
X2265301Y-8012674D02*
X2265301Y-8060293D01*
X2265301Y-8060293D02*
X2255777Y-8098388D01*
X2255777Y-8098388D02*
X2246253Y-8117436D01*
X2246253Y-8117436D02*
X2236729Y-8126960D01*
X2236729Y-8126960D02*
X2217682Y-8136484D01*
X2217682Y-8136484D02*
X2198634Y-8136484D01*
X2198634Y-8136484D02*
X2179587Y-8126960D01*
X2179587Y-8126960D02*
X2170063Y-8117436D01*
X2170063Y-8117436D02*
X2160539Y-8098388D01*
X2160539Y-8098388D02*
X2151015Y-8060293D01*
X2151015Y-8060293D02*
X2151015Y-8012674D01*
X2151015Y-8012674D02*
X2160539Y-7974579D01*
X2160539Y-7974579D02*
X2170063Y-7955531D01*
X2170063Y-7955531D02*
X2179587Y-7946008D01*
X2179587Y-7946008D02*
X2198634Y-7936484D01*
X2351015Y-8117436D02*
X2360539Y-8126960D01*
X2360539Y-8126960D02*
X2351015Y-8136484D01*
X2351015Y-8136484D02*
X2341491Y-8126960D01*
X2341491Y-8126960D02*
X2351015Y-8117436D01*
X2351015Y-8117436D02*
X2351015Y-8136484D01*
X2551015Y-8136484D02*
X2436729Y-8136484D01*
X2493872Y-8136484D02*
X2493872Y-7936484D01*
X2493872Y-7936484D02*
X2474825Y-7965055D01*
X2474825Y-7965055D02*
X2455777Y-7984103D01*
X2455777Y-7984103D02*
X2436729Y-7993627D01*
X2722444Y-8003150D02*
X2722444Y-8136484D01*
X2674825Y-7926960D02*
X2627206Y-8069817D01*
X2627206Y-8069817D02*
X2751015Y-8069817D01*
X2931967Y-8136484D02*
X2817682Y-8136484D01*
X2874825Y-8136484D02*
X2874825Y-7936484D01*
X2874825Y-7936484D02*
X2855777Y-7965055D01*
X2855777Y-7965055D02*
X2836729Y-7984103D01*
X2836729Y-7984103D02*
X2817682Y-7993627D01*
X2998634Y-7936484D02*
X3131967Y-7936484D01*
X3131967Y-7936484D02*
X3046253Y-8136484D01*
X3198634Y-7936484D02*
X3198634Y-7974579D01*
X3274825Y-7936484D02*
X3274825Y-7974579D01*
X3570063Y-8212674D02*
X3560539Y-8203150D01*
X3560539Y-8203150D02*
X3541491Y-8174579D01*
X3541491Y-8174579D02*
X3531968Y-8155531D01*
X3531968Y-8155531D02*
X3522444Y-8126960D01*
X3522444Y-8126960D02*
X3512920Y-8079341D01*
X3512920Y-8079341D02*
X3512920Y-8041246D01*
X3512920Y-8041246D02*
X3522444Y-7993627D01*
X3522444Y-7993627D02*
X3531968Y-7965055D01*
X3531968Y-7965055D02*
X3541491Y-7946008D01*
X3541491Y-7946008D02*
X3560539Y-7917436D01*
X3560539Y-7917436D02*
X3570063Y-7907912D01*
X3731968Y-8003150D02*
X3731968Y-8136484D01*
X3684348Y-7926960D02*
X3636729Y-8069817D01*
X3636729Y-8069817D02*
X3760539Y-8069817D01*
X3989110Y-8136484D02*
X3989110Y-7936484D01*
X4074825Y-8136484D02*
X4074825Y-8031722D01*
X4074825Y-8031722D02*
X4065301Y-8012674D01*
X4065301Y-8012674D02*
X4046253Y-8003150D01*
X4046253Y-8003150D02*
X4017682Y-8003150D01*
X4017682Y-8003150D02*
X3998634Y-8012674D01*
X3998634Y-8012674D02*
X3989110Y-8022198D01*
X4198634Y-8136484D02*
X4179587Y-8126960D01*
X4179587Y-8126960D02*
X4170063Y-8117436D01*
X4170063Y-8117436D02*
X4160539Y-8098388D01*
X4160539Y-8098388D02*
X4160539Y-8041246D01*
X4160539Y-8041246D02*
X4170063Y-8022198D01*
X4170063Y-8022198D02*
X4179587Y-8012674D01*
X4179587Y-8012674D02*
X4198634Y-8003150D01*
X4198634Y-8003150D02*
X4227206Y-8003150D01*
X4227206Y-8003150D02*
X4246253Y-8012674D01*
X4246253Y-8012674D02*
X4255777Y-8022198D01*
X4255777Y-8022198D02*
X4265301Y-8041246D01*
X4265301Y-8041246D02*
X4265301Y-8098388D01*
X4265301Y-8098388D02*
X4255777Y-8117436D01*
X4255777Y-8117436D02*
X4246253Y-8126960D01*
X4246253Y-8126960D02*
X4227206Y-8136484D01*
X4227206Y-8136484D02*
X4198634Y-8136484D01*
X4379587Y-8136484D02*
X4360539Y-8126960D01*
X4360539Y-8126960D02*
X4351015Y-8107912D01*
X4351015Y-8107912D02*
X4351015Y-7936484D01*
X4531968Y-8126960D02*
X4512920Y-8136484D01*
X4512920Y-8136484D02*
X4474825Y-8136484D01*
X4474825Y-8136484D02*
X4455777Y-8126960D01*
X4455777Y-8126960D02*
X4446253Y-8107912D01*
X4446253Y-8107912D02*
X4446253Y-8031722D01*
X4446253Y-8031722D02*
X4455777Y-8012674D01*
X4455777Y-8012674D02*
X4474825Y-8003150D01*
X4474825Y-8003150D02*
X4512920Y-8003150D01*
X4512920Y-8003150D02*
X4531968Y-8012674D01*
X4531968Y-8012674D02*
X4541492Y-8031722D01*
X4541492Y-8031722D02*
X4541492Y-8050769D01*
X4541492Y-8050769D02*
X4446253Y-8069817D01*
X4617682Y-8126960D02*
X4636730Y-8136484D01*
X4636730Y-8136484D02*
X4674825Y-8136484D01*
X4674825Y-8136484D02*
X4693873Y-8126960D01*
X4693873Y-8126960D02*
X4703396Y-8107912D01*
X4703396Y-8107912D02*
X4703396Y-8098388D01*
X4703396Y-8098388D02*
X4693873Y-8079341D01*
X4693873Y-8079341D02*
X4674825Y-8069817D01*
X4674825Y-8069817D02*
X4646253Y-8069817D01*
X4646253Y-8069817D02*
X4627206Y-8060293D01*
X4627206Y-8060293D02*
X4617682Y-8041246D01*
X4617682Y-8041246D02*
X4617682Y-8031722D01*
X4617682Y-8031722D02*
X4627206Y-8012674D01*
X4627206Y-8012674D02*
X4646253Y-8003150D01*
X4646253Y-8003150D02*
X4674825Y-8003150D01*
X4674825Y-8003150D02*
X4693873Y-8012674D01*
X4770063Y-8212674D02*
X4779587Y-8203150D01*
X4779587Y-8203150D02*
X4798634Y-8174579D01*
X4798634Y-8174579D02*
X4808158Y-8155531D01*
X4808158Y-8155531D02*
X4817682Y-8126960D01*
X4817682Y-8126960D02*
X4827206Y-8079341D01*
X4827206Y-8079341D02*
X4827206Y-8041246D01*
X4827206Y-8041246D02*
X4817682Y-7993627D01*
X4817682Y-7993627D02*
X4808158Y-7965055D01*
X4808158Y-7965055D02*
X4798634Y-7946008D01*
X4798634Y-7946008D02*
X4779587Y-7917436D01*
X4779587Y-7917436D02*
X4770063Y-7907912D01*
X5131968Y-8212674D02*
X5122444Y-8203150D01*
X5122444Y-8203150D02*
X5103396Y-8174579D01*
X5103396Y-8174579D02*
X5093873Y-8155531D01*
X5093873Y-8155531D02*
X5084349Y-8126960D01*
X5084349Y-8126960D02*
X5074825Y-8079341D01*
X5074825Y-8079341D02*
X5074825Y-8041246D01*
X5074825Y-8041246D02*
X5084349Y-7993627D01*
X5084349Y-7993627D02*
X5093873Y-7965055D01*
X5093873Y-7965055D02*
X5103396Y-7946008D01*
X5103396Y-7946008D02*
X5122444Y-7917436D01*
X5122444Y-7917436D02*
X5131968Y-7907912D01*
X5208158Y-8003150D02*
X5208158Y-8136484D01*
X5208158Y-8022198D02*
X5217682Y-8012674D01*
X5217682Y-8012674D02*
X5236730Y-8003150D01*
X5236730Y-8003150D02*
X5265301Y-8003150D01*
X5265301Y-8003150D02*
X5284349Y-8012674D01*
X5284349Y-8012674D02*
X5293873Y-8031722D01*
X5293873Y-8031722D02*
X5293873Y-8136484D01*
X5417682Y-8136484D02*
X5398634Y-8126960D01*
X5398634Y-8126960D02*
X5389111Y-8117436D01*
X5389111Y-8117436D02*
X5379587Y-8098388D01*
X5379587Y-8098388D02*
X5379587Y-8041246D01*
X5379587Y-8041246D02*
X5389111Y-8022198D01*
X5389111Y-8022198D02*
X5398634Y-8012674D01*
X5398634Y-8012674D02*
X5417682Y-8003150D01*
X5417682Y-8003150D02*
X5446254Y-8003150D01*
X5446254Y-8003150D02*
X5465301Y-8012674D01*
X5465301Y-8012674D02*
X5474825Y-8022198D01*
X5474825Y-8022198D02*
X5484349Y-8041246D01*
X5484349Y-8041246D02*
X5484349Y-8098388D01*
X5484349Y-8098388D02*
X5474825Y-8117436D01*
X5474825Y-8117436D02*
X5465301Y-8126960D01*
X5465301Y-8126960D02*
X5446254Y-8136484D01*
X5446254Y-8136484D02*
X5417682Y-8136484D01*
X5541492Y-8003150D02*
X5617682Y-8003150D01*
X5570063Y-7936484D02*
X5570063Y-8107912D01*
X5570063Y-8107912D02*
X5579587Y-8126960D01*
X5579587Y-8126960D02*
X5598634Y-8136484D01*
X5598634Y-8136484D02*
X5617682Y-8136484D01*
X5836730Y-8003150D02*
X5836730Y-8203150D01*
X5836730Y-8012674D02*
X5855777Y-8003150D01*
X5855777Y-8003150D02*
X5893873Y-8003150D01*
X5893873Y-8003150D02*
X5912920Y-8012674D01*
X5912920Y-8012674D02*
X5922444Y-8022198D01*
X5922444Y-8022198D02*
X5931968Y-8041246D01*
X5931968Y-8041246D02*
X5931968Y-8098388D01*
X5931968Y-8098388D02*
X5922444Y-8117436D01*
X5922444Y-8117436D02*
X5912920Y-8126960D01*
X5912920Y-8126960D02*
X5893873Y-8136484D01*
X5893873Y-8136484D02*
X5855777Y-8136484D01*
X5855777Y-8136484D02*
X5836730Y-8126960D01*
X6046253Y-8136484D02*
X6027206Y-8126960D01*
X6027206Y-8126960D02*
X6017682Y-8107912D01*
X6017682Y-8107912D02*
X6017682Y-7936484D01*
X6208158Y-8136484D02*
X6208158Y-8031722D01*
X6208158Y-8031722D02*
X6198634Y-8012674D01*
X6198634Y-8012674D02*
X6179587Y-8003150D01*
X6179587Y-8003150D02*
X6141492Y-8003150D01*
X6141492Y-8003150D02*
X6122444Y-8012674D01*
X6208158Y-8126960D02*
X6189111Y-8136484D01*
X6189111Y-8136484D02*
X6141492Y-8136484D01*
X6141492Y-8136484D02*
X6122444Y-8126960D01*
X6122444Y-8126960D02*
X6112920Y-8107912D01*
X6112920Y-8107912D02*
X6112920Y-8088865D01*
X6112920Y-8088865D02*
X6122444Y-8069817D01*
X6122444Y-8069817D02*
X6141492Y-8060293D01*
X6141492Y-8060293D02*
X6189111Y-8060293D01*
X6189111Y-8060293D02*
X6208158Y-8050769D01*
X6274825Y-8003150D02*
X6351015Y-8003150D01*
X6303396Y-7936484D02*
X6303396Y-8107912D01*
X6303396Y-8107912D02*
X6312920Y-8126960D01*
X6312920Y-8126960D02*
X6331968Y-8136484D01*
X6331968Y-8136484D02*
X6351015Y-8136484D01*
X6493873Y-8126960D02*
X6474825Y-8136484D01*
X6474825Y-8136484D02*
X6436730Y-8136484D01*
X6436730Y-8136484D02*
X6417682Y-8126960D01*
X6417682Y-8126960D02*
X6408158Y-8107912D01*
X6408158Y-8107912D02*
X6408158Y-8031722D01*
X6408158Y-8031722D02*
X6417682Y-8012674D01*
X6417682Y-8012674D02*
X6436730Y-8003150D01*
X6436730Y-8003150D02*
X6474825Y-8003150D01*
X6474825Y-8003150D02*
X6493873Y-8012674D01*
X6493873Y-8012674D02*
X6503396Y-8031722D01*
X6503396Y-8031722D02*
X6503396Y-8050769D01*
X6503396Y-8050769D02*
X6408158Y-8069817D01*
X6674825Y-8136484D02*
X6674825Y-7936484D01*
X6674825Y-8126960D02*
X6655777Y-8136484D01*
X6655777Y-8136484D02*
X6617682Y-8136484D01*
X6617682Y-8136484D02*
X6598634Y-8126960D01*
X6598634Y-8126960D02*
X6589111Y-8117436D01*
X6589111Y-8117436D02*
X6579587Y-8098388D01*
X6579587Y-8098388D02*
X6579587Y-8041246D01*
X6579587Y-8041246D02*
X6589111Y-8022198D01*
X6589111Y-8022198D02*
X6598634Y-8012674D01*
X6598634Y-8012674D02*
X6617682Y-8003150D01*
X6617682Y-8003150D02*
X6655777Y-8003150D01*
X6655777Y-8003150D02*
X6674825Y-8012674D01*
X6751015Y-8212674D02*
X6760539Y-8203150D01*
X6760539Y-8203150D02*
X6779587Y-8174579D01*
X6779587Y-8174579D02*
X6789111Y-8155531D01*
X6789111Y-8155531D02*
X6798634Y-8126960D01*
X6798634Y-8126960D02*
X6808158Y-8079341D01*
X6808158Y-8079341D02*
X6808158Y-8041246D01*
X6808158Y-8041246D02*
X6798634Y-7993627D01*
X6798634Y-7993627D02*
X6789111Y-7965055D01*
X6789111Y-7965055D02*
X6779587Y-7946008D01*
X6779587Y-7946008D02*
X6760539Y-7917436D01*
X6760539Y-7917436D02*
X6751015Y-7907912D01*
M02*
