%TF.GenerationSoftware,KiCad,Pcbnew,10.0.5*%
%TF.CreationDate,2026-08-06T22:40:01+08:00*%
%TF.ProjectId,BrufikMobileBase,42727566-696b-44d6-9f62-696c65426173,0.1*%
%TF.SameCoordinates,Original*%
%TF.FileFunction,Legend,Top*%
%TF.FilePolarity,Positive*%
%FSLAX46Y46*%
G04 Gerber Fmt 4.6, Leading zero omitted, Abs format (unit mm)*
G04 Created by KiCad (PCBNEW 10.0.5) date 2026-08-06 22:40:01*
%MOMM*%
%LPD*%
G01*
G04 APERTURE LIST*
%ADD10C,0.150000*%
G04 APERTURE END LIST*
D10*
X58457143Y-72362295D02*
X58190476Y-71981342D01*
X58000000Y-72362295D02*
X58000000Y-71562295D01*
X58000000Y-71562295D02*
X58304762Y-71562295D01*
X58304762Y-71562295D02*
X58380952Y-71600390D01*
X58380952Y-71600390D02*
X58419047Y-71638485D01*
X58419047Y-71638485D02*
X58457143Y-71714676D01*
X58457143Y-71714676D02*
X58457143Y-71828961D01*
X58457143Y-71828961D02*
X58419047Y-71905152D01*
X58419047Y-71905152D02*
X58380952Y-71943247D01*
X58380952Y-71943247D02*
X58304762Y-71981342D01*
X58304762Y-71981342D02*
X58000000Y-71981342D01*
X58800000Y-71943247D02*
X59066666Y-71943247D01*
X59180952Y-72362295D02*
X58800000Y-72362295D01*
X58800000Y-72362295D02*
X58800000Y-71562295D01*
X58800000Y-71562295D02*
X59180952Y-71562295D01*
X59409524Y-71562295D02*
X59676191Y-72362295D01*
X59676191Y-72362295D02*
X59942857Y-71562295D01*
X60971429Y-71562295D02*
X61047619Y-71562295D01*
X61047619Y-71562295D02*
X61123810Y-71600390D01*
X61123810Y-71600390D02*
X61161905Y-71638485D01*
X61161905Y-71638485D02*
X61200000Y-71714676D01*
X61200000Y-71714676D02*
X61238095Y-71867057D01*
X61238095Y-71867057D02*
X61238095Y-72057533D01*
X61238095Y-72057533D02*
X61200000Y-72209914D01*
X61200000Y-72209914D02*
X61161905Y-72286104D01*
X61161905Y-72286104D02*
X61123810Y-72324200D01*
X61123810Y-72324200D02*
X61047619Y-72362295D01*
X61047619Y-72362295D02*
X60971429Y-72362295D01*
X60971429Y-72362295D02*
X60895238Y-72324200D01*
X60895238Y-72324200D02*
X60857143Y-72286104D01*
X60857143Y-72286104D02*
X60819048Y-72209914D01*
X60819048Y-72209914D02*
X60780952Y-72057533D01*
X60780952Y-72057533D02*
X60780952Y-71867057D01*
X60780952Y-71867057D02*
X60819048Y-71714676D01*
X60819048Y-71714676D02*
X60857143Y-71638485D01*
X60857143Y-71638485D02*
X60895238Y-71600390D01*
X60895238Y-71600390D02*
X60971429Y-71562295D01*
X61580953Y-72286104D02*
X61619048Y-72324200D01*
X61619048Y-72324200D02*
X61580953Y-72362295D01*
X61580953Y-72362295D02*
X61542857Y-72324200D01*
X61542857Y-72324200D02*
X61580953Y-72286104D01*
X61580953Y-72286104D02*
X61580953Y-72362295D01*
X62380952Y-72362295D02*
X61923809Y-72362295D01*
X62152381Y-72362295D02*
X62152381Y-71562295D01*
X62152381Y-71562295D02*
X62076190Y-71676580D01*
X62076190Y-71676580D02*
X62000000Y-71752771D01*
X62000000Y-71752771D02*
X61923809Y-71790866D01*
X63904762Y-71524200D02*
X63219048Y-72552771D01*
X64742857Y-71638485D02*
X64780953Y-71600390D01*
X64780953Y-71600390D02*
X64857143Y-71562295D01*
X64857143Y-71562295D02*
X65047619Y-71562295D01*
X65047619Y-71562295D02*
X65123810Y-71600390D01*
X65123810Y-71600390D02*
X65161905Y-71638485D01*
X65161905Y-71638485D02*
X65200000Y-71714676D01*
X65200000Y-71714676D02*
X65200000Y-71790866D01*
X65200000Y-71790866D02*
X65161905Y-71905152D01*
X65161905Y-71905152D02*
X64704762Y-72362295D01*
X64704762Y-72362295D02*
X65200000Y-72362295D01*
X65504762Y-72324200D02*
X65619048Y-72362295D01*
X65619048Y-72362295D02*
X65809524Y-72362295D01*
X65809524Y-72362295D02*
X65885715Y-72324200D01*
X65885715Y-72324200D02*
X65923810Y-72286104D01*
X65923810Y-72286104D02*
X65961905Y-72209914D01*
X65961905Y-72209914D02*
X65961905Y-72133723D01*
X65961905Y-72133723D02*
X65923810Y-72057533D01*
X65923810Y-72057533D02*
X65885715Y-72019438D01*
X65885715Y-72019438D02*
X65809524Y-71981342D01*
X65809524Y-71981342D02*
X65657143Y-71943247D01*
X65657143Y-71943247D02*
X65580953Y-71905152D01*
X65580953Y-71905152D02*
X65542858Y-71867057D01*
X65542858Y-71867057D02*
X65504762Y-71790866D01*
X65504762Y-71790866D02*
X65504762Y-71714676D01*
X65504762Y-71714676D02*
X65542858Y-71638485D01*
X65542858Y-71638485D02*
X65580953Y-71600390D01*
X65580953Y-71600390D02*
X65657143Y-71562295D01*
X65657143Y-71562295D02*
X65847620Y-71562295D01*
X65847620Y-71562295D02*
X65961905Y-71600390D01*
X66914287Y-72362295D02*
X66914287Y-71562295D01*
X67295239Y-72362295D02*
X67295239Y-71562295D01*
X67295239Y-71562295D02*
X67752382Y-72362295D01*
X67752382Y-72362295D02*
X67752382Y-71562295D01*
X68133334Y-72362295D02*
X68133334Y-71562295D01*
X68133334Y-71562295D02*
X68438096Y-71562295D01*
X68438096Y-71562295D02*
X68514286Y-71600390D01*
X68514286Y-71600390D02*
X68552381Y-71638485D01*
X68552381Y-71638485D02*
X68590477Y-71714676D01*
X68590477Y-71714676D02*
X68590477Y-71828961D01*
X68590477Y-71828961D02*
X68552381Y-71905152D01*
X68552381Y-71905152D02*
X68514286Y-71943247D01*
X68514286Y-71943247D02*
X68438096Y-71981342D01*
X68438096Y-71981342D02*
X68133334Y-71981342D01*
X68933334Y-71562295D02*
X68933334Y-72209914D01*
X68933334Y-72209914D02*
X68971429Y-72286104D01*
X68971429Y-72286104D02*
X69009524Y-72324200D01*
X69009524Y-72324200D02*
X69085715Y-72362295D01*
X69085715Y-72362295D02*
X69238096Y-72362295D01*
X69238096Y-72362295D02*
X69314286Y-72324200D01*
X69314286Y-72324200D02*
X69352381Y-72286104D01*
X69352381Y-72286104D02*
X69390477Y-72209914D01*
X69390477Y-72209914D02*
X69390477Y-71562295D01*
X69657143Y-71562295D02*
X70114286Y-71562295D01*
X69885714Y-72362295D02*
X69885714Y-71562295D01*
X81114286Y-40562295D02*
X81571429Y-40562295D01*
X81342857Y-41362295D02*
X81342857Y-40562295D01*
X81990477Y-40562295D02*
X82142858Y-40562295D01*
X82142858Y-40562295D02*
X82219048Y-40600390D01*
X82219048Y-40600390D02*
X82295239Y-40676580D01*
X82295239Y-40676580D02*
X82333334Y-40828961D01*
X82333334Y-40828961D02*
X82333334Y-41095628D01*
X82333334Y-41095628D02*
X82295239Y-41248009D01*
X82295239Y-41248009D02*
X82219048Y-41324200D01*
X82219048Y-41324200D02*
X82142858Y-41362295D01*
X82142858Y-41362295D02*
X81990477Y-41362295D01*
X81990477Y-41362295D02*
X81914286Y-41324200D01*
X81914286Y-41324200D02*
X81838096Y-41248009D01*
X81838096Y-41248009D02*
X81800000Y-41095628D01*
X81800000Y-41095628D02*
X81800000Y-40828961D01*
X81800000Y-40828961D02*
X81838096Y-40676580D01*
X81838096Y-40676580D02*
X81914286Y-40600390D01*
X81914286Y-40600390D02*
X81990477Y-40562295D01*
X82676191Y-40562295D02*
X82676191Y-41209914D01*
X82676191Y-41209914D02*
X82714286Y-41286104D01*
X82714286Y-41286104D02*
X82752381Y-41324200D01*
X82752381Y-41324200D02*
X82828572Y-41362295D01*
X82828572Y-41362295D02*
X82980953Y-41362295D01*
X82980953Y-41362295D02*
X83057143Y-41324200D01*
X83057143Y-41324200D02*
X83095238Y-41286104D01*
X83095238Y-41286104D02*
X83133334Y-41209914D01*
X83133334Y-41209914D02*
X83133334Y-40562295D01*
X83971429Y-41286104D02*
X83933333Y-41324200D01*
X83933333Y-41324200D02*
X83819048Y-41362295D01*
X83819048Y-41362295D02*
X83742857Y-41362295D01*
X83742857Y-41362295D02*
X83628571Y-41324200D01*
X83628571Y-41324200D02*
X83552381Y-41248009D01*
X83552381Y-41248009D02*
X83514286Y-41171819D01*
X83514286Y-41171819D02*
X83476190Y-41019438D01*
X83476190Y-41019438D02*
X83476190Y-40905152D01*
X83476190Y-40905152D02*
X83514286Y-40752771D01*
X83514286Y-40752771D02*
X83552381Y-40676580D01*
X83552381Y-40676580D02*
X83628571Y-40600390D01*
X83628571Y-40600390D02*
X83742857Y-40562295D01*
X83742857Y-40562295D02*
X83819048Y-40562295D01*
X83819048Y-40562295D02*
X83933333Y-40600390D01*
X83933333Y-40600390D02*
X83971429Y-40638485D01*
X84314286Y-41362295D02*
X84314286Y-40562295D01*
X84314286Y-40943247D02*
X84771429Y-40943247D01*
X84771429Y-41362295D02*
X84771429Y-40562295D01*
X81209524Y-58562295D02*
X81209524Y-59209914D01*
X81209524Y-59209914D02*
X81247619Y-59286104D01*
X81247619Y-59286104D02*
X81285714Y-59324200D01*
X81285714Y-59324200D02*
X81361905Y-59362295D01*
X81361905Y-59362295D02*
X81514286Y-59362295D01*
X81514286Y-59362295D02*
X81590476Y-59324200D01*
X81590476Y-59324200D02*
X81628571Y-59286104D01*
X81628571Y-59286104D02*
X81666667Y-59209914D01*
X81666667Y-59209914D02*
X81666667Y-58562295D01*
X82047619Y-59362295D02*
X82047619Y-58562295D01*
X82047619Y-58562295D02*
X82352381Y-58562295D01*
X82352381Y-58562295D02*
X82428571Y-58600390D01*
X82428571Y-58600390D02*
X82466666Y-58638485D01*
X82466666Y-58638485D02*
X82504762Y-58714676D01*
X82504762Y-58714676D02*
X82504762Y-58828961D01*
X82504762Y-58828961D02*
X82466666Y-58905152D01*
X82466666Y-58905152D02*
X82428571Y-58943247D01*
X82428571Y-58943247D02*
X82352381Y-58981342D01*
X82352381Y-58981342D02*
X82047619Y-58981342D01*
X82847619Y-59362295D02*
X82847619Y-58562295D01*
X82847619Y-58562295D02*
X83152381Y-58562295D01*
X83152381Y-58562295D02*
X83228571Y-58600390D01*
X83228571Y-58600390D02*
X83266666Y-58638485D01*
X83266666Y-58638485D02*
X83304762Y-58714676D01*
X83304762Y-58714676D02*
X83304762Y-58828961D01*
X83304762Y-58828961D02*
X83266666Y-58905152D01*
X83266666Y-58905152D02*
X83228571Y-58943247D01*
X83228571Y-58943247D02*
X83152381Y-58981342D01*
X83152381Y-58981342D02*
X82847619Y-58981342D01*
X83647619Y-58943247D02*
X83914285Y-58943247D01*
X84028571Y-59362295D02*
X83647619Y-59362295D01*
X83647619Y-59362295D02*
X83647619Y-58562295D01*
X83647619Y-58562295D02*
X84028571Y-58562295D01*
X84828572Y-59362295D02*
X84561905Y-58981342D01*
X84371429Y-59362295D02*
X84371429Y-58562295D01*
X84371429Y-58562295D02*
X84676191Y-58562295D01*
X84676191Y-58562295D02*
X84752381Y-58600390D01*
X84752381Y-58600390D02*
X84790476Y-58638485D01*
X84790476Y-58638485D02*
X84828572Y-58714676D01*
X84828572Y-58714676D02*
X84828572Y-58828961D01*
X84828572Y-58828961D02*
X84790476Y-58905152D01*
X84790476Y-58905152D02*
X84752381Y-58943247D01*
X84752381Y-58943247D02*
X84676191Y-58981342D01*
X84676191Y-58981342D02*
X84371429Y-58981342D01*
X7271428Y-37408557D02*
X7271428Y-36508557D01*
X7271428Y-36508557D02*
X7571428Y-37151414D01*
X7571428Y-37151414D02*
X7871428Y-36508557D01*
X7871428Y-36508557D02*
X7871428Y-37408557D01*
X8257142Y-36594271D02*
X8299999Y-36551414D01*
X8299999Y-36551414D02*
X8385714Y-36508557D01*
X8385714Y-36508557D02*
X8599999Y-36508557D01*
X8599999Y-36508557D02*
X8685714Y-36551414D01*
X8685714Y-36551414D02*
X8728571Y-36594271D01*
X8728571Y-36594271D02*
X8771428Y-36679985D01*
X8771428Y-36679985D02*
X8771428Y-36765700D01*
X8771428Y-36765700D02*
X8728571Y-36894271D01*
X8728571Y-36894271D02*
X8214285Y-37408557D01*
X8214285Y-37408557D02*
X8771428Y-37408557D01*
X19271428Y-66408557D02*
X19271428Y-65508557D01*
X19271428Y-65508557D02*
X19571428Y-66151414D01*
X19571428Y-66151414D02*
X19871428Y-65508557D01*
X19871428Y-65508557D02*
X19871428Y-66408557D01*
X20214285Y-65508557D02*
X20771428Y-65508557D01*
X20771428Y-65508557D02*
X20471428Y-65851414D01*
X20471428Y-65851414D02*
X20599999Y-65851414D01*
X20599999Y-65851414D02*
X20685714Y-65894271D01*
X20685714Y-65894271D02*
X20728571Y-65937128D01*
X20728571Y-65937128D02*
X20771428Y-66022842D01*
X20771428Y-66022842D02*
X20771428Y-66237128D01*
X20771428Y-66237128D02*
X20728571Y-66322842D01*
X20728571Y-66322842D02*
X20685714Y-66365700D01*
X20685714Y-66365700D02*
X20599999Y-66408557D01*
X20599999Y-66408557D02*
X20342856Y-66408557D01*
X20342856Y-66408557D02*
X20257142Y-66365700D01*
X20257142Y-66365700D02*
X20214285Y-66322842D01*
%LPC*%
G36*
X45841481Y-67872284D02*
G01*
X45851213Y-67878787D01*
X45857716Y-67888519D01*
X45860000Y-67900000D01*
X45860000Y-70100000D01*
X45857716Y-70111481D01*
X45851213Y-70121213D01*
X45841481Y-70127716D01*
X45830000Y-70130000D01*
X43630000Y-70130000D01*
X43618519Y-70127716D01*
X43608787Y-70121213D01*
X43602284Y-70111481D01*
X43600000Y-70100000D01*
X43600000Y-67900000D01*
X43602284Y-67888519D01*
X43608787Y-67878787D01*
X43618519Y-67872284D01*
X43630000Y-67870000D01*
X45830000Y-67870000D01*
X45841481Y-67872284D01*
G37*
G36*
X47533793Y-67901222D02*
G01*
X47702432Y-67956016D01*
X47860423Y-68036517D01*
X48003876Y-68140741D01*
X48129259Y-68266124D01*
X48233483Y-68409577D01*
X48313984Y-68567568D01*
X48368778Y-68736207D01*
X48396517Y-68911341D01*
X48396517Y-69088659D01*
X48368778Y-69263793D01*
X48313984Y-69432432D01*
X48233483Y-69590423D01*
X48129259Y-69733876D01*
X48003876Y-69859259D01*
X47860423Y-69963483D01*
X47702432Y-70043984D01*
X47533793Y-70098778D01*
X47358659Y-70126517D01*
X47181341Y-70126517D01*
X47006207Y-70098778D01*
X46837568Y-70043984D01*
X46679577Y-69963483D01*
X46536124Y-69859259D01*
X46410741Y-69733876D01*
X46306517Y-69590423D01*
X46226016Y-69432432D01*
X46171222Y-69263793D01*
X46143483Y-69088659D01*
X46143483Y-68911341D01*
X46171222Y-68736207D01*
X46226016Y-68567568D01*
X46306517Y-68409577D01*
X46410741Y-68266124D01*
X46536124Y-68140741D01*
X46679577Y-68036517D01*
X46837568Y-67956016D01*
X47006207Y-67901222D01*
X47181341Y-67873483D01*
X47358659Y-67873483D01*
X47533793Y-67901222D01*
G37*
G36*
X19641481Y-68072284D02*
G01*
X19651213Y-68078787D01*
X19657716Y-68088519D01*
X19660000Y-68100000D01*
X19660000Y-69900000D01*
X19657716Y-69911481D01*
X19651213Y-69921213D01*
X19641481Y-69927716D01*
X19630000Y-69930000D01*
X17830000Y-69930000D01*
X17818519Y-69927716D01*
X17808787Y-69921213D01*
X17802284Y-69911481D01*
X17800000Y-69900000D01*
X17800000Y-68100000D01*
X17802284Y-68088519D01*
X17808787Y-68078787D01*
X17818519Y-68072284D01*
X17830000Y-68070000D01*
X19630000Y-68070000D01*
X19641481Y-68072284D01*
G37*
G36*
X33641480Y-68072284D02*
G01*
X33651212Y-68078787D01*
X33657715Y-68088519D01*
X33659999Y-68100000D01*
X33659999Y-69900000D01*
X33657715Y-69911481D01*
X33651212Y-69921213D01*
X33641480Y-69927716D01*
X33629999Y-69930000D01*
X31829999Y-69930000D01*
X31818518Y-69927716D01*
X31808786Y-69921213D01*
X31802283Y-69911481D01*
X31799999Y-69900000D01*
X31799999Y-68100000D01*
X31802283Y-68088519D01*
X31808786Y-68078787D01*
X31818518Y-68072284D01*
X31829999Y-68070000D01*
X33629999Y-68070000D01*
X33641480Y-68072284D01*
G37*
G36*
X21539965Y-68110045D02*
G01*
X21708399Y-68179813D01*
X21859986Y-68281100D01*
X21988900Y-68410014D01*
X22090187Y-68561601D01*
X22159955Y-68730035D01*
X22195522Y-68908844D01*
X22195522Y-69091156D01*
X22159955Y-69269965D01*
X22090187Y-69438399D01*
X21988900Y-69589986D01*
X21859986Y-69718900D01*
X21708399Y-69820187D01*
X21539965Y-69889955D01*
X21361156Y-69925522D01*
X21178844Y-69925522D01*
X21000035Y-69889955D01*
X20831601Y-69820187D01*
X20680014Y-69718900D01*
X20551100Y-69589986D01*
X20449813Y-69438399D01*
X20380045Y-69269965D01*
X20344478Y-69091156D01*
X20344478Y-68908844D01*
X20380045Y-68730035D01*
X20449813Y-68561601D01*
X20551100Y-68410014D01*
X20680014Y-68281100D01*
X20831601Y-68179813D01*
X21000035Y-68110045D01*
X21178844Y-68074478D01*
X21361156Y-68074478D01*
X21539965Y-68110045D01*
G37*
G36*
X35539965Y-68110045D02*
G01*
X35708399Y-68179813D01*
X35859986Y-68281100D01*
X35988900Y-68410014D01*
X36090187Y-68561601D01*
X36159955Y-68730035D01*
X36195522Y-68908844D01*
X36195522Y-69091156D01*
X36159955Y-69269965D01*
X36090187Y-69438399D01*
X35988900Y-69589986D01*
X35859986Y-69718900D01*
X35708399Y-69820187D01*
X35539965Y-69889955D01*
X35361156Y-69925522D01*
X35178844Y-69925522D01*
X35000035Y-69889955D01*
X34831601Y-69820187D01*
X34680014Y-69718900D01*
X34551100Y-69589986D01*
X34449813Y-69438399D01*
X34380045Y-69269965D01*
X34344478Y-69091156D01*
X34344478Y-68908844D01*
X34380045Y-68730035D01*
X34449813Y-68561601D01*
X34551100Y-68410014D01*
X34680014Y-68281100D01*
X34831601Y-68179813D01*
X35000035Y-68110045D01*
X35178844Y-68074478D01*
X35361156Y-68074478D01*
X35539965Y-68110045D01*
G37*
G36*
X39561481Y-63472284D02*
G01*
X39571213Y-63478787D01*
X39577716Y-63488519D01*
X39580000Y-63500000D01*
X39580000Y-66500000D01*
X39577716Y-66511481D01*
X39571213Y-66521213D01*
X39561481Y-66527716D01*
X39550000Y-66530000D01*
X37050000Y-66530000D01*
X37038519Y-66527716D01*
X37028787Y-66521213D01*
X37022284Y-66511481D01*
X37020000Y-66500000D01*
X37020000Y-63500000D01*
X37022284Y-63488519D01*
X37028787Y-63478787D01*
X37038519Y-63472284D01*
X37050000Y-63470000D01*
X39550000Y-63470000D01*
X39561481Y-63472284D01*
G37*
G36*
X44961481Y-63472284D02*
G01*
X44971213Y-63478787D01*
X44977716Y-63488519D01*
X44980000Y-63500000D01*
X44980000Y-66500000D01*
X44977716Y-66511481D01*
X44971213Y-66521213D01*
X44961481Y-66527716D01*
X44950000Y-66530000D01*
X42450000Y-66530000D01*
X42438519Y-66527716D01*
X42428787Y-66521213D01*
X42422284Y-66511481D01*
X42420000Y-66500000D01*
X42420000Y-63500000D01*
X42422284Y-63488519D01*
X42428787Y-63478787D01*
X42438519Y-63472284D01*
X42450000Y-63470000D01*
X44950000Y-63470000D01*
X44961481Y-63472284D01*
G37*
G36*
X81311481Y-63672284D02*
G01*
X81321213Y-63678787D01*
X81327716Y-63688519D01*
X81330000Y-63700000D01*
X81330000Y-66300000D01*
X81327716Y-66311481D01*
X81321213Y-66321213D01*
X81311481Y-66327716D01*
X81300000Y-66330000D01*
X78700000Y-66330000D01*
X78688519Y-66327716D01*
X78678787Y-66321213D01*
X78672284Y-66311481D01*
X78670000Y-66300000D01*
X78670000Y-63700000D01*
X78672284Y-63688519D01*
X78678787Y-63678787D01*
X78688519Y-63672284D01*
X78700000Y-63670000D01*
X81300000Y-63670000D01*
X81311481Y-63672284D01*
G37*
G36*
X87311481Y-63672284D02*
G01*
X87321213Y-63678787D01*
X87327716Y-63688519D01*
X87330000Y-63700000D01*
X87330000Y-66300000D01*
X87327716Y-66311481D01*
X87321213Y-66321213D01*
X87311481Y-66327716D01*
X87300000Y-66330000D01*
X84700000Y-66330000D01*
X84688519Y-66327716D01*
X84678787Y-66321213D01*
X84672284Y-66311481D01*
X84670000Y-66300000D01*
X84670000Y-63700000D01*
X84672284Y-63688519D01*
X84678787Y-63678787D01*
X84688519Y-63672284D01*
X84700000Y-63670000D01*
X87300000Y-63670000D01*
X87311481Y-63672284D01*
G37*
G36*
X55711481Y-62772284D02*
G01*
X55721213Y-62778787D01*
X55727716Y-62788519D01*
X55730000Y-62800000D01*
X55730000Y-65200000D01*
X55727716Y-65211481D01*
X55721213Y-65221213D01*
X55711481Y-65227716D01*
X55700000Y-65230000D01*
X53300000Y-65230000D01*
X53288519Y-65227716D01*
X53278787Y-65221213D01*
X53272284Y-65211481D01*
X53270000Y-65200000D01*
X53270000Y-62800000D01*
X53272284Y-62788519D01*
X53278787Y-62778787D01*
X53288519Y-62772284D01*
X53300000Y-62770000D01*
X55700000Y-62770000D01*
X55711481Y-62772284D01*
G37*
G36*
X60711481Y-62772284D02*
G01*
X60721213Y-62778787D01*
X60727716Y-62788519D01*
X60730000Y-62800000D01*
X60730000Y-65200000D01*
X60727716Y-65211481D01*
X60721213Y-65221213D01*
X60711481Y-65227716D01*
X60700000Y-65230000D01*
X58300000Y-65230000D01*
X58288519Y-65227716D01*
X58278787Y-65221213D01*
X58272284Y-65211481D01*
X58270000Y-65200000D01*
X58270000Y-62800000D01*
X58272284Y-62788519D01*
X58278787Y-62778787D01*
X58288519Y-62772284D01*
X58300000Y-62770000D01*
X60700000Y-62770000D01*
X60711481Y-62772284D01*
G37*
G36*
X21311481Y-63272284D02*
G01*
X21321213Y-63278787D01*
X21327716Y-63288519D01*
X21330000Y-63300000D01*
X21330000Y-64700000D01*
X21327716Y-64711481D01*
X21321213Y-64721213D01*
X21311481Y-64727716D01*
X21300000Y-64730000D01*
X19700000Y-64730000D01*
X19688519Y-64727716D01*
X19678787Y-64721213D01*
X19672284Y-64711481D01*
X19670000Y-64700000D01*
X19670000Y-63300000D01*
X19672284Y-63288519D01*
X19678787Y-63278787D01*
X19688519Y-63272284D01*
X19700000Y-63270000D01*
X21300000Y-63270000D01*
X21311481Y-63272284D01*
G37*
G36*
X24311481Y-63272284D02*
G01*
X24321213Y-63278787D01*
X24327716Y-63288519D01*
X24330000Y-63300000D01*
X24330000Y-64700000D01*
X24327716Y-64711481D01*
X24321213Y-64721213D01*
X24311481Y-64727716D01*
X24300000Y-64730000D01*
X22700000Y-64730000D01*
X22688519Y-64727716D01*
X22678787Y-64721213D01*
X22672284Y-64711481D01*
X22670000Y-64700000D01*
X22670000Y-63300000D01*
X22672284Y-63288519D01*
X22678787Y-63278787D01*
X22688519Y-63272284D01*
X22700000Y-63270000D01*
X24300000Y-63270000D01*
X24311481Y-63272284D01*
G37*
G36*
X17357015Y-59705163D02*
G01*
X17588234Y-59767118D01*
X17809388Y-59858723D01*
X18016694Y-59978411D01*
X18206603Y-60124133D01*
X18375867Y-60293397D01*
X18521589Y-60483306D01*
X18641277Y-60690612D01*
X18732882Y-60911766D01*
X18794837Y-61142985D01*
X18826082Y-61380312D01*
X18826082Y-61619688D01*
X18794837Y-61857015D01*
X18732882Y-62088234D01*
X18641277Y-62309388D01*
X18521589Y-62516694D01*
X18375867Y-62706603D01*
X18206603Y-62875867D01*
X18016694Y-63021589D01*
X17809388Y-63141277D01*
X17588234Y-63232882D01*
X17357015Y-63294837D01*
X17119688Y-63326082D01*
X16880312Y-63326082D01*
X16642985Y-63294837D01*
X16411766Y-63232882D01*
X16190612Y-63141277D01*
X15983306Y-63021589D01*
X15793397Y-62875867D01*
X15624133Y-62706603D01*
X15478411Y-62516694D01*
X15358723Y-62309388D01*
X15267118Y-62088234D01*
X15205163Y-61857015D01*
X15173918Y-61619688D01*
X15173918Y-61380312D01*
X15205163Y-61142985D01*
X15267118Y-60911766D01*
X15358723Y-60690612D01*
X15478411Y-60483306D01*
X15624133Y-60293397D01*
X15793397Y-60124133D01*
X15983306Y-59978411D01*
X16190612Y-59858723D01*
X16411766Y-59767118D01*
X16642985Y-59705163D01*
X16880312Y-59673918D01*
X17119688Y-59673918D01*
X17357015Y-59705163D01*
G37*
G36*
X75357015Y-59705163D02*
G01*
X75588234Y-59767118D01*
X75809388Y-59858723D01*
X76016694Y-59978411D01*
X76206603Y-60124133D01*
X76375867Y-60293397D01*
X76521589Y-60483306D01*
X76641277Y-60690612D01*
X76732882Y-60911766D01*
X76794837Y-61142985D01*
X76826082Y-61380312D01*
X76826082Y-61619688D01*
X76794837Y-61857015D01*
X76732882Y-62088234D01*
X76641277Y-62309388D01*
X76521589Y-62516694D01*
X76375867Y-62706603D01*
X76206603Y-62875867D01*
X76016694Y-63021589D01*
X75809388Y-63141277D01*
X75588234Y-63232882D01*
X75357015Y-63294837D01*
X75119688Y-63326082D01*
X74880312Y-63326082D01*
X74642985Y-63294837D01*
X74411766Y-63232882D01*
X74190612Y-63141277D01*
X73983306Y-63021589D01*
X73793397Y-62875867D01*
X73624133Y-62706603D01*
X73478411Y-62516694D01*
X73358723Y-62309388D01*
X73267118Y-62088234D01*
X73205163Y-61857015D01*
X73173918Y-61619688D01*
X73173918Y-61380312D01*
X73205163Y-61142985D01*
X73267118Y-60911766D01*
X73358723Y-60690612D01*
X73478411Y-60483306D01*
X73624133Y-60293397D01*
X73793397Y-60124133D01*
X73983306Y-59978411D01*
X74190612Y-59858723D01*
X74411766Y-59767118D01*
X74642985Y-59705163D01*
X74880312Y-59673918D01*
X75119688Y-59673918D01*
X75357015Y-59705163D01*
G37*
G36*
X49911481Y-57772284D02*
G01*
X49921213Y-57778787D01*
X49927716Y-57788519D01*
X49930000Y-57800000D01*
X49930000Y-60200000D01*
X49927716Y-60211481D01*
X49921213Y-60221213D01*
X49911481Y-60227716D01*
X49900000Y-60230000D01*
X47100000Y-60230000D01*
X47088519Y-60227716D01*
X47078787Y-60221213D01*
X47072284Y-60211481D01*
X47070000Y-60200000D01*
X47070000Y-57800000D01*
X47072284Y-57788519D01*
X47078787Y-57778787D01*
X47088519Y-57772284D01*
X47100000Y-57770000D01*
X49900000Y-57770000D01*
X49911481Y-57772284D01*
G37*
G36*
X54911481Y-57772284D02*
G01*
X54921213Y-57778787D01*
X54927716Y-57788519D01*
X54930000Y-57800000D01*
X54930000Y-60200000D01*
X54927716Y-60211481D01*
X54921213Y-60221213D01*
X54911481Y-60227716D01*
X54900000Y-60230000D01*
X52100000Y-60230000D01*
X52088519Y-60227716D01*
X52078787Y-60221213D01*
X52072284Y-60211481D01*
X52070000Y-60200000D01*
X52070000Y-57800000D01*
X52072284Y-57788519D01*
X52078787Y-57778787D01*
X52088519Y-57772284D01*
X52100000Y-57770000D01*
X54900000Y-57770000D01*
X54911481Y-57772284D01*
G37*
G36*
X87269965Y-55920045D02*
G01*
X87438399Y-55989813D01*
X87589986Y-56091100D01*
X87718900Y-56220014D01*
X87820187Y-56371601D01*
X87889955Y-56540035D01*
X87925522Y-56718844D01*
X87925522Y-56901156D01*
X87889955Y-57079965D01*
X87820187Y-57248399D01*
X87718900Y-57399986D01*
X87589986Y-57528900D01*
X87438399Y-57630187D01*
X87269965Y-57699955D01*
X87091156Y-57735522D01*
X86908844Y-57735522D01*
X86730035Y-57699955D01*
X86561601Y-57630187D01*
X86410014Y-57528900D01*
X86281100Y-57399986D01*
X86179813Y-57248399D01*
X86110045Y-57079965D01*
X86074478Y-56901156D01*
X86074478Y-56718844D01*
X86110045Y-56540035D01*
X86179813Y-56371601D01*
X86281100Y-56220014D01*
X86410014Y-56091100D01*
X86561601Y-55989813D01*
X86730035Y-55920045D01*
X86908844Y-55884478D01*
X87091156Y-55884478D01*
X87269965Y-55920045D01*
G37*
G36*
X87269965Y-53380045D02*
G01*
X87438399Y-53449813D01*
X87589986Y-53551100D01*
X87718900Y-53680014D01*
X87820187Y-53831601D01*
X87889955Y-54000035D01*
X87925522Y-54178844D01*
X87925522Y-54361156D01*
X87889955Y-54539965D01*
X87820187Y-54708399D01*
X87718900Y-54859986D01*
X87589986Y-54988900D01*
X87438399Y-55090187D01*
X87269965Y-55159955D01*
X87091156Y-55195522D01*
X86908844Y-55195522D01*
X86730035Y-55159955D01*
X86561601Y-55090187D01*
X86410014Y-54988900D01*
X86281100Y-54859986D01*
X86179813Y-54708399D01*
X86110045Y-54539965D01*
X86074478Y-54361156D01*
X86074478Y-54178844D01*
X86110045Y-54000035D01*
X86179813Y-53831601D01*
X86281100Y-53680014D01*
X86410014Y-53551100D01*
X86561601Y-53449813D01*
X86730035Y-53380045D01*
X86908844Y-53344478D01*
X87091156Y-53344478D01*
X87269965Y-53380045D01*
G37*
G36*
X34311481Y-51772284D02*
G01*
X34321213Y-51778787D01*
X34327716Y-51788519D01*
X34330000Y-51800000D01*
X34330000Y-53200000D01*
X34327716Y-53211481D01*
X34321213Y-53221213D01*
X34311481Y-53227716D01*
X34300000Y-53230000D01*
X32700000Y-53230000D01*
X32688519Y-53227716D01*
X32678787Y-53221213D01*
X32672284Y-53211481D01*
X32670000Y-53200000D01*
X32670000Y-51800000D01*
X32672284Y-51788519D01*
X32678787Y-51778787D01*
X32688519Y-51772284D01*
X32700000Y-51770000D01*
X34300000Y-51770000D01*
X34311481Y-51772284D01*
G37*
G36*
X37311481Y-51772284D02*
G01*
X37321213Y-51778787D01*
X37327716Y-51788519D01*
X37330000Y-51800000D01*
X37330000Y-53200000D01*
X37327716Y-53211481D01*
X37321213Y-53221213D01*
X37311481Y-53227716D01*
X37300000Y-53230000D01*
X35700000Y-53230000D01*
X35688519Y-53227716D01*
X35678787Y-53221213D01*
X35672284Y-53211481D01*
X35670000Y-53200000D01*
X35670000Y-51800000D01*
X35672284Y-51788519D01*
X35678787Y-51778787D01*
X35688519Y-51772284D01*
X35700000Y-51770000D01*
X37300000Y-51770000D01*
X37311481Y-51772284D01*
G37*
G36*
X87269965Y-50840045D02*
G01*
X87438399Y-50909813D01*
X87589986Y-51011100D01*
X87718900Y-51140014D01*
X87820187Y-51291601D01*
X87889955Y-51460035D01*
X87925522Y-51638844D01*
X87925522Y-51821156D01*
X87889955Y-51999965D01*
X87820187Y-52168399D01*
X87718900Y-52319986D01*
X87589986Y-52448900D01*
X87438399Y-52550187D01*
X87269965Y-52619955D01*
X87091156Y-52655522D01*
X86908844Y-52655522D01*
X86730035Y-52619955D01*
X86561601Y-52550187D01*
X86410014Y-52448900D01*
X86281100Y-52319986D01*
X86179813Y-52168399D01*
X86110045Y-51999965D01*
X86074478Y-51821156D01*
X86074478Y-51638844D01*
X86110045Y-51460035D01*
X86179813Y-51291601D01*
X86281100Y-51140014D01*
X86410014Y-51011100D01*
X86561601Y-50909813D01*
X86730035Y-50840045D01*
X86908844Y-50804478D01*
X87091156Y-50804478D01*
X87269965Y-50840045D01*
G37*
G36*
X7061481Y-48372284D02*
G01*
X7071213Y-48378787D01*
X7077716Y-48388519D01*
X7080000Y-48400000D01*
X7080000Y-51600000D01*
X7077716Y-51611481D01*
X7071213Y-51621213D01*
X7061481Y-51627716D01*
X7050000Y-51630000D01*
X4550000Y-51630000D01*
X4538519Y-51627716D01*
X4528787Y-51621213D01*
X4522284Y-51611481D01*
X4520000Y-51600000D01*
X4520000Y-48400000D01*
X4522284Y-48388519D01*
X4528787Y-48378787D01*
X4538519Y-48372284D01*
X4550000Y-48370000D01*
X7050000Y-48370000D01*
X7061481Y-48372284D01*
G37*
G36*
X11461481Y-48372284D02*
G01*
X11471213Y-48378787D01*
X11477716Y-48388519D01*
X11480000Y-48400000D01*
X11480000Y-51600000D01*
X11477716Y-51611481D01*
X11471213Y-51621213D01*
X11461481Y-51627716D01*
X11450000Y-51630000D01*
X8950000Y-51630000D01*
X8938519Y-51627716D01*
X8928787Y-51621213D01*
X8922284Y-51611481D01*
X8920000Y-51600000D01*
X8920000Y-48400000D01*
X8922284Y-48388519D01*
X8928787Y-48378787D01*
X8938519Y-48372284D01*
X8950000Y-48370000D01*
X11450000Y-48370000D01*
X11461481Y-48372284D01*
G37*
G36*
X23760000Y-51435000D02*
G01*
X22240000Y-51435000D01*
X22240000Y-51115000D01*
X23760000Y-51115000D01*
X23760000Y-51435000D01*
G37*
G36*
X29760000Y-51435000D02*
G01*
X28240000Y-51435000D01*
X28240000Y-51115000D01*
X29760000Y-51115000D01*
X29760000Y-51435000D01*
G37*
G36*
X23760000Y-50785000D02*
G01*
X22240000Y-50785000D01*
X22240000Y-50465000D01*
X23760000Y-50465000D01*
X23760000Y-50785000D01*
G37*
G36*
X29760000Y-50785000D02*
G01*
X28240000Y-50785000D01*
X28240000Y-50465000D01*
X29760000Y-50465000D01*
X29760000Y-50785000D01*
G37*
G36*
X27611481Y-47422284D02*
G01*
X27621213Y-47428787D01*
X27627716Y-47438519D01*
X27630000Y-47450000D01*
X27630000Y-50550000D01*
X27627716Y-50561481D01*
X27621213Y-50571213D01*
X27611481Y-50577716D01*
X27600000Y-50580000D01*
X24400000Y-50580000D01*
X24388519Y-50577716D01*
X24378787Y-50571213D01*
X24372284Y-50561481D01*
X24370000Y-50550000D01*
X24370000Y-47450000D01*
X24372284Y-47438519D01*
X24378787Y-47428787D01*
X24388519Y-47422284D01*
X24400000Y-47420000D01*
X27600000Y-47420000D01*
X27611481Y-47422284D01*
G37*
G36*
X23760000Y-50135000D02*
G01*
X22240000Y-50135000D01*
X22240000Y-49815000D01*
X23760000Y-49815000D01*
X23760000Y-50135000D01*
G37*
G36*
X29760000Y-50135000D02*
G01*
X28240000Y-50135000D01*
X28240000Y-49815000D01*
X29760000Y-49815000D01*
X29760000Y-50135000D01*
G37*
G36*
X87911481Y-48262284D02*
G01*
X87921213Y-48268787D01*
X87927716Y-48278519D01*
X87930000Y-48290000D01*
X87930000Y-50090000D01*
X87927716Y-50101481D01*
X87921213Y-50111213D01*
X87911481Y-50117716D01*
X87900000Y-50120000D01*
X86100000Y-50120000D01*
X86088519Y-50117716D01*
X86078787Y-50111213D01*
X86072284Y-50101481D01*
X86070000Y-50090000D01*
X86070000Y-48290000D01*
X86072284Y-48278519D01*
X86078787Y-48268787D01*
X86088519Y-48262284D01*
X86100000Y-48260000D01*
X87900000Y-48260000D01*
X87911481Y-48262284D01*
G37*
G36*
X34311481Y-48572284D02*
G01*
X34321213Y-48578787D01*
X34327716Y-48588519D01*
X34330000Y-48600000D01*
X34330000Y-50000000D01*
X34327716Y-50011481D01*
X34321213Y-50021213D01*
X34311481Y-50027716D01*
X34300000Y-50030000D01*
X32700000Y-50030000D01*
X32688519Y-50027716D01*
X32678787Y-50021213D01*
X32672284Y-50011481D01*
X32670000Y-50000000D01*
X32670000Y-48600000D01*
X32672284Y-48588519D01*
X32678787Y-48578787D01*
X32688519Y-48572284D01*
X32700000Y-48570000D01*
X34300000Y-48570000D01*
X34311481Y-48572284D01*
G37*
G36*
X37311481Y-48572284D02*
G01*
X37321213Y-48578787D01*
X37327716Y-48588519D01*
X37330000Y-48600000D01*
X37330000Y-50000000D01*
X37327716Y-50011481D01*
X37321213Y-50021213D01*
X37311481Y-50027716D01*
X37300000Y-50030000D01*
X35700000Y-50030000D01*
X35688519Y-50027716D01*
X35678787Y-50021213D01*
X35672284Y-50011481D01*
X35670000Y-50000000D01*
X35670000Y-48600000D01*
X35672284Y-48588519D01*
X35678787Y-48578787D01*
X35688519Y-48572284D01*
X35700000Y-48570000D01*
X37300000Y-48570000D01*
X37311481Y-48572284D01*
G37*
G36*
X43649965Y-47730045D02*
G01*
X43818399Y-47799813D01*
X43969986Y-47901100D01*
X44098900Y-48030014D01*
X44200187Y-48181601D01*
X44269955Y-48350035D01*
X44305522Y-48528844D01*
X44305522Y-48711156D01*
X44269955Y-48889965D01*
X44200187Y-49058399D01*
X44098900Y-49209986D01*
X43969986Y-49338900D01*
X43818399Y-49440187D01*
X43649965Y-49509955D01*
X43471156Y-49545522D01*
X43288844Y-49545522D01*
X43110035Y-49509955D01*
X42941601Y-49440187D01*
X42790014Y-49338900D01*
X42661100Y-49209986D01*
X42559813Y-49058399D01*
X42490045Y-48889965D01*
X42454478Y-48711156D01*
X42454478Y-48528844D01*
X42490045Y-48350035D01*
X42559813Y-48181601D01*
X42661100Y-48030014D01*
X42790014Y-47901100D01*
X42941601Y-47799813D01*
X43110035Y-47730045D01*
X43288844Y-47694478D01*
X43471156Y-47694478D01*
X43649965Y-47730045D01*
G37*
G36*
X58889965Y-47730045D02*
G01*
X59058399Y-47799813D01*
X59209986Y-47901100D01*
X59338900Y-48030014D01*
X59440187Y-48181601D01*
X59509955Y-48350035D01*
X59545522Y-48528844D01*
X59545522Y-48711156D01*
X59509955Y-48889965D01*
X59440187Y-49058399D01*
X59338900Y-49209986D01*
X59209986Y-49338900D01*
X59058399Y-49440187D01*
X58889965Y-49509955D01*
X58711156Y-49545522D01*
X58528844Y-49545522D01*
X58350035Y-49509955D01*
X58181601Y-49440187D01*
X58030014Y-49338900D01*
X57901100Y-49209986D01*
X57799813Y-49058399D01*
X57730045Y-48889965D01*
X57694478Y-48711156D01*
X57694478Y-48528844D01*
X57730045Y-48350035D01*
X57799813Y-48181601D01*
X57901100Y-48030014D01*
X58030014Y-47901100D01*
X58181601Y-47799813D01*
X58350035Y-47730045D01*
X58528844Y-47694478D01*
X58711156Y-47694478D01*
X58889965Y-47730045D01*
G37*
G36*
X23760000Y-49485000D02*
G01*
X22240000Y-49485000D01*
X22240000Y-49165000D01*
X23760000Y-49165000D01*
X23760000Y-49485000D01*
G37*
G36*
X29760000Y-49484999D02*
G01*
X28240000Y-49484999D01*
X28240000Y-49164999D01*
X29760000Y-49164999D01*
X29760000Y-49484999D01*
G37*
G36*
X23760000Y-48835000D02*
G01*
X22240000Y-48835000D01*
X22240000Y-48515000D01*
X23760000Y-48515000D01*
X23760000Y-48835000D01*
G37*
G36*
X29760000Y-48835000D02*
G01*
X28240000Y-48835000D01*
X28240000Y-48515000D01*
X29760000Y-48515000D01*
X29760000Y-48835000D01*
G37*
G36*
X23760000Y-48185000D02*
G01*
X22240000Y-48185000D01*
X22240000Y-47865000D01*
X23760000Y-47865000D01*
X23760000Y-48185000D01*
G37*
G36*
X29760000Y-48185000D02*
G01*
X28240000Y-48185000D01*
X28240000Y-47865000D01*
X29760000Y-47865000D01*
X29760000Y-48185000D01*
G37*
G36*
X23760000Y-47535000D02*
G01*
X22240000Y-47535000D01*
X22240000Y-47215000D01*
X23760000Y-47215000D01*
X23760000Y-47535000D01*
G37*
G36*
X29760000Y-47535000D02*
G01*
X28240000Y-47535000D01*
X28240000Y-47215000D01*
X29760000Y-47215000D01*
X29760000Y-47535000D01*
G37*
G36*
X43649965Y-45190045D02*
G01*
X43818399Y-45259813D01*
X43969986Y-45361100D01*
X44098900Y-45490014D01*
X44200187Y-45641601D01*
X44269955Y-45810035D01*
X44305522Y-45988844D01*
X44305522Y-46171156D01*
X44269955Y-46349965D01*
X44200187Y-46518399D01*
X44098900Y-46669986D01*
X43969986Y-46798900D01*
X43818399Y-46900187D01*
X43649965Y-46969955D01*
X43471156Y-47005522D01*
X43288844Y-47005522D01*
X43110035Y-46969955D01*
X42941601Y-46900187D01*
X42790014Y-46798900D01*
X42661100Y-46669986D01*
X42559813Y-46518399D01*
X42490045Y-46349965D01*
X42454478Y-46171156D01*
X42454478Y-45988844D01*
X42490045Y-45810035D01*
X42559813Y-45641601D01*
X42661100Y-45490014D01*
X42790014Y-45361100D01*
X42941601Y-45259813D01*
X43110035Y-45190045D01*
X43288844Y-45154478D01*
X43471156Y-45154478D01*
X43649965Y-45190045D01*
G37*
G36*
X58889965Y-45190045D02*
G01*
X59058399Y-45259813D01*
X59209986Y-45361100D01*
X59338900Y-45490014D01*
X59440187Y-45641601D01*
X59509955Y-45810035D01*
X59545522Y-45988844D01*
X59545522Y-46171156D01*
X59509955Y-46349965D01*
X59440187Y-46518399D01*
X59338900Y-46669986D01*
X59209986Y-46798900D01*
X59058399Y-46900187D01*
X58889965Y-46969955D01*
X58711156Y-47005522D01*
X58528844Y-47005522D01*
X58350035Y-46969955D01*
X58181601Y-46900187D01*
X58030014Y-46798900D01*
X57901100Y-46669986D01*
X57799813Y-46518399D01*
X57730045Y-46349965D01*
X57694478Y-46171156D01*
X57694478Y-45988844D01*
X57730045Y-45810035D01*
X57799813Y-45641601D01*
X57901100Y-45490014D01*
X58030014Y-45361100D01*
X58181601Y-45259813D01*
X58350035Y-45190045D01*
X58528844Y-45154478D01*
X58711156Y-45154478D01*
X58889965Y-45190045D01*
G37*
G36*
X23760000Y-46885000D02*
G01*
X22240000Y-46885000D01*
X22240000Y-46565000D01*
X23760000Y-46565000D01*
X23760000Y-46885000D01*
G37*
G36*
X29760000Y-46885000D02*
G01*
X28240000Y-46885000D01*
X28240000Y-46565000D01*
X29760000Y-46565000D01*
X29760000Y-46885000D01*
G37*
G36*
X43649965Y-42650045D02*
G01*
X43818399Y-42719813D01*
X43969986Y-42821100D01*
X44098900Y-42950014D01*
X44200187Y-43101601D01*
X44269955Y-43270035D01*
X44305522Y-43448844D01*
X44305522Y-43631156D01*
X44269955Y-43809965D01*
X44200187Y-43978399D01*
X44098900Y-44129986D01*
X43969986Y-44258900D01*
X43818399Y-44360187D01*
X43649965Y-44429955D01*
X43471156Y-44465522D01*
X43288844Y-44465522D01*
X43110035Y-44429955D01*
X42941601Y-44360187D01*
X42790014Y-44258900D01*
X42661100Y-44129986D01*
X42559813Y-43978399D01*
X42490045Y-43809965D01*
X42454478Y-43631156D01*
X42454478Y-43448844D01*
X42490045Y-43270035D01*
X42559813Y-43101601D01*
X42661100Y-42950014D01*
X42790014Y-42821100D01*
X42941601Y-42719813D01*
X43110035Y-42650045D01*
X43288844Y-42614478D01*
X43471156Y-42614478D01*
X43649965Y-42650045D01*
G37*
G36*
X58889965Y-42650045D02*
G01*
X59058399Y-42719813D01*
X59209986Y-42821100D01*
X59338900Y-42950014D01*
X59440187Y-43101601D01*
X59509955Y-43270035D01*
X59545522Y-43448844D01*
X59545522Y-43631156D01*
X59509955Y-43809965D01*
X59440187Y-43978399D01*
X59338900Y-44129986D01*
X59209986Y-44258900D01*
X59058399Y-44360187D01*
X58889965Y-44429955D01*
X58711156Y-44465522D01*
X58528844Y-44465522D01*
X58350035Y-44429955D01*
X58181601Y-44360187D01*
X58030014Y-44258900D01*
X57901100Y-44129986D01*
X57799813Y-43978399D01*
X57730045Y-43809965D01*
X57694478Y-43631156D01*
X57694478Y-43448844D01*
X57730045Y-43270035D01*
X57799813Y-43101601D01*
X57901100Y-42950014D01*
X58030014Y-42821100D01*
X58181601Y-42719813D01*
X58350035Y-42650045D01*
X58528844Y-42614478D01*
X58711156Y-42614478D01*
X58889965Y-42650045D01*
G37*
G36*
X17411481Y-40672284D02*
G01*
X17421213Y-40678787D01*
X17427716Y-40688519D01*
X17430000Y-40700000D01*
X17430000Y-43300000D01*
X17427716Y-43311481D01*
X17421213Y-43321213D01*
X17411481Y-43327716D01*
X17400000Y-43330000D01*
X15600000Y-43330000D01*
X15588519Y-43327716D01*
X15578787Y-43321213D01*
X15572284Y-43311481D01*
X15570000Y-43300000D01*
X15570000Y-40700000D01*
X15572284Y-40688519D01*
X15578787Y-40678787D01*
X15588519Y-40672284D01*
X15600000Y-40670000D01*
X17400000Y-40670000D01*
X17411481Y-40672284D01*
G37*
G36*
X20411481Y-40672284D02*
G01*
X20421213Y-40678787D01*
X20427716Y-40688519D01*
X20430000Y-40700000D01*
X20430000Y-43300000D01*
X20427716Y-43311481D01*
X20421213Y-43321213D01*
X20411481Y-43327716D01*
X20400000Y-43330000D01*
X18600000Y-43330000D01*
X18588519Y-43327716D01*
X18578787Y-43321213D01*
X18572284Y-43311481D01*
X18570000Y-43300000D01*
X18570000Y-40700000D01*
X18572284Y-40688519D01*
X18578787Y-40678787D01*
X18588519Y-40672284D01*
X18600000Y-40670000D01*
X20400000Y-40670000D01*
X20411481Y-40672284D01*
G37*
G36*
X43649965Y-40110045D02*
G01*
X43818399Y-40179813D01*
X43969986Y-40281100D01*
X44098900Y-40410014D01*
X44200187Y-40561601D01*
X44269955Y-40730035D01*
X44305522Y-40908844D01*
X44305522Y-41091156D01*
X44269955Y-41269965D01*
X44200187Y-41438399D01*
X44098900Y-41589986D01*
X43969986Y-41718900D01*
X43818399Y-41820187D01*
X43649965Y-41889955D01*
X43471156Y-41925522D01*
X43288844Y-41925522D01*
X43110035Y-41889955D01*
X42941601Y-41820187D01*
X42790014Y-41718900D01*
X42661100Y-41589986D01*
X42559813Y-41438399D01*
X42490045Y-41269965D01*
X42454478Y-41091156D01*
X42454478Y-40908844D01*
X42490045Y-40730035D01*
X42559813Y-40561601D01*
X42661100Y-40410014D01*
X42790014Y-40281100D01*
X42941601Y-40179813D01*
X43110035Y-40110045D01*
X43288844Y-40074478D01*
X43471156Y-40074478D01*
X43649965Y-40110045D01*
G37*
G36*
X58889965Y-40110045D02*
G01*
X59058399Y-40179813D01*
X59209986Y-40281100D01*
X59338900Y-40410014D01*
X59440187Y-40561601D01*
X59509955Y-40730035D01*
X59545522Y-40908844D01*
X59545522Y-41091156D01*
X59509955Y-41269965D01*
X59440187Y-41438399D01*
X59338900Y-41589986D01*
X59209986Y-41718900D01*
X59058399Y-41820187D01*
X58889965Y-41889955D01*
X58711156Y-41925522D01*
X58528844Y-41925522D01*
X58350035Y-41889955D01*
X58181601Y-41820187D01*
X58030014Y-41718900D01*
X57901100Y-41589986D01*
X57799813Y-41438399D01*
X57730045Y-41269965D01*
X57694478Y-41091156D01*
X57694478Y-40908844D01*
X57730045Y-40730035D01*
X57799813Y-40561601D01*
X57901100Y-40410014D01*
X58030014Y-40281100D01*
X58181601Y-40179813D01*
X58350035Y-40110045D01*
X58528844Y-40074478D01*
X58711156Y-40074478D01*
X58889965Y-40110045D01*
G37*
G36*
X43649965Y-37570045D02*
G01*
X43818399Y-37639813D01*
X43969986Y-37741100D01*
X44098900Y-37870014D01*
X44200187Y-38021601D01*
X44269955Y-38190035D01*
X44305522Y-38368844D01*
X44305522Y-38551156D01*
X44269955Y-38729965D01*
X44200187Y-38898399D01*
X44098900Y-39049986D01*
X43969986Y-39178900D01*
X43818399Y-39280187D01*
X43649965Y-39349955D01*
X43471156Y-39385522D01*
X43288844Y-39385522D01*
X43110035Y-39349955D01*
X42941601Y-39280187D01*
X42790014Y-39178900D01*
X42661100Y-39049986D01*
X42559813Y-38898399D01*
X42490045Y-38729965D01*
X42454478Y-38551156D01*
X42454478Y-38368844D01*
X42490045Y-38190035D01*
X42559813Y-38021601D01*
X42661100Y-37870014D01*
X42790014Y-37741100D01*
X42941601Y-37639813D01*
X43110035Y-37570045D01*
X43288844Y-37534478D01*
X43471156Y-37534478D01*
X43649965Y-37570045D01*
G37*
G36*
X58889965Y-37570045D02*
G01*
X59058399Y-37639813D01*
X59209986Y-37741100D01*
X59338900Y-37870014D01*
X59440187Y-38021601D01*
X59509955Y-38190035D01*
X59545522Y-38368844D01*
X59545522Y-38551156D01*
X59509955Y-38729965D01*
X59440187Y-38898399D01*
X59338900Y-39049986D01*
X59209986Y-39178900D01*
X59058399Y-39280187D01*
X58889965Y-39349955D01*
X58711156Y-39385522D01*
X58528844Y-39385522D01*
X58350035Y-39349955D01*
X58181601Y-39280187D01*
X58030014Y-39178900D01*
X57901100Y-39049986D01*
X57799813Y-38898399D01*
X57730045Y-38729965D01*
X57694478Y-38551156D01*
X57694478Y-38368844D01*
X57730045Y-38190035D01*
X57799813Y-38021601D01*
X57901100Y-37870014D01*
X58030014Y-37741100D01*
X58181601Y-37639813D01*
X58350035Y-37570045D01*
X58528844Y-37534478D01*
X58711156Y-37534478D01*
X58889965Y-37570045D01*
G37*
G36*
X9811481Y-37772284D02*
G01*
X9821213Y-37778787D01*
X9827716Y-37788519D01*
X9830000Y-37800000D01*
X9830000Y-39200000D01*
X9827716Y-39211481D01*
X9821213Y-39221213D01*
X9811481Y-39227716D01*
X9800000Y-39230000D01*
X8200000Y-39230000D01*
X8188519Y-39227716D01*
X8178787Y-39221213D01*
X8172284Y-39211481D01*
X8170000Y-39200000D01*
X8170000Y-37800000D01*
X8172284Y-37788519D01*
X8178787Y-37778787D01*
X8188519Y-37772284D01*
X8200000Y-37770000D01*
X9800000Y-37770000D01*
X9811481Y-37772284D01*
G37*
G36*
X5269965Y-37380045D02*
G01*
X5438399Y-37449813D01*
X5589986Y-37551100D01*
X5718900Y-37680014D01*
X5820187Y-37831601D01*
X5889955Y-38000035D01*
X5925522Y-38178844D01*
X5925522Y-38361156D01*
X5889955Y-38539965D01*
X5820187Y-38708399D01*
X5718900Y-38859986D01*
X5589986Y-38988900D01*
X5438399Y-39090187D01*
X5269965Y-39159955D01*
X5091156Y-39195522D01*
X4908844Y-39195522D01*
X4730035Y-39159955D01*
X4561601Y-39090187D01*
X4410014Y-38988900D01*
X4281100Y-38859986D01*
X4179813Y-38708399D01*
X4110045Y-38539965D01*
X4074478Y-38361156D01*
X4074478Y-38178844D01*
X4110045Y-38000035D01*
X4179813Y-37831601D01*
X4281100Y-37680014D01*
X4410014Y-37551100D01*
X4561601Y-37449813D01*
X4730035Y-37380045D01*
X4908844Y-37344478D01*
X5091156Y-37344478D01*
X5269965Y-37380045D01*
G37*
G36*
X87269965Y-36650045D02*
G01*
X87438399Y-36719813D01*
X87589986Y-36821100D01*
X87718900Y-36950014D01*
X87820187Y-37101601D01*
X87889955Y-37270035D01*
X87925522Y-37448844D01*
X87925522Y-37631156D01*
X87889955Y-37809965D01*
X87820187Y-37978399D01*
X87718900Y-38129986D01*
X87589986Y-38258900D01*
X87438399Y-38360187D01*
X87269965Y-38429955D01*
X87091156Y-38465522D01*
X86908844Y-38465522D01*
X86730035Y-38429955D01*
X86561601Y-38360187D01*
X86410014Y-38258900D01*
X86281100Y-38129986D01*
X86179813Y-37978399D01*
X86110045Y-37809965D01*
X86074478Y-37631156D01*
X86074478Y-37448844D01*
X86110045Y-37270035D01*
X86179813Y-37101601D01*
X86281100Y-36950014D01*
X86410014Y-36821100D01*
X86561601Y-36719813D01*
X86730035Y-36650045D01*
X86908844Y-36614478D01*
X87091156Y-36614478D01*
X87269965Y-36650045D01*
G37*
G36*
X43649965Y-35030045D02*
G01*
X43818399Y-35099813D01*
X43969986Y-35201100D01*
X44098900Y-35330014D01*
X44200187Y-35481601D01*
X44269955Y-35650035D01*
X44305522Y-35828844D01*
X44305522Y-36011156D01*
X44269955Y-36189965D01*
X44200187Y-36358399D01*
X44098900Y-36509986D01*
X43969986Y-36638900D01*
X43818399Y-36740187D01*
X43649965Y-36809955D01*
X43471156Y-36845522D01*
X43288844Y-36845522D01*
X43110035Y-36809955D01*
X42941601Y-36740187D01*
X42790014Y-36638900D01*
X42661100Y-36509986D01*
X42559813Y-36358399D01*
X42490045Y-36189965D01*
X42454478Y-36011156D01*
X42454478Y-35828844D01*
X42490045Y-35650035D01*
X42559813Y-35481601D01*
X42661100Y-35330014D01*
X42790014Y-35201100D01*
X42941601Y-35099813D01*
X43110035Y-35030045D01*
X43288844Y-34994478D01*
X43471156Y-34994478D01*
X43649965Y-35030045D01*
G37*
G36*
X58889965Y-35030045D02*
G01*
X59058399Y-35099813D01*
X59209986Y-35201100D01*
X59338900Y-35330014D01*
X59440187Y-35481601D01*
X59509955Y-35650035D01*
X59545522Y-35828844D01*
X59545522Y-36011156D01*
X59509955Y-36189965D01*
X59440187Y-36358399D01*
X59338900Y-36509986D01*
X59209986Y-36638900D01*
X59058399Y-36740187D01*
X58889965Y-36809955D01*
X58711156Y-36845522D01*
X58528844Y-36845522D01*
X58350035Y-36809955D01*
X58181601Y-36740187D01*
X58030014Y-36638900D01*
X57901100Y-36509986D01*
X57799813Y-36358399D01*
X57730045Y-36189965D01*
X57694478Y-36011156D01*
X57694478Y-35828844D01*
X57730045Y-35650035D01*
X57799813Y-35481601D01*
X57901100Y-35330014D01*
X58030014Y-35201100D01*
X58181601Y-35099813D01*
X58350035Y-35030045D01*
X58528844Y-34994478D01*
X58711156Y-34994478D01*
X58889965Y-35030045D01*
G37*
G36*
X5911481Y-34802284D02*
G01*
X5921213Y-34808787D01*
X5927716Y-34818519D01*
X5930000Y-34830000D01*
X5930000Y-36630000D01*
X5927716Y-36641481D01*
X5921213Y-36651213D01*
X5911481Y-36657716D01*
X5900000Y-36660000D01*
X4100000Y-36660000D01*
X4088519Y-36657716D01*
X4078787Y-36651213D01*
X4072284Y-36641481D01*
X4070000Y-36630000D01*
X4070000Y-34830000D01*
X4072284Y-34818519D01*
X4078787Y-34808787D01*
X4088519Y-34802284D01*
X4100000Y-34800000D01*
X5900000Y-34800000D01*
X5911481Y-34802284D01*
G37*
G36*
X9811481Y-34772284D02*
G01*
X9821213Y-34778787D01*
X9827716Y-34788519D01*
X9830000Y-34800000D01*
X9830000Y-36200000D01*
X9827716Y-36211481D01*
X9821213Y-36221213D01*
X9811481Y-36227716D01*
X9800000Y-36230000D01*
X8200000Y-36230000D01*
X8188519Y-36227716D01*
X8178787Y-36221213D01*
X8172284Y-36211481D01*
X8170000Y-36200000D01*
X8170000Y-34800000D01*
X8172284Y-34788519D01*
X8178787Y-34778787D01*
X8188519Y-34772284D01*
X8200000Y-34770000D01*
X9800000Y-34770000D01*
X9811481Y-34772284D01*
G37*
G36*
X87269965Y-34110045D02*
G01*
X87438399Y-34179813D01*
X87589986Y-34281100D01*
X87718900Y-34410014D01*
X87820187Y-34561601D01*
X87889955Y-34730035D01*
X87925522Y-34908844D01*
X87925522Y-35091156D01*
X87889955Y-35269965D01*
X87820187Y-35438399D01*
X87718900Y-35589986D01*
X87589986Y-35718900D01*
X87438399Y-35820187D01*
X87269965Y-35889955D01*
X87091156Y-35925522D01*
X86908844Y-35925522D01*
X86730035Y-35889955D01*
X86561601Y-35820187D01*
X86410014Y-35718900D01*
X86281100Y-35589986D01*
X86179813Y-35438399D01*
X86110045Y-35269965D01*
X86074478Y-35091156D01*
X86074478Y-34908844D01*
X86110045Y-34730035D01*
X86179813Y-34561601D01*
X86281100Y-34410014D01*
X86410014Y-34281100D01*
X86561601Y-34179813D01*
X86730035Y-34110045D01*
X86908844Y-34074478D01*
X87091156Y-34074478D01*
X87269965Y-34110045D01*
G37*
G36*
X33311481Y-34272284D02*
G01*
X33321213Y-34278787D01*
X33327716Y-34288519D01*
X33330000Y-34300000D01*
X33330000Y-35700000D01*
X33327716Y-35711481D01*
X33321213Y-35721213D01*
X33311481Y-35727716D01*
X33300000Y-35730000D01*
X31700000Y-35730000D01*
X31688519Y-35727716D01*
X31678787Y-35721213D01*
X31672284Y-35711481D01*
X31670000Y-35700000D01*
X31670000Y-34300000D01*
X31672284Y-34288519D01*
X31678787Y-34278787D01*
X31688519Y-34272284D01*
X31700000Y-34270000D01*
X33300000Y-34270000D01*
X33311481Y-34272284D01*
G37*
G36*
X36311481Y-34272284D02*
G01*
X36321213Y-34278787D01*
X36327716Y-34288519D01*
X36330000Y-34300000D01*
X36330000Y-35700000D01*
X36327716Y-35711481D01*
X36321213Y-35721213D01*
X36311481Y-35727716D01*
X36300000Y-35730000D01*
X34700000Y-35730000D01*
X34688519Y-35727716D01*
X34678787Y-35721213D01*
X34672284Y-35711481D01*
X34670000Y-35700000D01*
X34670000Y-34300000D01*
X34672284Y-34288519D01*
X34678787Y-34278787D01*
X34688519Y-34272284D01*
X34700000Y-34270000D01*
X36300000Y-34270000D01*
X36311481Y-34272284D01*
G37*
G36*
X44291481Y-32452284D02*
G01*
X44301213Y-32458787D01*
X44307716Y-32468519D01*
X44310000Y-32480000D01*
X44310000Y-34280000D01*
X44307716Y-34291481D01*
X44301213Y-34301213D01*
X44291481Y-34307716D01*
X44280000Y-34310000D01*
X42480000Y-34310000D01*
X42468519Y-34307716D01*
X42458787Y-34301213D01*
X42452284Y-34291481D01*
X42450000Y-34280000D01*
X42450000Y-32480000D01*
X42452284Y-32468519D01*
X42458787Y-32458787D01*
X42468519Y-32452284D01*
X42480000Y-32450000D01*
X44280000Y-32450000D01*
X44291481Y-32452284D01*
G37*
G36*
X58889965Y-32490045D02*
G01*
X59058399Y-32559813D01*
X59209986Y-32661100D01*
X59338900Y-32790014D01*
X59440187Y-32941601D01*
X59509955Y-33110035D01*
X59545522Y-33288844D01*
X59545522Y-33471156D01*
X59509955Y-33649965D01*
X59440187Y-33818399D01*
X59338900Y-33969986D01*
X59209986Y-34098900D01*
X59058399Y-34200187D01*
X58889965Y-34269955D01*
X58711156Y-34305522D01*
X58528844Y-34305522D01*
X58350035Y-34269955D01*
X58181601Y-34200187D01*
X58030014Y-34098900D01*
X57901100Y-33969986D01*
X57799813Y-33818399D01*
X57730045Y-33649965D01*
X57694478Y-33471156D01*
X57694478Y-33288844D01*
X57730045Y-33110035D01*
X57799813Y-32941601D01*
X57901100Y-32790014D01*
X58030014Y-32661100D01*
X58181601Y-32559813D01*
X58350035Y-32490045D01*
X58528844Y-32454478D01*
X58711156Y-32454478D01*
X58889965Y-32490045D01*
G37*
G36*
X87911481Y-31532284D02*
G01*
X87921213Y-31538787D01*
X87927716Y-31548519D01*
X87930000Y-31560000D01*
X87930000Y-33360000D01*
X87927716Y-33371481D01*
X87921213Y-33381213D01*
X87911481Y-33387716D01*
X87900000Y-33390000D01*
X86100000Y-33390000D01*
X86088519Y-33387716D01*
X86078787Y-33381213D01*
X86072284Y-33371481D01*
X86070000Y-33360000D01*
X86070000Y-31560000D01*
X86072284Y-31548519D01*
X86078787Y-31538787D01*
X86088519Y-31532284D01*
X86100000Y-31530000D01*
X87900000Y-31530000D01*
X87911481Y-31532284D01*
G37*
G36*
X33311481Y-30772284D02*
G01*
X33321213Y-30778787D01*
X33327716Y-30788519D01*
X33330000Y-30800000D01*
X33330000Y-32200000D01*
X33327716Y-32211481D01*
X33321213Y-32221213D01*
X33311481Y-32227716D01*
X33300000Y-32230000D01*
X31700000Y-32230000D01*
X31688519Y-32227716D01*
X31678787Y-32221213D01*
X31672284Y-32211481D01*
X31670000Y-32200000D01*
X31670000Y-30800000D01*
X31672284Y-30788519D01*
X31678787Y-30778787D01*
X31688519Y-30772284D01*
X31700000Y-30770000D01*
X33300000Y-30770000D01*
X33311481Y-30772284D01*
G37*
G36*
X36311481Y-30772284D02*
G01*
X36321213Y-30778787D01*
X36327716Y-30788519D01*
X36330000Y-30800000D01*
X36330000Y-32200000D01*
X36327716Y-32211481D01*
X36321213Y-32221213D01*
X36311481Y-32227716D01*
X36300000Y-32230000D01*
X34700000Y-32230000D01*
X34688519Y-32227716D01*
X34678787Y-32221213D01*
X34672284Y-32211481D01*
X34670000Y-32200000D01*
X34670000Y-30800000D01*
X34672284Y-30788519D01*
X34678787Y-30778787D01*
X34688519Y-30772284D01*
X34700000Y-30770000D01*
X36300000Y-30770000D01*
X36311481Y-30772284D01*
G37*
G36*
X23760000Y-29435000D02*
G01*
X22240000Y-29435000D01*
X22240000Y-29115000D01*
X23760000Y-29115000D01*
X23760000Y-29435000D01*
G37*
G36*
X29760000Y-29435000D02*
G01*
X28240000Y-29435000D01*
X28240000Y-29115000D01*
X29760000Y-29115000D01*
X29760000Y-29435000D01*
G37*
G36*
X23760000Y-28785000D02*
G01*
X22240000Y-28785000D01*
X22240000Y-28465000D01*
X23760000Y-28465000D01*
X23760000Y-28785000D01*
G37*
G36*
X29760000Y-28785000D02*
G01*
X28240000Y-28785000D01*
X28240000Y-28465000D01*
X29760000Y-28465000D01*
X29760000Y-28785000D01*
G37*
G36*
X27611481Y-25422284D02*
G01*
X27621213Y-25428787D01*
X27627716Y-25438519D01*
X27630000Y-25450000D01*
X27630000Y-28550000D01*
X27627716Y-28561481D01*
X27621213Y-28571213D01*
X27611481Y-28577716D01*
X27600000Y-28580000D01*
X24400000Y-28580000D01*
X24388519Y-28577716D01*
X24378787Y-28571213D01*
X24372284Y-28561481D01*
X24370000Y-28550000D01*
X24370000Y-25450000D01*
X24372284Y-25438519D01*
X24378787Y-25428787D01*
X24388519Y-25422284D01*
X24400000Y-25420000D01*
X27600000Y-25420000D01*
X27611481Y-25422284D01*
G37*
G36*
X23760000Y-28135000D02*
G01*
X22240000Y-28135000D01*
X22240000Y-27815000D01*
X23760000Y-27815000D01*
X23760000Y-28135000D01*
G37*
G36*
X29760000Y-28134999D02*
G01*
X28240000Y-28134999D01*
X28240000Y-27814999D01*
X29760000Y-27814999D01*
X29760000Y-28134999D01*
G37*
G36*
X23760000Y-27485000D02*
G01*
X22240000Y-27485000D01*
X22240000Y-27165000D01*
X23760000Y-27165000D01*
X23760000Y-27485000D01*
G37*
G36*
X29760000Y-27485000D02*
G01*
X28240000Y-27485000D01*
X28240000Y-27165000D01*
X29760000Y-27165000D01*
X29760000Y-27485000D01*
G37*
G36*
X23760000Y-26835000D02*
G01*
X22240000Y-26835000D01*
X22240000Y-26515000D01*
X23760000Y-26515000D01*
X23760000Y-26835000D01*
G37*
G36*
X29760000Y-26834999D02*
G01*
X28240000Y-26834999D01*
X28240000Y-26514999D01*
X29760000Y-26514999D01*
X29760000Y-26834999D01*
G37*
G36*
X7061481Y-23372284D02*
G01*
X7071213Y-23378787D01*
X7077716Y-23388519D01*
X7080000Y-23400000D01*
X7080000Y-26600000D01*
X7077716Y-26611481D01*
X7071213Y-26621213D01*
X7061481Y-26627716D01*
X7050000Y-26630000D01*
X4550000Y-26630000D01*
X4538519Y-26627716D01*
X4528787Y-26621213D01*
X4522284Y-26611481D01*
X4520000Y-26600000D01*
X4520000Y-23400000D01*
X4522284Y-23388519D01*
X4528787Y-23378787D01*
X4538519Y-23372284D01*
X4550000Y-23370000D01*
X7050000Y-23370000D01*
X7061481Y-23372284D01*
G37*
G36*
X11461481Y-23372284D02*
G01*
X11471213Y-23378787D01*
X11477716Y-23388519D01*
X11480000Y-23400000D01*
X11480000Y-26600000D01*
X11477716Y-26611481D01*
X11471213Y-26621213D01*
X11461481Y-26627716D01*
X11450000Y-26630000D01*
X8950000Y-26630000D01*
X8938519Y-26627716D01*
X8928787Y-26621213D01*
X8922284Y-26611481D01*
X8920000Y-26600000D01*
X8920000Y-23400000D01*
X8922284Y-23388519D01*
X8928787Y-23378787D01*
X8938519Y-23372284D01*
X8950000Y-23370000D01*
X11450000Y-23370000D01*
X11461481Y-23372284D01*
G37*
G36*
X23760000Y-26185000D02*
G01*
X22240000Y-26185000D01*
X22240000Y-25865000D01*
X23760000Y-25865000D01*
X23760000Y-26185000D01*
G37*
G36*
X29760000Y-26185000D02*
G01*
X28240000Y-26185000D01*
X28240000Y-25865000D01*
X29760000Y-25865000D01*
X29760000Y-26185000D01*
G37*
G36*
X43311481Y-24272284D02*
G01*
X43321213Y-24278787D01*
X43327716Y-24288519D01*
X43330000Y-24300000D01*
X43330000Y-25700000D01*
X43327716Y-25711481D01*
X43321213Y-25721213D01*
X43311481Y-25727716D01*
X43300000Y-25730000D01*
X41700000Y-25730000D01*
X41688519Y-25727716D01*
X41678787Y-25721213D01*
X41672284Y-25711481D01*
X41670000Y-25700000D01*
X41670000Y-24300000D01*
X41672284Y-24288519D01*
X41678787Y-24278787D01*
X41688519Y-24272284D01*
X41700000Y-24270000D01*
X43300000Y-24270000D01*
X43311481Y-24272284D01*
G37*
G36*
X46311481Y-24272284D02*
G01*
X46321213Y-24278787D01*
X46327716Y-24288519D01*
X46330000Y-24300000D01*
X46330000Y-25700000D01*
X46327716Y-25711481D01*
X46321213Y-25721213D01*
X46311481Y-25727716D01*
X46300000Y-25730000D01*
X44700000Y-25730000D01*
X44688519Y-25727716D01*
X44678787Y-25721213D01*
X44672284Y-25711481D01*
X44670000Y-25700000D01*
X44670000Y-24300000D01*
X44672284Y-24288519D01*
X44678787Y-24278787D01*
X44688519Y-24272284D01*
X44700000Y-24270000D01*
X46300000Y-24270000D01*
X46311481Y-24272284D01*
G37*
G36*
X23760000Y-25535000D02*
G01*
X22240000Y-25535000D01*
X22240000Y-25215000D01*
X23760000Y-25215000D01*
X23760000Y-25535000D01*
G37*
G36*
X29760000Y-25535000D02*
G01*
X28240000Y-25535000D01*
X28240000Y-25215000D01*
X29760000Y-25215000D01*
X29760000Y-25535000D01*
G37*
G36*
X23760000Y-24885000D02*
G01*
X22240000Y-24885000D01*
X22240000Y-24565000D01*
X23760000Y-24565000D01*
X23760000Y-24885000D01*
G37*
G36*
X29760000Y-24884999D02*
G01*
X28240000Y-24884999D01*
X28240000Y-24564999D01*
X29760000Y-24564999D01*
X29760000Y-24884999D01*
G37*
G36*
X7061481Y-18372284D02*
G01*
X7071213Y-18378787D01*
X7077716Y-18388519D01*
X7080000Y-18400000D01*
X7080000Y-21600000D01*
X7077716Y-21611481D01*
X7071213Y-21621213D01*
X7061481Y-21627716D01*
X7050000Y-21630000D01*
X4550000Y-21630000D01*
X4538519Y-21627716D01*
X4528787Y-21621213D01*
X4522284Y-21611481D01*
X4520000Y-21600000D01*
X4520000Y-18400000D01*
X4522284Y-18388519D01*
X4528787Y-18378787D01*
X4538519Y-18372284D01*
X4550000Y-18370000D01*
X7050000Y-18370000D01*
X7061481Y-18372284D01*
G37*
G36*
X11461481Y-18372284D02*
G01*
X11471213Y-18378787D01*
X11477716Y-18388519D01*
X11480000Y-18400000D01*
X11480000Y-21600000D01*
X11477716Y-21611481D01*
X11471213Y-21621213D01*
X11461481Y-21627716D01*
X11450000Y-21630000D01*
X8950000Y-21630000D01*
X8938519Y-21627716D01*
X8928787Y-21621213D01*
X8922284Y-21611481D01*
X8920000Y-21600000D01*
X8920000Y-18400000D01*
X8922284Y-18388519D01*
X8928787Y-18378787D01*
X8938519Y-18372284D01*
X8950000Y-18370000D01*
X11450000Y-18370000D01*
X11461481Y-18372284D01*
G37*
G36*
X59811481Y-18772284D02*
G01*
X59821213Y-18778787D01*
X59827716Y-18788519D01*
X59830000Y-18800000D01*
X59830000Y-20200000D01*
X59827716Y-20211481D01*
X59821213Y-20221213D01*
X59811481Y-20227716D01*
X59800000Y-20230000D01*
X58200000Y-20230000D01*
X58188519Y-20227716D01*
X58178787Y-20221213D01*
X58172284Y-20211481D01*
X58170000Y-20200000D01*
X58170000Y-18800000D01*
X58172284Y-18788519D01*
X58178787Y-18778787D01*
X58188519Y-18772284D01*
X58200000Y-18770000D01*
X59800000Y-18770000D01*
X59811481Y-18772284D01*
G37*
G36*
X64811481Y-18772284D02*
G01*
X64821213Y-18778787D01*
X64827716Y-18788519D01*
X64830000Y-18800000D01*
X64830000Y-20200000D01*
X64827716Y-20211481D01*
X64821213Y-20221213D01*
X64811481Y-20227716D01*
X64800000Y-20230000D01*
X63200000Y-20230000D01*
X63188519Y-20227716D01*
X63178787Y-20221213D01*
X63172284Y-20211481D01*
X63170000Y-20200000D01*
X63170000Y-18800000D01*
X63172284Y-18788519D01*
X63178787Y-18778787D01*
X63188519Y-18772284D01*
X63200000Y-18770000D01*
X64800000Y-18770000D01*
X64811481Y-18772284D01*
G37*
G36*
X39911481Y-14672284D02*
G01*
X39921213Y-14678787D01*
X39927716Y-14688519D01*
X39930000Y-14700000D01*
X39930000Y-17300000D01*
X39927716Y-17311481D01*
X39921213Y-17321213D01*
X39911481Y-17327716D01*
X39900000Y-17330000D01*
X38100000Y-17330000D01*
X38088519Y-17327716D01*
X38078787Y-17321213D01*
X38072284Y-17311481D01*
X38070000Y-17300000D01*
X38070000Y-14700000D01*
X38072284Y-14688519D01*
X38078787Y-14678787D01*
X38088519Y-14672284D01*
X38100000Y-14670000D01*
X39900000Y-14670000D01*
X39911481Y-14672284D01*
G37*
G36*
X55811481Y-15772284D02*
G01*
X55821213Y-15778787D01*
X55827716Y-15788519D01*
X55830000Y-15800000D01*
X55830000Y-17200000D01*
X55827716Y-17211481D01*
X55821213Y-17221213D01*
X55811481Y-17227716D01*
X55800000Y-17230000D01*
X54200000Y-17230000D01*
X54188519Y-17227716D01*
X54178787Y-17221213D01*
X54172284Y-17211481D01*
X54170000Y-17200000D01*
X54170000Y-15800000D01*
X54172284Y-15788519D01*
X54178787Y-15778787D01*
X54188519Y-15772284D01*
X54200000Y-15770000D01*
X55800000Y-15770000D01*
X55811481Y-15772284D01*
G37*
G36*
X59811481Y-15772284D02*
G01*
X59821213Y-15778787D01*
X59827716Y-15788519D01*
X59830000Y-15800000D01*
X59830000Y-17200000D01*
X59827716Y-17211481D01*
X59821213Y-17221213D01*
X59811481Y-17227716D01*
X59800000Y-17230000D01*
X58200000Y-17230000D01*
X58188519Y-17227716D01*
X58178787Y-17221213D01*
X58172284Y-17211481D01*
X58170000Y-17200000D01*
X58170000Y-15800000D01*
X58172284Y-15788519D01*
X58178787Y-15778787D01*
X58188519Y-15772284D01*
X58200000Y-15770000D01*
X59800000Y-15770000D01*
X59811481Y-15772284D01*
G37*
G36*
X64811481Y-15772284D02*
G01*
X64821213Y-15778787D01*
X64827716Y-15788519D01*
X64830000Y-15800000D01*
X64830000Y-17200000D01*
X64827716Y-17211481D01*
X64821213Y-17221213D01*
X64811481Y-17227716D01*
X64800000Y-17230000D01*
X63200000Y-17230000D01*
X63188519Y-17227716D01*
X63178787Y-17221213D01*
X63172284Y-17211481D01*
X63170000Y-17200000D01*
X63170000Y-15800000D01*
X63172284Y-15788519D01*
X63178787Y-15778787D01*
X63188519Y-15772284D01*
X63200000Y-15770000D01*
X64800000Y-15770000D01*
X64811481Y-15772284D01*
G37*
G36*
X8411481Y-13672284D02*
G01*
X8421213Y-13678787D01*
X8427716Y-13688519D01*
X8430000Y-13700000D01*
X8430000Y-16300000D01*
X8427716Y-16311481D01*
X8421213Y-16321213D01*
X8411481Y-16327716D01*
X8400000Y-16330000D01*
X6600000Y-16330000D01*
X6588519Y-16327716D01*
X6578787Y-16321213D01*
X6572284Y-16311481D01*
X6570000Y-16300000D01*
X6570000Y-13700000D01*
X6572284Y-13688519D01*
X6578787Y-13678787D01*
X6588519Y-13672284D01*
X6600000Y-13670000D01*
X8400000Y-13670000D01*
X8411481Y-13672284D01*
G37*
G36*
X11411481Y-13672284D02*
G01*
X11421213Y-13678787D01*
X11427716Y-13688519D01*
X11430000Y-13700000D01*
X11430000Y-16300000D01*
X11427716Y-16311481D01*
X11421213Y-16321213D01*
X11411481Y-16327716D01*
X11400000Y-16330000D01*
X9600000Y-16330000D01*
X9588519Y-16327716D01*
X9578787Y-16321213D01*
X9572284Y-16311481D01*
X9570000Y-16300000D01*
X9570000Y-13700000D01*
X9572284Y-13688519D01*
X9578787Y-13678787D01*
X9588519Y-13672284D01*
X9600000Y-13670000D01*
X11400000Y-13670000D01*
X11411481Y-13672284D01*
G37*
G36*
X39911481Y-11672284D02*
G01*
X39921213Y-11678787D01*
X39927716Y-11688519D01*
X39930000Y-11700000D01*
X39930000Y-14300000D01*
X39927716Y-14311481D01*
X39921213Y-14321213D01*
X39911481Y-14327716D01*
X39900000Y-14330000D01*
X38100000Y-14330000D01*
X38088519Y-14327716D01*
X38078787Y-14321213D01*
X38072284Y-14311481D01*
X38070000Y-14300000D01*
X38070000Y-11700000D01*
X38072284Y-11688519D01*
X38078787Y-11678787D01*
X38088519Y-11672284D01*
X38100000Y-11670000D01*
X39900000Y-11670000D01*
X39911481Y-11672284D01*
G37*
G36*
X17357015Y-10705163D02*
G01*
X17588234Y-10767118D01*
X17809388Y-10858723D01*
X18016694Y-10978411D01*
X18206603Y-11124133D01*
X18375867Y-11293397D01*
X18521589Y-11483306D01*
X18641277Y-11690612D01*
X18732882Y-11911766D01*
X18794837Y-12142985D01*
X18826082Y-12380312D01*
X18826082Y-12619688D01*
X18794837Y-12857015D01*
X18732882Y-13088234D01*
X18641277Y-13309388D01*
X18521589Y-13516694D01*
X18375867Y-13706603D01*
X18206603Y-13875867D01*
X18016694Y-14021589D01*
X17809388Y-14141277D01*
X17588234Y-14232882D01*
X17357015Y-14294837D01*
X17119688Y-14326082D01*
X16880312Y-14326082D01*
X16642985Y-14294837D01*
X16411766Y-14232882D01*
X16190612Y-14141277D01*
X15983306Y-14021589D01*
X15793397Y-13875867D01*
X15624133Y-13706603D01*
X15478411Y-13516694D01*
X15358723Y-13309388D01*
X15267118Y-13088234D01*
X15205163Y-12857015D01*
X15173918Y-12619688D01*
X15173918Y-12380312D01*
X15205163Y-12142985D01*
X15267118Y-11911766D01*
X15358723Y-11690612D01*
X15478411Y-11483306D01*
X15624133Y-11293397D01*
X15793397Y-11124133D01*
X15983306Y-10978411D01*
X16190612Y-10858723D01*
X16411766Y-10767118D01*
X16642985Y-10705163D01*
X16880312Y-10673918D01*
X17119688Y-10673918D01*
X17357015Y-10705163D01*
G37*
G36*
X75357015Y-10705163D02*
G01*
X75588234Y-10767118D01*
X75809388Y-10858723D01*
X76016694Y-10978411D01*
X76206603Y-11124133D01*
X76375867Y-11293397D01*
X76521589Y-11483306D01*
X76641277Y-11690612D01*
X76732882Y-11911766D01*
X76794837Y-12142985D01*
X76826082Y-12380312D01*
X76826082Y-12619688D01*
X76794837Y-12857015D01*
X76732882Y-13088234D01*
X76641277Y-13309388D01*
X76521589Y-13516694D01*
X76375867Y-13706603D01*
X76206603Y-13875867D01*
X76016694Y-14021589D01*
X75809388Y-14141277D01*
X75588234Y-14232882D01*
X75357015Y-14294837D01*
X75119688Y-14326082D01*
X74880312Y-14326082D01*
X74642985Y-14294837D01*
X74411766Y-14232882D01*
X74190612Y-14141277D01*
X73983306Y-14021589D01*
X73793397Y-13875867D01*
X73624133Y-13706603D01*
X73478411Y-13516694D01*
X73358723Y-13309388D01*
X73267118Y-13088234D01*
X73205163Y-12857015D01*
X73173918Y-12619688D01*
X73173918Y-12380312D01*
X73205163Y-12142985D01*
X73267118Y-11911766D01*
X73358723Y-11690612D01*
X73478411Y-11483306D01*
X73624133Y-11293397D01*
X73793397Y-11124133D01*
X73983306Y-10978411D01*
X74190612Y-10858723D01*
X74411766Y-10767118D01*
X74642985Y-10705163D01*
X74880312Y-10673918D01*
X75119688Y-10673918D01*
X75357015Y-10705163D01*
G37*
G36*
X55811481Y-12772284D02*
G01*
X55821213Y-12778787D01*
X55827716Y-12788519D01*
X55830000Y-12800000D01*
X55830000Y-14200000D01*
X55827716Y-14211481D01*
X55821213Y-14221213D01*
X55811481Y-14227716D01*
X55800000Y-14230000D01*
X54200000Y-14230000D01*
X54188519Y-14227716D01*
X54178787Y-14221213D01*
X54172284Y-14211481D01*
X54170000Y-14200000D01*
X54170000Y-12800000D01*
X54172284Y-12788519D01*
X54178787Y-12778787D01*
X54188519Y-12772284D01*
X54200000Y-12770000D01*
X55800000Y-12770000D01*
X55811481Y-12772284D01*
G37*
G36*
X63811481Y-11772284D02*
G01*
X63821213Y-11778787D01*
X63827716Y-11788519D01*
X63830000Y-11800000D01*
X63830000Y-13200000D01*
X63827716Y-13211481D01*
X63821213Y-13221213D01*
X63811481Y-13227716D01*
X63800000Y-13230000D01*
X62200000Y-13230000D01*
X62188519Y-13227716D01*
X62178787Y-13221213D01*
X62172284Y-13211481D01*
X62170000Y-13200000D01*
X62170000Y-11800000D01*
X62172284Y-11788519D01*
X62178787Y-11778787D01*
X62188519Y-11772284D01*
X62200000Y-11770000D01*
X63800000Y-11770000D01*
X63811481Y-11772284D01*
G37*
G36*
X53811481Y-11472284D02*
G01*
X53821213Y-11478787D01*
X53827716Y-11488519D01*
X53830000Y-11500000D01*
X53830000Y-12300000D01*
X53827716Y-12311481D01*
X53821213Y-12321213D01*
X53811481Y-12327716D01*
X53800000Y-12330000D01*
X52400000Y-12330000D01*
X52388519Y-12327716D01*
X52378787Y-12321213D01*
X52372284Y-12311481D01*
X52370000Y-12300000D01*
X52370000Y-11500000D01*
X52372284Y-11488519D01*
X52378787Y-11478787D01*
X52388519Y-11472284D01*
X52400000Y-11470000D01*
X53800000Y-11470000D01*
X53811481Y-11472284D01*
G37*
G36*
X57611481Y-11472284D02*
G01*
X57621213Y-11478787D01*
X57627716Y-11488519D01*
X57630000Y-11500000D01*
X57630000Y-12300000D01*
X57627716Y-12311481D01*
X57621213Y-12321213D01*
X57611481Y-12327716D01*
X57600000Y-12330000D01*
X56200000Y-12330000D01*
X56188519Y-12327716D01*
X56178787Y-12321213D01*
X56172284Y-12311481D01*
X56170000Y-12300000D01*
X56170000Y-11500000D01*
X56172284Y-11488519D01*
X56178787Y-11478787D01*
X56188519Y-11472284D01*
X56200000Y-11470000D01*
X57600000Y-11470000D01*
X57611481Y-11472284D01*
G37*
G36*
X45911481Y-7722284D02*
G01*
X45921213Y-7728787D01*
X45927716Y-7738519D01*
X45930000Y-7750000D01*
X45930000Y-12250000D01*
X45927716Y-12261481D01*
X45921213Y-12271213D01*
X45911481Y-12277716D01*
X45900000Y-12280000D01*
X43300000Y-12280000D01*
X43288519Y-12277716D01*
X43278787Y-12271213D01*
X43272284Y-12261481D01*
X43270000Y-12250000D01*
X43270000Y-7750000D01*
X43272284Y-7738519D01*
X43278787Y-7728787D01*
X43288519Y-7722284D01*
X43300000Y-7720000D01*
X45900000Y-7720000D01*
X45911481Y-7722284D01*
G37*
G36*
X50711481Y-7722284D02*
G01*
X50721213Y-7728787D01*
X50727716Y-7738519D01*
X50730000Y-7750000D01*
X50730000Y-12250000D01*
X50727716Y-12261481D01*
X50721213Y-12271213D01*
X50711481Y-12277716D01*
X50700000Y-12280000D01*
X48100000Y-12280000D01*
X48088519Y-12277716D01*
X48078787Y-12271213D01*
X48072284Y-12261481D01*
X48070000Y-12250000D01*
X48070000Y-7750000D01*
X48072284Y-7738519D01*
X48078787Y-7728787D01*
X48088519Y-7722284D01*
X48100000Y-7720000D01*
X50700000Y-7720000D01*
X50711481Y-7722284D01*
G37*
G36*
X39911481Y-8172284D02*
G01*
X39921213Y-8178787D01*
X39927716Y-8188519D01*
X39930000Y-8200000D01*
X39930000Y-10800000D01*
X39927716Y-10811481D01*
X39921213Y-10821213D01*
X39911481Y-10827716D01*
X39900000Y-10830000D01*
X38100000Y-10830000D01*
X38088519Y-10827716D01*
X38078787Y-10821213D01*
X38072284Y-10811481D01*
X38070000Y-10800000D01*
X38070000Y-8200000D01*
X38072284Y-8188519D01*
X38078787Y-8178787D01*
X38088519Y-8172284D01*
X38100000Y-8170000D01*
X39900000Y-8170000D01*
X39911481Y-8172284D01*
G37*
G36*
X53811481Y-9572284D02*
G01*
X53821213Y-9578787D01*
X53827716Y-9588519D01*
X53830000Y-9600000D01*
X53830000Y-10400000D01*
X53827716Y-10411481D01*
X53821213Y-10421213D01*
X53811481Y-10427716D01*
X53800000Y-10430000D01*
X52400000Y-10430000D01*
X52388519Y-10427716D01*
X52378787Y-10421213D01*
X52372284Y-10411481D01*
X52370000Y-10400000D01*
X52370000Y-9600000D01*
X52372284Y-9588519D01*
X52378787Y-9578787D01*
X52388519Y-9572284D01*
X52400000Y-9570000D01*
X53800000Y-9570000D01*
X53811481Y-9572284D01*
G37*
G36*
X57611481Y-9572284D02*
G01*
X57621213Y-9578787D01*
X57627716Y-9588519D01*
X57630000Y-9600000D01*
X57630000Y-10400000D01*
X57627716Y-10411481D01*
X57621213Y-10421213D01*
X57611481Y-10427716D01*
X57600000Y-10430000D01*
X56200000Y-10430000D01*
X56188519Y-10427716D01*
X56178787Y-10421213D01*
X56172284Y-10411481D01*
X56170000Y-10400000D01*
X56170000Y-9600000D01*
X56172284Y-9588519D01*
X56178787Y-9578787D01*
X56188519Y-9572284D01*
X56200000Y-9570000D01*
X57600000Y-9570000D01*
X57611481Y-9572284D01*
G37*
G36*
X63811481Y-8772284D02*
G01*
X63821213Y-8778787D01*
X63827716Y-8788519D01*
X63830000Y-8800000D01*
X63830000Y-10200000D01*
X63827716Y-10211481D01*
X63821213Y-10221213D01*
X63811481Y-10227716D01*
X63800000Y-10230000D01*
X62200000Y-10230000D01*
X62188519Y-10227716D01*
X62178787Y-10221213D01*
X62172284Y-10211481D01*
X62170000Y-10200000D01*
X62170000Y-8800000D01*
X62172284Y-8788519D01*
X62178787Y-8778787D01*
X62188519Y-8772284D01*
X62200000Y-8770000D01*
X63800000Y-8770000D01*
X63811481Y-8772284D01*
G37*
G36*
X67811481Y-8772284D02*
G01*
X67821213Y-8778787D01*
X67827716Y-8788519D01*
X67830000Y-8800000D01*
X67830000Y-10200000D01*
X67827716Y-10211481D01*
X67821213Y-10221213D01*
X67811481Y-10227716D01*
X67800000Y-10230000D01*
X66200000Y-10230000D01*
X66188519Y-10227716D01*
X66178787Y-10221213D01*
X66172284Y-10211481D01*
X66170000Y-10200000D01*
X66170000Y-8800000D01*
X66172284Y-8788519D01*
X66178787Y-8778787D01*
X66188519Y-8772284D01*
X66200000Y-8770000D01*
X67800000Y-8770000D01*
X67811481Y-8772284D01*
G37*
G36*
X25311481Y-8272284D02*
G01*
X25321213Y-8278787D01*
X25327716Y-8288519D01*
X25330000Y-8300000D01*
X25330000Y-9700000D01*
X25327716Y-9711481D01*
X25321213Y-9721213D01*
X25311481Y-9727716D01*
X25300000Y-9730000D01*
X23700000Y-9730000D01*
X23688519Y-9727716D01*
X23678787Y-9721213D01*
X23672284Y-9711481D01*
X23670000Y-9700000D01*
X23670000Y-8300000D01*
X23672284Y-8288519D01*
X23678787Y-8278787D01*
X23688519Y-8272284D01*
X23700000Y-8270000D01*
X25300000Y-8270000D01*
X25311481Y-8272284D01*
G37*
G36*
X28311481Y-8272284D02*
G01*
X28321213Y-8278787D01*
X28327716Y-8288519D01*
X28330000Y-8300000D01*
X28330000Y-9700000D01*
X28327716Y-9711481D01*
X28321213Y-9721213D01*
X28311481Y-9727716D01*
X28300000Y-9730000D01*
X26700000Y-9730000D01*
X26688519Y-9727716D01*
X26678787Y-9721213D01*
X26672284Y-9711481D01*
X26670000Y-9700000D01*
X26670000Y-8300000D01*
X26672284Y-8288519D01*
X26678787Y-8278787D01*
X26688519Y-8272284D01*
X26700000Y-8270000D01*
X28300000Y-8270000D01*
X28311481Y-8272284D01*
G37*
G36*
X52911481Y-5172284D02*
G01*
X52921213Y-5178787D01*
X52927716Y-5188519D01*
X52930000Y-5200000D01*
X52930000Y-7640712D01*
X52959288Y-7670000D01*
X53800000Y-7670000D01*
X53811481Y-7672284D01*
X53821213Y-7678787D01*
X53827716Y-7688519D01*
X53830000Y-7700000D01*
X53830000Y-8500000D01*
X53827716Y-8511481D01*
X53821213Y-8521213D01*
X53811481Y-8527716D01*
X53800000Y-8530000D01*
X52400000Y-8530000D01*
X52388519Y-8527716D01*
X52378787Y-8521213D01*
X52372284Y-8511481D01*
X52370000Y-8500000D01*
X52370000Y-7859288D01*
X52340712Y-7830000D01*
X51100000Y-7830000D01*
X51088519Y-7827716D01*
X51078787Y-7821213D01*
X51072284Y-7811481D01*
X51070000Y-7800000D01*
X51070000Y-5200000D01*
X51072284Y-5188519D01*
X51078787Y-5178787D01*
X51088519Y-5172284D01*
X51100000Y-5170000D01*
X52900000Y-5170000D01*
X52911481Y-5172284D01*
G37*
G36*
X57611481Y-7672284D02*
G01*
X57621213Y-7678787D01*
X57627716Y-7688519D01*
X57630000Y-7700000D01*
X57630000Y-8500000D01*
X57627716Y-8511481D01*
X57621213Y-8521213D01*
X57611481Y-8527716D01*
X57600000Y-8530000D01*
X56200000Y-8530000D01*
X56188519Y-8527716D01*
X56178787Y-8521213D01*
X56172284Y-8511481D01*
X56170000Y-8500000D01*
X56170000Y-7700000D01*
X56172284Y-7688519D01*
X56178787Y-7678787D01*
X56188519Y-7672284D01*
X56200000Y-7670000D01*
X57600000Y-7670000D01*
X57611481Y-7672284D01*
G37*
G36*
X63811481Y-6772284D02*
G01*
X63821213Y-6778787D01*
X63827716Y-6788519D01*
X63830000Y-6800000D01*
X63830000Y-8200000D01*
X63827716Y-8211481D01*
X63821213Y-8221213D01*
X63811481Y-8227716D01*
X63800000Y-8230000D01*
X62200000Y-8230000D01*
X62188519Y-8227716D01*
X62178787Y-8221213D01*
X62172284Y-8211481D01*
X62170000Y-8200000D01*
X62170000Y-6800000D01*
X62172284Y-6788519D01*
X62178787Y-6778787D01*
X62188519Y-6772284D01*
X62200000Y-6770000D01*
X63800000Y-6770000D01*
X63811481Y-6772284D01*
G37*
G36*
X39911481Y-5172284D02*
G01*
X39921213Y-5178787D01*
X39927716Y-5188519D01*
X39930000Y-5200000D01*
X39930000Y-7800000D01*
X39927716Y-7811481D01*
X39921213Y-7821213D01*
X39911481Y-7827716D01*
X39900000Y-7830000D01*
X38100000Y-7830000D01*
X38088519Y-7827716D01*
X38078787Y-7821213D01*
X38072284Y-7811481D01*
X38070000Y-7800000D01*
X38070000Y-5200000D01*
X38072284Y-5188519D01*
X38078787Y-5178787D01*
X38088519Y-5172284D01*
X38100000Y-5170000D01*
X39900000Y-5170000D01*
X39911481Y-5172284D01*
G37*
G36*
X48811481Y-5772284D02*
G01*
X48821213Y-5778787D01*
X48827716Y-5788519D01*
X48830000Y-5800000D01*
X48830000Y-7200000D01*
X48827716Y-7211481D01*
X48821213Y-7221213D01*
X48811481Y-7227716D01*
X48800000Y-7230000D01*
X47200000Y-7230000D01*
X47188519Y-7227716D01*
X47178787Y-7221213D01*
X47172284Y-7211481D01*
X47170000Y-7200000D01*
X47170000Y-5800000D01*
X47172284Y-5788519D01*
X47178787Y-5778787D01*
X47188519Y-5772284D01*
X47200000Y-5770000D01*
X48800000Y-5770000D01*
X48811481Y-5772284D01*
G37*
G36*
X67811481Y-5772284D02*
G01*
X67821213Y-5778787D01*
X67827716Y-5788519D01*
X67830000Y-5800000D01*
X67830000Y-7200000D01*
X67827716Y-7211481D01*
X67821213Y-7221213D01*
X67811481Y-7227716D01*
X67800000Y-7230000D01*
X66200000Y-7230000D01*
X66188519Y-7227716D01*
X66178787Y-7221213D01*
X66172284Y-7211481D01*
X66170000Y-7200000D01*
X66170000Y-5800000D01*
X66172284Y-5788519D01*
X66178787Y-5778787D01*
X66188519Y-5772284D01*
X66200000Y-5770000D01*
X67800000Y-5770000D01*
X67811481Y-5772284D01*
G37*
G36*
X25641481Y-4072284D02*
G01*
X25651213Y-4078787D01*
X25657716Y-4088519D01*
X25660000Y-4100000D01*
X25660000Y-5900000D01*
X25657716Y-5911481D01*
X25651213Y-5921213D01*
X25641481Y-5927716D01*
X25630000Y-5930000D01*
X23830000Y-5930000D01*
X23818519Y-5927716D01*
X23808787Y-5921213D01*
X23802284Y-5911481D01*
X23800000Y-5900000D01*
X23800000Y-4100000D01*
X23802284Y-4088519D01*
X23808787Y-4078787D01*
X23818519Y-4072284D01*
X23830000Y-4070000D01*
X25630000Y-4070000D01*
X25641481Y-4072284D01*
G37*
G36*
X27539965Y-4110045D02*
G01*
X27708399Y-4179813D01*
X27859986Y-4281100D01*
X27988900Y-4410014D01*
X28090187Y-4561601D01*
X28159955Y-4730035D01*
X28195522Y-4908844D01*
X28195522Y-5091156D01*
X28159955Y-5269965D01*
X28090187Y-5438399D01*
X27988900Y-5589986D01*
X27859986Y-5718900D01*
X27708399Y-5820187D01*
X27539965Y-5889955D01*
X27361156Y-5925522D01*
X27178844Y-5925522D01*
X27000035Y-5889955D01*
X26831601Y-5820187D01*
X26680014Y-5718900D01*
X26551100Y-5589986D01*
X26449813Y-5438399D01*
X26380045Y-5269965D01*
X26344478Y-5091156D01*
X26344478Y-4908844D01*
X26380045Y-4730035D01*
X26449813Y-4561601D01*
X26551100Y-4410014D01*
X26680014Y-4281100D01*
X26831601Y-4179813D01*
X27000035Y-4110045D01*
X27178844Y-4074478D01*
X27361156Y-4074478D01*
X27539965Y-4110045D01*
G37*
G36*
X63811481Y-3772284D02*
G01*
X63821213Y-3778787D01*
X63827716Y-3788519D01*
X63830000Y-3800000D01*
X63830000Y-5200000D01*
X63827716Y-5211481D01*
X63821213Y-5221213D01*
X63811481Y-5227716D01*
X63800000Y-5230000D01*
X62200000Y-5230000D01*
X62188519Y-5227716D01*
X62178787Y-5221213D01*
X62172284Y-5211481D01*
X62170000Y-5200000D01*
X62170000Y-3800000D01*
X62172284Y-3788519D01*
X62178787Y-3778787D01*
X62188519Y-3772284D01*
X62200000Y-3770000D01*
X63800000Y-3770000D01*
X63811481Y-3772284D01*
G37*
G36*
X52911481Y-2172284D02*
G01*
X52921213Y-2178787D01*
X52927716Y-2188519D01*
X52930000Y-2200000D01*
X52930000Y-4800000D01*
X52927716Y-4811481D01*
X52921213Y-4821213D01*
X52911481Y-4827716D01*
X52900000Y-4830000D01*
X51100000Y-4830000D01*
X51088519Y-4827716D01*
X51078787Y-4821213D01*
X51072284Y-4811481D01*
X51070000Y-4800000D01*
X51070000Y-2200000D01*
X51072284Y-2188519D01*
X51078787Y-2178787D01*
X51088519Y-2172284D01*
X51100000Y-2170000D01*
X52900000Y-2170000D01*
X52911481Y-2172284D01*
G37*
G36*
X48811481Y-2772284D02*
G01*
X48821213Y-2778787D01*
X48827716Y-2788519D01*
X48830000Y-2800000D01*
X48830000Y-4200000D01*
X48827716Y-4211481D01*
X48821213Y-4221213D01*
X48811481Y-4227716D01*
X48800000Y-4230000D01*
X47200000Y-4230000D01*
X47188519Y-4227716D01*
X47178787Y-4221213D01*
X47172284Y-4211481D01*
X47170000Y-4200000D01*
X47170000Y-2800000D01*
X47172284Y-2788519D01*
X47178787Y-2778787D01*
X47188519Y-2772284D01*
X47200000Y-2770000D01*
X48800000Y-2770000D01*
X48811481Y-2772284D01*
G37*
%LPD*%
M02*
