M48
; DRILL file KiCad 10.0.5 date 2026-08-06T22:40:01
; FORMAT={-:-/ absolute / metric / decimal}
; #@! TF.CreationDate,2026-08-06T22:40:01+08:00
; #@! TF.GenerationSoftware,Kicad,Pcbnew,10.0.5
; #@! TF.FileFunction,Plated,1,4,PTH
FMAT,2
METRIC
; #@! TA.AperFunction,Plated,PTH,ViaDrill
T1C0.300
; #@! TA.AperFunction,Plated,PTH,ViaDrill
T2C0.450
; #@! TA.AperFunction,Plated,PTH,ComponentDrill
T3C1.000
; #@! TA.AperFunction,Plated,PTH,ComponentDrill
T4C1.200
%
G90
G05
T1
X5.8Y-20.0
X5.8Y-25.0
X5.8Y-50.0
X7.5Y-15.0
X10.2Y-20.0
X10.2Y-25.0
X10.2Y-50.0
X10.5Y-15.0
X16.5Y-42.0
X19.5Y-42.0
X21.0Y-28.625
X21.5Y-24.725
X21.5Y-26.675
X21.5Y-46.725
X22.0Y-30.0
X26.0Y-27.0
X26.0Y-49.0
X27.5Y-9.0
X31.0Y-25.375
X31.0Y-28.625
X31.0Y-48.025
X31.0Y-50.625
X31.7Y-27.975
X31.7Y-49.975
X32.0Y-48.675
X34.0Y-23.0
X34.0Y-26.025
X35.5Y-31.5
X35.5Y-38.0
X36.0Y-26.675
X36.0Y-47.375
X36.5Y-49.3
X36.5Y-52.5
X39.0Y-9.5
X39.0Y-16.0
X45.5Y-25.0
X48.0Y-3.5
X48.0Y-6.5
X48.5Y-59.0
X52.0Y-3.5
X52.0Y-6.5
X53.1Y-8.1
X53.1Y-11.9
X53.5Y-59.0
X59.0Y-10.0
X59.0Y-16.5
X59.0Y-19.5
X63.0Y-4.5
X63.0Y-12.5
X64.0Y-19.5
X67.0Y-6.5
X76.0Y-54.27
T2
X43.0Y-10.0
T3
X5.0Y-35.73
X5.0Y-38.27
X18.73Y-69.0
X21.27Y-69.0
X24.73Y-5.0
X27.27Y-5.0
X32.73Y-69.0
X35.27Y-69.0
X43.38Y-33.38
X43.38Y-35.92
X43.38Y-38.46
X43.38Y-41.0
X43.38Y-43.54
X43.38Y-46.08
X43.38Y-48.62
X54.5Y-64.0
X58.62Y-33.38
X58.62Y-35.92
X58.62Y-38.46
X58.62Y-41.0
X58.62Y-43.54
X58.62Y-46.08
X58.62Y-48.62
X59.5Y-64.0
X80.0Y-65.0
X86.0Y-65.0
X87.0Y-32.46
X87.0Y-35.0
X87.0Y-37.54
X87.0Y-49.19
X87.0Y-51.73
X87.0Y-54.27
X87.0Y-56.81
T4
X44.73Y-69.0
X47.27Y-69.0
M30
