%TF.GenerationSoftware,KiCad,Pcbnew,10.0.5*%
%TF.CreationDate,2026-08-06T22:40:01+08:00*%
%TF.ProjectId,BrufikMobileBase,42727566-696b-44d6-9f62-696c65426173,0.1*%
%TF.SameCoordinates,Original*%
%TF.FileFunction,Copper,L3,Inr*%
%TF.FilePolarity,Positive*%
%FSLAX46Y46*%
G04 Gerber Fmt 4.6, Leading zero omitted, Abs format (unit mm)*
G04 Created by KiCad (PCBNEW 10.0.5) date 2026-08-06 22:40:01*
%MOMM*%
%LPD*%
G01*
G04 APERTURE LIST*
%TA.AperFunction,ComponentPad*%
%ADD10R,2.400000X2.400000*%
%TD*%
%TA.AperFunction,ComponentPad*%
%ADD11R,2.200000X2.200000*%
%TD*%
%TA.AperFunction,ComponentPad*%
%ADD12C,2.200000*%
%TD*%
%TA.AperFunction,ComponentPad*%
%ADD13R,1.800000X1.800000*%
%TD*%
%TA.AperFunction,ComponentPad*%
%ADD14C,1.800000*%
%TD*%
%TA.AperFunction,ComponentPad*%
%ADD15R,2.600000X2.600000*%
%TD*%
%TA.AperFunction,ViaPad*%
%ADD16C,0.650000*%
%TD*%
%TA.AperFunction,ViaPad*%
%ADD17C,0.750000*%
%TD*%
%TA.AperFunction,ViaPad*%
%ADD18C,1.000000*%
%TD*%
%TA.AperFunction,Conductor*%
%ADD19C,0.220000*%
%TD*%
G04 APERTURE END LIST*
D10*
%TO.N,VBAT*%
%TO.C,C7*%
X54500000Y-64000000D03*
%TO.N,GND*%
X59500000Y-64000000D03*
%TD*%
D11*
%TO.N,BAT_RAW*%
%TO.C,J1*%
X44730000Y-69000000D03*
D12*
%TO.N,GND*%
X47270000Y-69000000D03*
%TD*%
D13*
%TO.N,M2_B*%
%TO.C,J4*%
X5000000Y-35730000D03*
D14*
%TO.N,M2_A*%
X5000000Y-38270000D03*
%TD*%
D13*
%TO.N,M1_IN2*%
%TO.C,U4*%
X43380000Y-33380000D03*
D14*
%TO.N,M1_IN1*%
X43380000Y-35920000D03*
%TO.N,M2_IN1*%
X43380000Y-38460000D03*
%TO.N,M2_IN2*%
X43380000Y-41000000D03*
%TO.N,M3_IN1*%
X43380000Y-43540000D03*
%TO.N,M3_IN2*%
X43380000Y-46080000D03*
%TO.N,UART_TX*%
X43380000Y-48620000D03*
%TO.N,+5V*%
X58620000Y-33380000D03*
%TO.N,GND*%
X58620000Y-35920000D03*
%TO.N,+3V3*%
X58620000Y-38460000D03*
%TO.N,TOUCH*%
X58620000Y-41000000D03*
%TO.N,N/C*%
X58620000Y-43540000D03*
X58620000Y-46080000D03*
%TO.N,UART_RX*%
X58620000Y-48620000D03*
%TD*%
D13*
%TO.N,M1_B*%
%TO.C,J3*%
X24730000Y-5000000D03*
D14*
%TO.N,M1_A*%
X27270000Y-5000000D03*
%TD*%
D15*
%TO.N,+5V*%
%TO.C,C8*%
X80000000Y-65000000D03*
%TO.N,GND*%
X86000000Y-65000000D03*
%TD*%
D13*
%TO.N,+3V3*%
%TO.C,J7*%
X87000000Y-32460000D03*
D14*
%TO.N,GND*%
X87000000Y-35000000D03*
%TO.N,TOUCH*%
X87000000Y-37540000D03*
%TD*%
D13*
%TO.N,BAT_FUSED*%
%TO.C,J2*%
X32729999Y-69000000D03*
D14*
%TO.N,VBAT*%
X35270000Y-69000000D03*
%TD*%
D13*
%TO.N,+5V*%
%TO.C,J6*%
X87000000Y-49190000D03*
D14*
%TO.N,GND*%
X87000000Y-51730000D03*
%TO.N,UART_TX*%
X87000000Y-54270000D03*
%TO.N,UART_RX*%
X87000000Y-56810000D03*
%TD*%
D13*
%TO.N,M3_B*%
%TO.C,J5*%
X18730000Y-69000000D03*
D14*
%TO.N,M3_A*%
X21270000Y-69000000D03*
%TD*%
D16*
%TO.N,GND*%
X64000000Y-19500000D03*
X5800000Y-25000000D03*
X52000000Y-3500000D03*
D17*
X26000000Y-49000000D03*
D16*
X39000000Y-16000000D03*
X31700000Y-27974999D03*
X10500000Y-15000000D03*
X63000000Y-12500000D03*
X39000000Y-9500000D03*
X53100000Y-11900000D03*
X53500000Y-59000000D03*
X35500000Y-31500000D03*
D17*
X26000000Y-27000000D03*
D16*
X5800000Y-50000000D03*
X31700000Y-49975000D03*
X48000000Y-3500000D03*
X5800000Y-20000000D03*
X19500000Y-42000000D03*
X36500000Y-49300000D03*
%TO.N,VBAT*%
X48000000Y-6500000D03*
X31000000Y-28625000D03*
X53100000Y-8100000D03*
X48500000Y-59000000D03*
X7500000Y-15000000D03*
X59000000Y-16500000D03*
X31000000Y-50625000D03*
X36500000Y-52500000D03*
X35500000Y-38000000D03*
X52000000Y-6500000D03*
X16500000Y-42000000D03*
%TO.N,+5V*%
X67000000Y-6500000D03*
X63000000Y-4500000D03*
D18*
X43000000Y-10000000D03*
D16*
%TO.N,BUCK_EN*%
X59000000Y-10000000D03*
X59000000Y-19500000D03*
%TO.N,M1_A*%
X27500000Y-9000000D03*
X34000000Y-23000000D03*
%TO.N,M1_IN1*%
X34000000Y-26025000D03*
%TO.N,M1_IN2*%
X36000000Y-26675000D03*
%TO.N,M2_IN1*%
X21000000Y-28625000D03*
%TO.N,M2_IN2*%
X22000000Y-30000000D03*
%TO.N,M3_IN1*%
X31000000Y-48025000D03*
%TO.N,M3_IN2*%
X32000000Y-48675000D03*
%TO.N,UART_TX*%
X76000000Y-54270000D03*
%TO.N,SLEEP*%
X45500000Y-25000000D03*
X36000000Y-47375000D03*
X31000000Y-25375000D03*
%TO.N,U2_SENSE_A*%
X10200000Y-20000000D03*
X21500000Y-24725000D03*
%TO.N,U2_SENSE_B*%
X21500000Y-26675000D03*
X10200000Y-25000000D03*
%TO.N,U3_SENSE_A*%
X21500000Y-46725000D03*
X10200000Y-50000000D03*
%TD*%
%TO.N,SLEEP*%
D19*
X31000000Y-25375000D02*
X41000000Y-20000000D01*
X41000000Y-50000000D02*
X41000000Y-20000000D01*
X41000000Y-20000000D02*
X45500000Y-20000000D01*
X45500000Y-20000000D02*
X45500000Y-25000000D01*
X36000000Y-47375000D02*
X41000000Y-50000000D01*
%TD*%
%TA.AperFunction,Conductor*%
%TO.N,VBAT*%
G36*
X88309369Y-1018907D02*
G01*
X88321182Y-1028996D01*
X90971004Y-3678817D01*
X90998781Y-3733334D01*
X91000000Y-3748821D01*
X91000000Y-70251178D01*
X90981093Y-70309369D01*
X90971004Y-70321182D01*
X88321182Y-72971004D01*
X88266665Y-72998781D01*
X88251178Y-73000000D01*
X3748821Y-73000000D01*
X3690630Y-72981093D01*
X3678817Y-72971004D01*
X1028996Y-70321182D01*
X1001219Y-70266665D01*
X1000000Y-70251178D01*
X1000000Y-68063890D01*
X17449500Y-68063890D01*
X17449500Y-69936110D01*
X17460276Y-70010072D01*
X17516049Y-70124157D01*
X17605843Y-70213951D01*
X17719928Y-70269724D01*
X17793890Y-70280500D01*
X17793893Y-70280500D01*
X19666106Y-70280500D01*
X19666110Y-70280500D01*
X19740072Y-70269724D01*
X19854157Y-70213951D01*
X19943951Y-70124157D01*
X19999724Y-70010072D01*
X20010500Y-69936110D01*
X20010500Y-69749655D01*
X20029407Y-69691464D01*
X20078907Y-69655500D01*
X20140093Y-69655500D01*
X20189591Y-69691462D01*
X20293289Y-69834190D01*
X20435810Y-69976711D01*
X20598871Y-70095182D01*
X20778458Y-70186686D01*
X20970149Y-70248970D01*
X20970150Y-70248970D01*
X20970153Y-70248971D01*
X21169219Y-70280500D01*
X21169222Y-70280500D01*
X21370781Y-70280500D01*
X21569846Y-70248971D01*
X21569847Y-70248970D01*
X21569851Y-70248970D01*
X21761542Y-70186686D01*
X21941129Y-70095182D01*
X22104190Y-69976711D01*
X22246711Y-69834190D01*
X22365182Y-69671129D01*
X22456686Y-69491542D01*
X22518970Y-69299851D01*
X22548007Y-69116518D01*
X22550500Y-69100781D01*
X22550500Y-68899218D01*
X22518971Y-68700153D01*
X22503754Y-68653319D01*
X22456686Y-68508458D01*
X22365182Y-68328871D01*
X22246711Y-68165810D01*
X22144791Y-68063890D01*
X31449499Y-68063890D01*
X31449499Y-69936110D01*
X31460275Y-70010072D01*
X31516048Y-70124157D01*
X31605842Y-70213951D01*
X31719927Y-70269724D01*
X31793889Y-70280500D01*
X31793892Y-70280500D01*
X33666105Y-70280500D01*
X33666109Y-70280500D01*
X33740071Y-70269724D01*
X33854156Y-70213951D01*
X33943950Y-70124157D01*
X33999723Y-70010072D01*
X34010499Y-69936110D01*
X34010499Y-69896077D01*
X34029406Y-69837886D01*
X34078906Y-69801922D01*
X34117269Y-69797382D01*
X34118932Y-69797512D01*
X34787036Y-69129407D01*
X34804075Y-69192993D01*
X34869901Y-69307007D01*
X34962993Y-69400099D01*
X35077007Y-69465925D01*
X35140589Y-69482962D01*
X34472485Y-70151067D01*
X34536241Y-70197387D01*
X34732586Y-70297430D01*
X34942170Y-70365528D01*
X35159815Y-70400000D01*
X35380185Y-70400000D01*
X35597829Y-70365528D01*
X35807413Y-70297430D01*
X36003757Y-70197388D01*
X36067513Y-70151067D01*
X35399408Y-69482962D01*
X35462993Y-69465925D01*
X35577007Y-69400099D01*
X35670099Y-69307007D01*
X35735925Y-69192993D01*
X35752962Y-69129408D01*
X36421067Y-69797513D01*
X36467388Y-69733757D01*
X36567430Y-69537413D01*
X36635528Y-69327829D01*
X36670000Y-69110185D01*
X36670000Y-68889814D01*
X36635528Y-68672170D01*
X36567430Y-68462586D01*
X36467387Y-68266241D01*
X36421067Y-68202485D01*
X35752962Y-68870589D01*
X35735925Y-68807007D01*
X35670099Y-68692993D01*
X35577007Y-68599901D01*
X35462993Y-68534075D01*
X35399407Y-68517036D01*
X36052554Y-67863890D01*
X43249500Y-67863890D01*
X43249500Y-70136110D01*
X43260276Y-70210072D01*
X43316049Y-70324157D01*
X43405843Y-70413951D01*
X43519928Y-70469724D01*
X43593890Y-70480500D01*
X43593893Y-70480500D01*
X45866106Y-70480500D01*
X45866110Y-70480500D01*
X45940072Y-70469724D01*
X46054157Y-70413951D01*
X46143951Y-70324157D01*
X46199724Y-70210072D01*
X46199724Y-70210070D01*
X46203100Y-70203165D01*
X46205217Y-70204200D01*
X46233900Y-70163486D01*
X46291809Y-70143732D01*
X46350269Y-70161788D01*
X46351405Y-70162600D01*
X46494049Y-70266237D01*
X46701685Y-70372033D01*
X46923315Y-70444045D01*
X46923316Y-70444045D01*
X46923319Y-70444046D01*
X47153479Y-70480500D01*
X47153482Y-70480500D01*
X47386521Y-70480500D01*
X47616680Y-70444046D01*
X47616681Y-70444045D01*
X47616685Y-70444045D01*
X47838315Y-70372033D01*
X48045951Y-70266237D01*
X48234481Y-70129262D01*
X48399262Y-69964481D01*
X48536237Y-69775951D01*
X48642033Y-69568315D01*
X48714045Y-69346685D01*
X48717032Y-69327829D01*
X48750500Y-69116521D01*
X48750500Y-68883478D01*
X48714046Y-68653319D01*
X48714045Y-68653315D01*
X48642033Y-68431685D01*
X48536237Y-68224049D01*
X48399262Y-68035519D01*
X48234481Y-67870738D01*
X48045951Y-67733763D01*
X48045950Y-67733762D01*
X48045948Y-67733761D01*
X47838315Y-67627967D01*
X47616680Y-67555953D01*
X47386521Y-67519500D01*
X47386518Y-67519500D01*
X47153482Y-67519500D01*
X47153479Y-67519500D01*
X46923319Y-67555953D01*
X46701684Y-67627967D01*
X46494049Y-67733762D01*
X46494045Y-67733764D01*
X46351443Y-67837371D01*
X46293253Y-67856278D01*
X46235062Y-67837370D01*
X46204953Y-67795929D01*
X46203100Y-67796835D01*
X46199724Y-67789929D01*
X46199724Y-67789928D01*
X46143951Y-67675843D01*
X46054157Y-67586049D01*
X45940072Y-67530276D01*
X45866110Y-67519500D01*
X43593890Y-67519500D01*
X43519928Y-67530276D01*
X43405844Y-67586048D01*
X43316048Y-67675844D01*
X43287733Y-67733764D01*
X43260276Y-67789928D01*
X43249500Y-67863890D01*
X36052554Y-67863890D01*
X36067512Y-67848932D01*
X36003753Y-67802609D01*
X35807413Y-67702569D01*
X35597829Y-67634471D01*
X35380185Y-67600000D01*
X35159815Y-67600000D01*
X34942170Y-67634471D01*
X34732586Y-67702569D01*
X34536239Y-67802613D01*
X34472485Y-67848931D01*
X35140591Y-68517037D01*
X35077007Y-68534075D01*
X34962993Y-68599901D01*
X34869901Y-68692993D01*
X34804075Y-68807007D01*
X34787037Y-68870591D01*
X34118930Y-68202485D01*
X34117267Y-68202616D01*
X34057772Y-68188332D01*
X34018035Y-68141807D01*
X34010499Y-68103921D01*
X34010499Y-68063893D01*
X34010499Y-68063890D01*
X33999723Y-67989928D01*
X33943950Y-67875843D01*
X33854156Y-67786049D01*
X33740071Y-67730276D01*
X33666109Y-67719500D01*
X31793889Y-67719500D01*
X31719927Y-67730276D01*
X31605843Y-67786048D01*
X31516047Y-67875844D01*
X31460275Y-67989928D01*
X31449499Y-68063890D01*
X22144791Y-68063890D01*
X22104190Y-68023289D01*
X21941129Y-67904818D01*
X21941128Y-67904817D01*
X21941126Y-67904816D01*
X21761542Y-67813314D01*
X21569846Y-67751028D01*
X21370781Y-67719500D01*
X21370778Y-67719500D01*
X21169222Y-67719500D01*
X21169219Y-67719500D01*
X20970153Y-67751028D01*
X20778457Y-67813314D01*
X20598873Y-67904816D01*
X20435811Y-68023288D01*
X20293284Y-68165815D01*
X20189592Y-68308535D01*
X20140092Y-68344499D01*
X20078907Y-68344498D01*
X20029407Y-68308534D01*
X20010500Y-68250344D01*
X20010500Y-68063893D01*
X20010500Y-68063890D01*
X19999724Y-67989928D01*
X19943951Y-67875843D01*
X19854157Y-67786049D01*
X19740072Y-67730276D01*
X19666110Y-67719500D01*
X17793890Y-67719500D01*
X17719928Y-67730276D01*
X17605844Y-67786048D01*
X17516048Y-67875844D01*
X17460276Y-67989928D01*
X17449500Y-68063890D01*
X1000000Y-68063890D01*
X1000000Y-65247824D01*
X52799999Y-65247824D01*
X52806402Y-65307375D01*
X52806402Y-65307378D01*
X52815275Y-65331169D01*
X54017036Y-64129407D01*
X54034075Y-64192993D01*
X54099901Y-64307007D01*
X54192993Y-64400099D01*
X54307007Y-64465925D01*
X54370589Y-64482962D01*
X53168829Y-65684723D01*
X53192618Y-65693596D01*
X53192629Y-65693598D01*
X53252176Y-65700000D01*
X55747824Y-65700000D01*
X55807374Y-65693598D01*
X55831168Y-65684722D01*
X54629408Y-64482962D01*
X54692993Y-64465925D01*
X54807007Y-64400099D01*
X54900099Y-64307007D01*
X54965925Y-64192993D01*
X54982962Y-64129408D01*
X56184722Y-65331168D01*
X56193598Y-65307374D01*
X56200000Y-65247824D01*
X56200000Y-62763890D01*
X57919500Y-62763890D01*
X57919500Y-65236110D01*
X57930276Y-65310072D01*
X57986049Y-65424157D01*
X58075843Y-65513951D01*
X58189928Y-65569724D01*
X58263890Y-65580500D01*
X58263893Y-65580500D01*
X60736106Y-65580500D01*
X60736110Y-65580500D01*
X60810072Y-65569724D01*
X60924157Y-65513951D01*
X61013951Y-65424157D01*
X61069724Y-65310072D01*
X61080500Y-65236110D01*
X61080500Y-62763890D01*
X61069724Y-62689928D01*
X61013951Y-62575843D01*
X60924157Y-62486049D01*
X60810072Y-62430276D01*
X60736110Y-62419500D01*
X58263890Y-62419500D01*
X58189928Y-62430276D01*
X58075844Y-62486048D01*
X57986048Y-62575844D01*
X57940591Y-62668829D01*
X57930276Y-62689928D01*
X57919500Y-62763890D01*
X56200000Y-62763890D01*
X56200000Y-62752175D01*
X56193598Y-62692629D01*
X56193596Y-62692618D01*
X56184723Y-62668829D01*
X54982962Y-63870589D01*
X54965925Y-63807007D01*
X54900099Y-63692993D01*
X54807007Y-63599901D01*
X54692993Y-63534075D01*
X54629407Y-63517036D01*
X55831169Y-62315275D01*
X55807377Y-62306402D01*
X55747824Y-62300000D01*
X53252176Y-62300000D01*
X53192626Y-62306401D01*
X53168830Y-62315276D01*
X54370591Y-63517037D01*
X54307007Y-63534075D01*
X54192993Y-63599901D01*
X54099901Y-63692993D01*
X54034075Y-63807007D01*
X54017037Y-63870591D01*
X52815276Y-62668830D01*
X52806401Y-62692626D01*
X52800000Y-62752175D01*
X52800000Y-65247824D01*
X52799999Y-65247824D01*
X1000000Y-65247824D01*
X1000000Y-61352494D01*
X14749500Y-61352494D01*
X14749500Y-61647506D01*
X14788007Y-61939993D01*
X14846470Y-62158183D01*
X14864361Y-62224953D01*
X14977253Y-62497499D01*
X14977255Y-62497503D01*
X14977257Y-62497507D01*
X15094178Y-62700021D01*
X15124764Y-62752997D01*
X15304348Y-62987035D01*
X15304350Y-62987037D01*
X15304354Y-62987042D01*
X15512958Y-63195646D01*
X15512962Y-63195649D01*
X15512964Y-63195651D01*
X15747002Y-63375235D01*
X15747006Y-63375238D01*
X16002493Y-63522743D01*
X16275048Y-63635639D01*
X16560007Y-63711993D01*
X16852494Y-63750500D01*
X16852495Y-63750500D01*
X17147505Y-63750500D01*
X17147506Y-63750500D01*
X17439993Y-63711993D01*
X17724952Y-63635639D01*
X17997507Y-63522743D01*
X18252994Y-63375238D01*
X18487042Y-63195646D01*
X18695646Y-62987042D01*
X18875238Y-62752994D01*
X19022743Y-62497507D01*
X19135639Y-62224952D01*
X19211993Y-61939993D01*
X19250500Y-61647506D01*
X19250500Y-61352494D01*
X72749500Y-61352494D01*
X72749500Y-61647506D01*
X72788007Y-61939993D01*
X72846470Y-62158183D01*
X72864361Y-62224953D01*
X72977253Y-62497499D01*
X72977255Y-62497503D01*
X72977257Y-62497507D01*
X73094178Y-62700021D01*
X73124764Y-62752997D01*
X73304348Y-62987035D01*
X73304350Y-62987037D01*
X73304354Y-62987042D01*
X73512958Y-63195646D01*
X73512962Y-63195649D01*
X73512964Y-63195651D01*
X73747002Y-63375235D01*
X73747006Y-63375238D01*
X74002493Y-63522743D01*
X74275048Y-63635639D01*
X74560007Y-63711993D01*
X74852494Y-63750500D01*
X74852495Y-63750500D01*
X75147505Y-63750500D01*
X75147506Y-63750500D01*
X75439993Y-63711993D01*
X75619517Y-63663890D01*
X78319500Y-63663890D01*
X78319500Y-66336110D01*
X78330276Y-66410072D01*
X78386049Y-66524157D01*
X78475843Y-66613951D01*
X78589928Y-66669724D01*
X78663890Y-66680500D01*
X78663893Y-66680500D01*
X81336106Y-66680500D01*
X81336110Y-66680500D01*
X81410072Y-66669724D01*
X81524157Y-66613951D01*
X81613951Y-66524157D01*
X81669724Y-66410072D01*
X81680500Y-66336110D01*
X81680500Y-63663890D01*
X84319500Y-63663890D01*
X84319500Y-66336110D01*
X84330276Y-66410072D01*
X84386049Y-66524157D01*
X84475843Y-66613951D01*
X84589928Y-66669724D01*
X84663890Y-66680500D01*
X84663893Y-66680500D01*
X87336106Y-66680500D01*
X87336110Y-66680500D01*
X87410072Y-66669724D01*
X87524157Y-66613951D01*
X87613951Y-66524157D01*
X87669724Y-66410072D01*
X87680500Y-66336110D01*
X87680500Y-63663890D01*
X87669724Y-63589928D01*
X87613951Y-63475843D01*
X87524157Y-63386049D01*
X87410072Y-63330276D01*
X87336110Y-63319500D01*
X84663890Y-63319500D01*
X84589928Y-63330276D01*
X84475844Y-63386048D01*
X84386048Y-63475844D01*
X84374239Y-63500000D01*
X84330276Y-63589928D01*
X84319500Y-63663890D01*
X81680500Y-63663890D01*
X81669724Y-63589928D01*
X81613951Y-63475843D01*
X81524157Y-63386049D01*
X81410072Y-63330276D01*
X81336110Y-63319500D01*
X78663890Y-63319500D01*
X78589928Y-63330276D01*
X78475844Y-63386048D01*
X78386048Y-63475844D01*
X78374239Y-63500000D01*
X78330276Y-63589928D01*
X78319500Y-63663890D01*
X75619517Y-63663890D01*
X75724952Y-63635639D01*
X75836118Y-63589592D01*
X75886210Y-63568844D01*
X75970149Y-63534075D01*
X75997507Y-63522743D01*
X76252994Y-63375238D01*
X76487042Y-63195646D01*
X76695646Y-62987042D01*
X76875238Y-62752994D01*
X77022743Y-62497507D01*
X77135639Y-62224952D01*
X77211993Y-61939993D01*
X77250500Y-61647506D01*
X77250500Y-61352494D01*
X77211993Y-61060007D01*
X77135639Y-60775048D01*
X77022743Y-60502493D01*
X76875238Y-60247006D01*
X76695646Y-60012958D01*
X76487042Y-59804354D01*
X76487037Y-59804350D01*
X76487035Y-59804348D01*
X76252997Y-59624764D01*
X76120034Y-59547998D01*
X75997507Y-59477257D01*
X75997503Y-59477255D01*
X75997499Y-59477253D01*
X75724953Y-59364361D01*
X75658183Y-59346470D01*
X75439993Y-59288007D01*
X75439986Y-59288006D01*
X75147506Y-59249500D01*
X74852494Y-59249500D01*
X74852493Y-59249500D01*
X74560013Y-59288006D01*
X74560011Y-59288006D01*
X74560007Y-59288007D01*
X74408584Y-59328580D01*
X74275046Y-59364361D01*
X74002500Y-59477253D01*
X73747002Y-59624764D01*
X73512964Y-59804348D01*
X73304348Y-60012964D01*
X73124764Y-60247002D01*
X72977253Y-60502500D01*
X72864361Y-60775046D01*
X72828580Y-60908584D01*
X72788007Y-61060007D01*
X72749500Y-61352494D01*
X19250500Y-61352494D01*
X19211993Y-61060007D01*
X19135639Y-60775048D01*
X19022743Y-60502493D01*
X18875238Y-60247006D01*
X18695646Y-60012958D01*
X18487042Y-59804354D01*
X18487037Y-59804350D01*
X18487035Y-59804348D01*
X18252997Y-59624764D01*
X18120034Y-59547998D01*
X17997507Y-59477257D01*
X17997503Y-59477255D01*
X17997499Y-59477253D01*
X17724953Y-59364361D01*
X17658183Y-59346470D01*
X17439993Y-59288007D01*
X17439986Y-59288006D01*
X17147506Y-59249500D01*
X16852494Y-59249500D01*
X16852493Y-59249500D01*
X16560013Y-59288006D01*
X16560011Y-59288006D01*
X16560007Y-59288007D01*
X16408584Y-59328580D01*
X16275046Y-59364361D01*
X16002500Y-59477253D01*
X15747002Y-59624764D01*
X15512964Y-59804348D01*
X15304348Y-60012964D01*
X15124764Y-60247002D01*
X14977253Y-60502500D01*
X14864361Y-60775046D01*
X14828580Y-60908584D01*
X14788007Y-61060007D01*
X14749500Y-61352494D01*
X1000000Y-61352494D01*
X1000000Y-58930511D01*
X52794500Y-58930511D01*
X52794500Y-59069488D01*
X52821612Y-59205786D01*
X52821612Y-59205788D01*
X52874791Y-59334175D01*
X52874797Y-59334186D01*
X52894960Y-59364361D01*
X52952002Y-59449730D01*
X53050270Y-59547998D01*
X53119158Y-59594027D01*
X53165813Y-59625202D01*
X53165824Y-59625208D01*
X53213250Y-59644852D01*
X53294213Y-59678388D01*
X53430514Y-59705500D01*
X53430515Y-59705500D01*
X53569485Y-59705500D01*
X53569486Y-59705500D01*
X53705787Y-59678388D01*
X53834180Y-59625206D01*
X53949730Y-59547998D01*
X54047998Y-59449730D01*
X54125206Y-59334180D01*
X54178388Y-59205787D01*
X54205500Y-59069486D01*
X54205500Y-58930514D01*
X54178388Y-58794213D01*
X54125206Y-58665820D01*
X54125205Y-58665818D01*
X54125202Y-58665813D01*
X54094027Y-58619158D01*
X54047998Y-58550270D01*
X53949730Y-58452002D01*
X53903699Y-58421245D01*
X53834186Y-58374797D01*
X53834175Y-58374791D01*
X53705787Y-58321612D01*
X53569488Y-58294500D01*
X53569486Y-58294500D01*
X53430514Y-58294500D01*
X53430511Y-58294500D01*
X53294213Y-58321612D01*
X53294211Y-58321612D01*
X53165824Y-58374791D01*
X53165813Y-58374797D01*
X53050270Y-58452002D01*
X53050266Y-58452005D01*
X52952005Y-58550266D01*
X52952002Y-58550270D01*
X52874797Y-58665813D01*
X52874791Y-58665824D01*
X52821612Y-58794211D01*
X52821612Y-58794213D01*
X52794500Y-58930511D01*
X1000000Y-58930511D01*
X1000000Y-54200511D01*
X75294500Y-54200511D01*
X75294500Y-54339488D01*
X75321612Y-54475786D01*
X75321612Y-54475788D01*
X75374791Y-54604175D01*
X75374797Y-54604186D01*
X75421245Y-54673699D01*
X75452002Y-54719730D01*
X75550270Y-54817998D01*
X75619158Y-54864027D01*
X75665813Y-54895202D01*
X75665824Y-54895208D01*
X75713250Y-54914852D01*
X75794213Y-54948388D01*
X75930514Y-54975500D01*
X75930515Y-54975500D01*
X76069485Y-54975500D01*
X76069486Y-54975500D01*
X76205787Y-54948388D01*
X76334180Y-54895206D01*
X76449730Y-54817998D01*
X76547998Y-54719730D01*
X76625206Y-54604180D01*
X76678388Y-54475787D01*
X76705500Y-54339486D01*
X76705500Y-54200514D01*
X76678388Y-54064213D01*
X76625206Y-53935820D01*
X76625205Y-53935818D01*
X76625202Y-53935813D01*
X76594027Y-53889158D01*
X76547998Y-53820270D01*
X76449730Y-53722002D01*
X76403699Y-53691245D01*
X76334186Y-53644797D01*
X76334175Y-53644791D01*
X76205787Y-53591612D01*
X76069488Y-53564500D01*
X76069486Y-53564500D01*
X75930514Y-53564500D01*
X75930511Y-53564500D01*
X75794213Y-53591612D01*
X75794211Y-53591612D01*
X75665824Y-53644791D01*
X75665813Y-53644797D01*
X75550270Y-53722002D01*
X75550266Y-53722005D01*
X75452005Y-53820266D01*
X75452002Y-53820270D01*
X75374797Y-53935813D01*
X75374791Y-53935824D01*
X75321612Y-54064211D01*
X75321612Y-54064213D01*
X75294500Y-54200511D01*
X1000000Y-54200511D01*
X1000000Y-49930511D01*
X5094500Y-49930511D01*
X5094500Y-49930514D01*
X5094500Y-50069486D01*
X5118337Y-50189325D01*
X5121612Y-50205786D01*
X5121612Y-50205788D01*
X5174791Y-50334175D01*
X5174797Y-50334186D01*
X5213759Y-50392496D01*
X5252002Y-50449730D01*
X5350270Y-50547998D01*
X5419158Y-50594027D01*
X5465813Y-50625202D01*
X5465824Y-50625208D01*
X5489025Y-50634818D01*
X5594213Y-50678388D01*
X5730514Y-50705500D01*
X5730515Y-50705500D01*
X5869485Y-50705500D01*
X5869486Y-50705500D01*
X6005787Y-50678388D01*
X6134180Y-50625206D01*
X6249730Y-50547998D01*
X6347998Y-50449730D01*
X6425206Y-50334180D01*
X6478388Y-50205787D01*
X6505500Y-50069486D01*
X6505500Y-49930514D01*
X6505499Y-49930511D01*
X9494500Y-49930511D01*
X9494500Y-49930514D01*
X9494500Y-50069486D01*
X9518337Y-50189325D01*
X9521612Y-50205786D01*
X9521612Y-50205788D01*
X9574791Y-50334175D01*
X9574797Y-50334186D01*
X9613759Y-50392496D01*
X9652002Y-50449730D01*
X9750270Y-50547998D01*
X9819158Y-50594027D01*
X9865813Y-50625202D01*
X9865824Y-50625208D01*
X9889025Y-50634818D01*
X9994213Y-50678388D01*
X10130514Y-50705500D01*
X10130515Y-50705500D01*
X10269485Y-50705500D01*
X10269486Y-50705500D01*
X10405787Y-50678388D01*
X10534180Y-50625206D01*
X10649730Y-50547998D01*
X10747998Y-50449730D01*
X10825206Y-50334180D01*
X10878388Y-50205787D01*
X10905500Y-50069486D01*
X10905500Y-49930514D01*
X10878388Y-49794213D01*
X10845653Y-49715183D01*
X10825208Y-49665824D01*
X10825202Y-49665813D01*
X10779029Y-49596711D01*
X10747998Y-49550270D01*
X10649730Y-49452002D01*
X10603699Y-49421245D01*
X10534186Y-49374797D01*
X10534175Y-49374791D01*
X10405787Y-49321612D01*
X10269488Y-49294500D01*
X10269486Y-49294500D01*
X10130514Y-49294500D01*
X10130511Y-49294500D01*
X9994213Y-49321612D01*
X9994211Y-49321612D01*
X9865824Y-49374791D01*
X9865813Y-49374797D01*
X9750270Y-49452002D01*
X9750266Y-49452005D01*
X9652005Y-49550266D01*
X9652002Y-49550270D01*
X9574797Y-49665813D01*
X9574791Y-49665824D01*
X9521612Y-49794211D01*
X9521612Y-49794213D01*
X9494500Y-49930511D01*
X6505499Y-49930511D01*
X6478388Y-49794213D01*
X6445653Y-49715183D01*
X6425208Y-49665824D01*
X6425202Y-49665813D01*
X6379029Y-49596711D01*
X6347998Y-49550270D01*
X6249730Y-49452002D01*
X6203699Y-49421245D01*
X6134186Y-49374797D01*
X6134175Y-49374791D01*
X6005787Y-49321612D01*
X5869488Y-49294500D01*
X5869486Y-49294500D01*
X5730514Y-49294500D01*
X5730511Y-49294500D01*
X5594213Y-49321612D01*
X5594211Y-49321612D01*
X5465824Y-49374791D01*
X5465813Y-49374797D01*
X5350270Y-49452002D01*
X5350266Y-49452005D01*
X5252005Y-49550266D01*
X5252002Y-49550270D01*
X5174797Y-49665813D01*
X5174791Y-49665824D01*
X5121612Y-49794211D01*
X5121612Y-49794213D01*
X5094500Y-49930511D01*
X1000000Y-49930511D01*
X1000000Y-48925587D01*
X25244500Y-48925587D01*
X25244500Y-49074412D01*
X25273533Y-49220370D01*
X25273533Y-49220372D01*
X25330481Y-49357859D01*
X25330487Y-49357870D01*
X25346067Y-49381186D01*
X25413164Y-49481603D01*
X25518397Y-49586836D01*
X25589245Y-49634175D01*
X25642129Y-49669512D01*
X25642140Y-49669518D01*
X25692928Y-49690554D01*
X25779629Y-49726467D01*
X25925590Y-49755500D01*
X25925591Y-49755500D01*
X26074409Y-49755500D01*
X26074410Y-49755500D01*
X26220371Y-49726467D01*
X26357864Y-49669516D01*
X26481603Y-49586836D01*
X26586836Y-49481603D01*
X26669516Y-49357864D01*
X26726467Y-49220371D01*
X26755500Y-49074410D01*
X26755500Y-48925590D01*
X26726467Y-48779629D01*
X26702090Y-48720778D01*
X26669518Y-48642140D01*
X26669512Y-48642129D01*
X26623319Y-48572998D01*
X26586836Y-48518397D01*
X26481603Y-48413164D01*
X26432310Y-48380227D01*
X26357870Y-48330487D01*
X26357859Y-48330481D01*
X26220371Y-48273533D01*
X26074412Y-48244500D01*
X26074410Y-48244500D01*
X25925590Y-48244500D01*
X25925587Y-48244500D01*
X25779629Y-48273533D01*
X25779627Y-48273533D01*
X25642140Y-48330481D01*
X25642129Y-48330487D01*
X25518397Y-48413164D01*
X25518393Y-48413167D01*
X25413167Y-48518393D01*
X25413164Y-48518397D01*
X25330487Y-48642129D01*
X25330481Y-48642140D01*
X25273533Y-48779627D01*
X25273533Y-48779629D01*
X25244500Y-48925587D01*
X1000000Y-48925587D01*
X1000000Y-47955511D01*
X30294500Y-47955511D01*
X30294500Y-48094488D01*
X30321612Y-48230786D01*
X30321612Y-48230788D01*
X30374791Y-48359175D01*
X30374797Y-48359186D01*
X30410865Y-48413164D01*
X30452002Y-48474730D01*
X30550270Y-48572998D01*
X30619158Y-48619027D01*
X30665813Y-48650202D01*
X30665824Y-48650208D01*
X30705498Y-48666641D01*
X30794213Y-48703388D01*
X30930514Y-48730500D01*
X30930515Y-48730500D01*
X31069485Y-48730500D01*
X31069486Y-48730500D01*
X31186163Y-48707291D01*
X31246922Y-48714482D01*
X31291852Y-48756015D01*
X31302573Y-48785074D01*
X31321612Y-48880788D01*
X31374791Y-49009175D01*
X31374797Y-49009186D01*
X31418379Y-49074409D01*
X31452002Y-49124730D01*
X31452005Y-49124733D01*
X31481136Y-49153864D01*
X31508913Y-49208381D01*
X31499342Y-49268813D01*
X31456077Y-49312078D01*
X31449018Y-49315332D01*
X31365821Y-49349793D01*
X31365813Y-49349797D01*
X31250270Y-49427002D01*
X31250266Y-49427005D01*
X31152005Y-49525266D01*
X31152002Y-49525270D01*
X31074797Y-49640813D01*
X31074791Y-49640824D01*
X31021612Y-49769211D01*
X31021612Y-49769213D01*
X30994500Y-49905511D01*
X30994500Y-50044488D01*
X31009015Y-50117456D01*
X31019630Y-50170825D01*
X31021612Y-50180786D01*
X31021612Y-50180788D01*
X31074791Y-50309175D01*
X31074797Y-50309186D01*
X31121245Y-50378699D01*
X31152002Y-50424730D01*
X31250270Y-50522998D01*
X31319158Y-50569027D01*
X31365813Y-50600202D01*
X31365824Y-50600208D01*
X31413250Y-50619852D01*
X31494213Y-50653388D01*
X31630514Y-50680500D01*
X31630515Y-50680500D01*
X31769485Y-50680500D01*
X31769486Y-50680500D01*
X31905787Y-50653388D01*
X32034180Y-50600206D01*
X32149730Y-50522998D01*
X32247998Y-50424730D01*
X32325206Y-50309180D01*
X32378388Y-50180787D01*
X32405500Y-50044486D01*
X32405500Y-49905514D01*
X32378388Y-49769213D01*
X32335563Y-49665824D01*
X32325208Y-49640824D01*
X32325202Y-49640813D01*
X32264702Y-49550270D01*
X32247998Y-49525270D01*
X32218863Y-49496135D01*
X32191086Y-49441618D01*
X32200657Y-49381186D01*
X32243922Y-49337921D01*
X32250946Y-49334682D01*
X32334180Y-49300206D01*
X32438486Y-49230511D01*
X35794500Y-49230511D01*
X35794500Y-49369488D01*
X35795556Y-49374797D01*
X35816801Y-49481603D01*
X35821612Y-49505786D01*
X35821612Y-49505788D01*
X35874791Y-49634175D01*
X35874797Y-49634186D01*
X35898406Y-49669518D01*
X35952002Y-49749730D01*
X36050270Y-49847998D01*
X36119158Y-49894027D01*
X36165813Y-49925202D01*
X36165824Y-49925208D01*
X36213250Y-49944852D01*
X36294213Y-49978388D01*
X36430514Y-50005500D01*
X36430515Y-50005500D01*
X36569485Y-50005500D01*
X36569486Y-50005500D01*
X36705787Y-49978388D01*
X36834180Y-49925206D01*
X36949730Y-49847998D01*
X37047998Y-49749730D01*
X37125206Y-49634180D01*
X37178388Y-49505787D01*
X37205500Y-49369486D01*
X37205500Y-49230514D01*
X37178388Y-49094213D01*
X37125206Y-48965820D01*
X37125205Y-48965818D01*
X37125202Y-48965813D01*
X37068389Y-48880788D01*
X37047998Y-48850270D01*
X36949730Y-48752002D01*
X36903000Y-48720778D01*
X36834186Y-48674797D01*
X36834175Y-48674791D01*
X36705787Y-48621612D01*
X36569488Y-48594500D01*
X36569486Y-48594500D01*
X36430514Y-48594500D01*
X36430511Y-48594500D01*
X36294213Y-48621612D01*
X36294211Y-48621612D01*
X36165824Y-48674791D01*
X36165813Y-48674797D01*
X36050270Y-48752002D01*
X36050266Y-48752005D01*
X35952005Y-48850266D01*
X35952002Y-48850270D01*
X35874797Y-48965813D01*
X35874791Y-48965824D01*
X35821612Y-49094211D01*
X35821612Y-49094213D01*
X35794500Y-49230511D01*
X32438486Y-49230511D01*
X32449730Y-49222998D01*
X32547998Y-49124730D01*
X32625206Y-49009180D01*
X32678388Y-48880787D01*
X32705500Y-48744486D01*
X32705500Y-48605514D01*
X32678388Y-48469213D01*
X32655172Y-48413164D01*
X32625208Y-48340824D01*
X32625202Y-48340813D01*
X32567121Y-48253890D01*
X32547998Y-48225270D01*
X32449730Y-48127002D01*
X32380135Y-48080500D01*
X32334186Y-48049797D01*
X32334175Y-48049791D01*
X32205787Y-47996612D01*
X32069488Y-47969500D01*
X32069486Y-47969500D01*
X31930514Y-47969500D01*
X31930511Y-47969500D01*
X31813838Y-47992708D01*
X31753077Y-47985516D01*
X31708147Y-47943983D01*
X31697426Y-47914924D01*
X31696347Y-47909500D01*
X31678388Y-47819213D01*
X31660660Y-47776415D01*
X31625208Y-47690824D01*
X31625202Y-47690813D01*
X31593446Y-47643288D01*
X31547998Y-47575270D01*
X31449730Y-47477002D01*
X31391674Y-47438210D01*
X31334186Y-47399797D01*
X31334175Y-47399791D01*
X31205787Y-47346612D01*
X31069488Y-47319500D01*
X31069486Y-47319500D01*
X30930514Y-47319500D01*
X30930511Y-47319500D01*
X30794213Y-47346612D01*
X30794211Y-47346612D01*
X30665824Y-47399791D01*
X30665813Y-47399797D01*
X30550270Y-47477002D01*
X30550266Y-47477005D01*
X30452005Y-47575266D01*
X30452002Y-47575270D01*
X30374797Y-47690813D01*
X30374791Y-47690824D01*
X30321612Y-47819211D01*
X30321612Y-47819213D01*
X30294500Y-47955511D01*
X1000000Y-47955511D01*
X1000000Y-46655511D01*
X20794500Y-46655511D01*
X20794500Y-46794488D01*
X20821612Y-46930786D01*
X20821612Y-46930788D01*
X20874791Y-47059175D01*
X20874797Y-47059186D01*
X20921245Y-47128699D01*
X20952002Y-47174730D01*
X21050270Y-47272998D01*
X21098934Y-47305514D01*
X21165813Y-47350202D01*
X21165824Y-47350208D01*
X21213250Y-47369852D01*
X21294213Y-47403388D01*
X21430514Y-47430500D01*
X21430515Y-47430500D01*
X21569485Y-47430500D01*
X21569486Y-47430500D01*
X21705787Y-47403388D01*
X21834180Y-47350206D01*
X21949730Y-47272998D01*
X22047998Y-47174730D01*
X22125206Y-47059180D01*
X22178388Y-46930787D01*
X22205500Y-46794486D01*
X22205500Y-46655514D01*
X22178388Y-46519213D01*
X22125206Y-46390820D01*
X22125205Y-46390818D01*
X22125202Y-46390813D01*
X22094027Y-46344158D01*
X22047998Y-46275270D01*
X21949730Y-46177002D01*
X21903699Y-46146245D01*
X21834186Y-46099797D01*
X21834175Y-46099791D01*
X21705787Y-46046612D01*
X21569488Y-46019500D01*
X21569486Y-46019500D01*
X21430514Y-46019500D01*
X21430511Y-46019500D01*
X21294213Y-46046612D01*
X21294211Y-46046612D01*
X21165824Y-46099791D01*
X21165813Y-46099797D01*
X21050270Y-46177002D01*
X21050266Y-46177005D01*
X20952005Y-46275266D01*
X20952002Y-46275270D01*
X20874797Y-46390813D01*
X20874791Y-46390824D01*
X20821612Y-46519211D01*
X20821612Y-46519213D01*
X20794500Y-46655511D01*
X1000000Y-46655511D01*
X1000000Y-41930511D01*
X18794500Y-41930511D01*
X18794500Y-42069488D01*
X18821612Y-42205786D01*
X18821612Y-42205788D01*
X18874791Y-42334175D01*
X18874797Y-42334186D01*
X18890850Y-42358210D01*
X18952002Y-42449730D01*
X19050270Y-42547998D01*
X19119158Y-42594027D01*
X19165813Y-42625202D01*
X19165824Y-42625208D01*
X19213250Y-42644852D01*
X19294213Y-42678388D01*
X19430514Y-42705500D01*
X19430515Y-42705500D01*
X19569485Y-42705500D01*
X19569486Y-42705500D01*
X19705787Y-42678388D01*
X19834180Y-42625206D01*
X19949730Y-42547998D01*
X20047998Y-42449730D01*
X20125206Y-42334180D01*
X20178388Y-42205787D01*
X20205500Y-42069486D01*
X20205500Y-41930514D01*
X20178388Y-41794213D01*
X20125206Y-41665820D01*
X20125205Y-41665818D01*
X20125202Y-41665813D01*
X20094027Y-41619158D01*
X20047998Y-41550270D01*
X19949730Y-41452002D01*
X19903699Y-41421245D01*
X19834186Y-41374797D01*
X19834175Y-41374791D01*
X19705787Y-41321612D01*
X19569488Y-41294500D01*
X19569486Y-41294500D01*
X19430514Y-41294500D01*
X19430511Y-41294500D01*
X19294213Y-41321612D01*
X19294211Y-41321612D01*
X19165824Y-41374791D01*
X19165813Y-41374797D01*
X19050270Y-41452002D01*
X19050266Y-41452005D01*
X18952005Y-41550266D01*
X18952002Y-41550270D01*
X18874797Y-41665813D01*
X18874791Y-41665824D01*
X18821612Y-41794211D01*
X18821612Y-41794213D01*
X18794500Y-41930511D01*
X1000000Y-41930511D01*
X1000000Y-34793890D01*
X3719500Y-34793890D01*
X3719500Y-36666110D01*
X3730276Y-36740072D01*
X3786049Y-36854157D01*
X3875843Y-36943951D01*
X3989928Y-36999724D01*
X4063890Y-37010500D01*
X4250345Y-37010500D01*
X4308536Y-37029407D01*
X4344500Y-37078907D01*
X4344500Y-37140093D01*
X4308537Y-37189591D01*
X4211623Y-37260004D01*
X4165811Y-37293288D01*
X4023288Y-37435811D01*
X3904816Y-37598873D01*
X3813314Y-37778457D01*
X3751028Y-37970153D01*
X3719500Y-38169218D01*
X3719500Y-38370781D01*
X3751028Y-38569846D01*
X3813314Y-38761542D01*
X3843354Y-38820500D01*
X3904818Y-38941129D01*
X4023289Y-39104190D01*
X4165810Y-39246711D01*
X4328871Y-39365182D01*
X4508458Y-39456686D01*
X4700149Y-39518970D01*
X4700150Y-39518970D01*
X4700153Y-39518971D01*
X4899219Y-39550500D01*
X4899222Y-39550500D01*
X5100781Y-39550500D01*
X5299846Y-39518971D01*
X5299847Y-39518970D01*
X5299851Y-39518970D01*
X5491542Y-39456686D01*
X5671129Y-39365182D01*
X5834190Y-39246711D01*
X5976711Y-39104190D01*
X6095182Y-38941129D01*
X6186686Y-38761542D01*
X6248970Y-38569851D01*
X6280500Y-38370778D01*
X6280500Y-38169222D01*
X6280500Y-38169218D01*
X6248971Y-37970153D01*
X6248970Y-37970149D01*
X6186686Y-37778458D01*
X6095182Y-37598871D01*
X5976711Y-37435810D01*
X5834190Y-37293289D01*
X5691462Y-37189591D01*
X5655500Y-37140093D01*
X5655500Y-37078907D01*
X5691464Y-37029407D01*
X5749655Y-37010500D01*
X5936106Y-37010500D01*
X5936110Y-37010500D01*
X6010072Y-36999724D01*
X6124157Y-36943951D01*
X6213951Y-36854157D01*
X6269724Y-36740072D01*
X6280500Y-36666110D01*
X6280500Y-34793890D01*
X6269724Y-34719928D01*
X6213951Y-34605843D01*
X6124157Y-34516049D01*
X6010072Y-34460276D01*
X5936110Y-34449500D01*
X4063890Y-34449500D01*
X3989928Y-34460276D01*
X3875844Y-34516048D01*
X3786048Y-34605844D01*
X3742489Y-34694945D01*
X3730276Y-34719928D01*
X3719500Y-34793890D01*
X1000000Y-34793890D01*
X1000000Y-31430511D01*
X34794500Y-31430511D01*
X34794500Y-31569488D01*
X34821612Y-31705786D01*
X34821612Y-31705788D01*
X34874791Y-31834175D01*
X34874797Y-31834186D01*
X34921245Y-31903699D01*
X34952002Y-31949730D01*
X35050270Y-32047998D01*
X35119158Y-32094027D01*
X35165813Y-32125202D01*
X35165824Y-32125208D01*
X35179880Y-32131030D01*
X35294213Y-32178388D01*
X35430514Y-32205500D01*
X35430515Y-32205500D01*
X35569485Y-32205500D01*
X35569486Y-32205500D01*
X35705787Y-32178388D01*
X35834180Y-32125206D01*
X35949730Y-32047998D01*
X36047998Y-31949730D01*
X36125206Y-31834180D01*
X36178388Y-31705787D01*
X36205500Y-31569486D01*
X36205500Y-31430514D01*
X36178388Y-31294213D01*
X36135336Y-31190276D01*
X36125208Y-31165824D01*
X36125202Y-31165813D01*
X36094027Y-31119158D01*
X36047998Y-31050270D01*
X35949730Y-30952002D01*
X35903699Y-30921245D01*
X35834186Y-30874797D01*
X35834175Y-30874791D01*
X35705787Y-30821612D01*
X35569488Y-30794500D01*
X35569486Y-30794500D01*
X35430514Y-30794500D01*
X35430511Y-30794500D01*
X35294213Y-30821612D01*
X35294211Y-30821612D01*
X35165824Y-30874791D01*
X35165813Y-30874797D01*
X35050270Y-30952002D01*
X35050266Y-30952005D01*
X34952005Y-31050266D01*
X34952002Y-31050270D01*
X34874797Y-31165813D01*
X34874791Y-31165824D01*
X34821612Y-31294211D01*
X34821612Y-31294213D01*
X34794500Y-31430511D01*
X1000000Y-31430511D01*
X1000000Y-29930511D01*
X21294500Y-29930511D01*
X21294500Y-30069488D01*
X21321612Y-30205786D01*
X21321612Y-30205788D01*
X21374791Y-30334175D01*
X21374797Y-30334186D01*
X21421245Y-30403699D01*
X21452002Y-30449730D01*
X21550270Y-30547998D01*
X21619158Y-30594027D01*
X21665813Y-30625202D01*
X21665824Y-30625208D01*
X21713250Y-30644852D01*
X21794213Y-30678388D01*
X21930514Y-30705500D01*
X21930515Y-30705500D01*
X22069485Y-30705500D01*
X22069486Y-30705500D01*
X22205787Y-30678388D01*
X22334180Y-30625206D01*
X22449730Y-30547998D01*
X22547998Y-30449730D01*
X22625206Y-30334180D01*
X22678388Y-30205787D01*
X22705500Y-30069486D01*
X22705500Y-29930514D01*
X22678388Y-29794213D01*
X22625206Y-29665820D01*
X22625205Y-29665818D01*
X22625202Y-29665813D01*
X22594027Y-29619158D01*
X22547998Y-29550270D01*
X22449730Y-29452002D01*
X22403699Y-29421245D01*
X22334186Y-29374797D01*
X22334175Y-29374791D01*
X22205787Y-29321612D01*
X22069488Y-29294500D01*
X22069486Y-29294500D01*
X21930514Y-29294500D01*
X21930511Y-29294500D01*
X21794213Y-29321612D01*
X21794211Y-29321612D01*
X21665824Y-29374791D01*
X21665813Y-29374797D01*
X21550270Y-29452002D01*
X21550266Y-29452005D01*
X21452005Y-29550266D01*
X21452002Y-29550270D01*
X21374797Y-29665813D01*
X21374791Y-29665824D01*
X21321612Y-29794211D01*
X21321612Y-29794213D01*
X21294500Y-29930511D01*
X1000000Y-29930511D01*
X1000000Y-28555511D01*
X20294500Y-28555511D01*
X20294500Y-28694488D01*
X20321612Y-28830786D01*
X20321612Y-28830788D01*
X20374791Y-28959175D01*
X20374797Y-28959186D01*
X20421245Y-29028699D01*
X20452002Y-29074730D01*
X20550270Y-29172998D01*
X20619158Y-29219027D01*
X20665813Y-29250202D01*
X20665824Y-29250208D01*
X20713250Y-29269852D01*
X20794213Y-29303388D01*
X20930514Y-29330500D01*
X20930515Y-29330500D01*
X21069485Y-29330500D01*
X21069486Y-29330500D01*
X21205787Y-29303388D01*
X21334180Y-29250206D01*
X21449730Y-29172998D01*
X21547998Y-29074730D01*
X21625206Y-28959180D01*
X21678388Y-28830787D01*
X21705500Y-28694486D01*
X21705500Y-28555514D01*
X21678388Y-28419213D01*
X21632811Y-28309179D01*
X21625208Y-28290824D01*
X21625202Y-28290813D01*
X21594027Y-28244158D01*
X21547998Y-28175270D01*
X21449730Y-28077002D01*
X21401062Y-28044483D01*
X21334186Y-27999797D01*
X21334175Y-27999791D01*
X21315637Y-27992113D01*
X21205787Y-27946612D01*
X21069488Y-27919500D01*
X21069486Y-27919500D01*
X20930514Y-27919500D01*
X20930511Y-27919500D01*
X20794213Y-27946612D01*
X20794211Y-27946612D01*
X20665824Y-27999791D01*
X20665813Y-27999797D01*
X20550270Y-28077002D01*
X20550266Y-28077005D01*
X20452005Y-28175266D01*
X20452002Y-28175270D01*
X20374797Y-28290813D01*
X20374791Y-28290824D01*
X20321612Y-28419211D01*
X20321612Y-28419213D01*
X20294500Y-28555511D01*
X1000000Y-28555511D01*
X1000000Y-27905510D01*
X30994500Y-27905510D01*
X30994500Y-28044487D01*
X31021612Y-28180785D01*
X31021612Y-28180787D01*
X31074791Y-28309174D01*
X31074797Y-28309185D01*
X31121245Y-28378698D01*
X31152002Y-28424729D01*
X31250270Y-28522997D01*
X31298937Y-28555515D01*
X31365813Y-28600201D01*
X31365824Y-28600207D01*
X31413250Y-28619851D01*
X31494213Y-28653387D01*
X31630514Y-28680499D01*
X31630515Y-28680499D01*
X31769485Y-28680499D01*
X31769486Y-28680499D01*
X31905787Y-28653387D01*
X32034180Y-28600205D01*
X32149730Y-28522997D01*
X32247998Y-28424729D01*
X32325206Y-28309179D01*
X32378388Y-28180786D01*
X32405500Y-28044485D01*
X32405500Y-27905513D01*
X32378388Y-27769212D01*
X32360660Y-27726414D01*
X32325208Y-27640823D01*
X32325202Y-27640812D01*
X32289133Y-27586832D01*
X32247998Y-27525269D01*
X32149730Y-27427001D01*
X32103699Y-27396244D01*
X32034186Y-27349796D01*
X32034175Y-27349790D01*
X31905787Y-27296611D01*
X31769488Y-27269499D01*
X31769486Y-27269499D01*
X31630514Y-27269499D01*
X31630511Y-27269499D01*
X31494213Y-27296611D01*
X31494211Y-27296611D01*
X31365824Y-27349790D01*
X31365813Y-27349796D01*
X31250270Y-27427001D01*
X31250266Y-27427004D01*
X31152005Y-27525265D01*
X31152002Y-27525269D01*
X31074797Y-27640812D01*
X31074791Y-27640823D01*
X31021612Y-27769210D01*
X31021612Y-27769212D01*
X30994500Y-27905510D01*
X1000000Y-27905510D01*
X1000000Y-26605511D01*
X20794500Y-26605511D01*
X20794500Y-26744488D01*
X20821612Y-26880786D01*
X20821612Y-26880788D01*
X20874791Y-27009175D01*
X20874797Y-27009186D01*
X20918379Y-27074409D01*
X20952002Y-27124730D01*
X21050270Y-27222998D01*
X21119158Y-27269027D01*
X21165813Y-27300202D01*
X21165824Y-27300208D01*
X21213250Y-27319852D01*
X21294213Y-27353388D01*
X21430514Y-27380500D01*
X21430515Y-27380500D01*
X21569485Y-27380500D01*
X21569486Y-27380500D01*
X21705787Y-27353388D01*
X21834180Y-27300206D01*
X21949730Y-27222998D01*
X22047998Y-27124730D01*
X22125206Y-27009180D01*
X22159831Y-26925587D01*
X25244500Y-26925587D01*
X25244500Y-27074412D01*
X25273533Y-27220370D01*
X25273533Y-27220372D01*
X25330481Y-27357859D01*
X25330487Y-27357870D01*
X25376680Y-27427001D01*
X25413164Y-27481603D01*
X25518397Y-27586836D01*
X25592167Y-27636127D01*
X25642129Y-27669512D01*
X25642140Y-27669518D01*
X25692928Y-27690554D01*
X25779629Y-27726467D01*
X25925590Y-27755500D01*
X25925591Y-27755500D01*
X26074409Y-27755500D01*
X26074410Y-27755500D01*
X26220371Y-27726467D01*
X26357864Y-27669516D01*
X26481603Y-27586836D01*
X26586836Y-27481603D01*
X26669516Y-27357864D01*
X26726467Y-27220371D01*
X26755500Y-27074410D01*
X26755500Y-26925590D01*
X26726467Y-26779629D01*
X26669516Y-26642136D01*
X26669515Y-26642134D01*
X26669512Y-26642129D01*
X26623319Y-26572998D01*
X26586836Y-26518397D01*
X26481603Y-26413164D01*
X26432310Y-26380227D01*
X26357870Y-26330487D01*
X26357859Y-26330481D01*
X26220371Y-26273533D01*
X26074412Y-26244500D01*
X26074410Y-26244500D01*
X25925590Y-26244500D01*
X25925587Y-26244500D01*
X25779629Y-26273533D01*
X25779627Y-26273533D01*
X25642140Y-26330481D01*
X25642129Y-26330487D01*
X25518397Y-26413164D01*
X25518393Y-26413167D01*
X25413167Y-26518393D01*
X25413164Y-26518397D01*
X25330487Y-26642129D01*
X25330481Y-26642140D01*
X25273533Y-26779627D01*
X25273533Y-26779629D01*
X25244500Y-26925587D01*
X22159831Y-26925587D01*
X22178388Y-26880787D01*
X22205500Y-26744486D01*
X22205500Y-26605514D01*
X22178388Y-26469213D01*
X22155172Y-26413164D01*
X22125208Y-26340824D01*
X22125202Y-26340813D01*
X22080246Y-26273533D01*
X22047998Y-26225270D01*
X21949730Y-26127002D01*
X21880135Y-26080500D01*
X21834186Y-26049797D01*
X21834175Y-26049791D01*
X21705787Y-25996612D01*
X21569488Y-25969500D01*
X21569486Y-25969500D01*
X21430514Y-25969500D01*
X21430511Y-25969500D01*
X21294213Y-25996612D01*
X21294211Y-25996612D01*
X21165824Y-26049791D01*
X21165813Y-26049797D01*
X21050270Y-26127002D01*
X21050266Y-26127005D01*
X20952005Y-26225266D01*
X20952002Y-26225270D01*
X20874797Y-26340813D01*
X20874791Y-26340824D01*
X20821612Y-26469211D01*
X20821612Y-26469213D01*
X20794500Y-26605511D01*
X1000000Y-26605511D01*
X1000000Y-24930511D01*
X5094500Y-24930511D01*
X5094500Y-25069488D01*
X5121612Y-25205786D01*
X5121612Y-25205788D01*
X5174791Y-25334175D01*
X5174797Y-25334186D01*
X5218634Y-25399791D01*
X5252002Y-25449730D01*
X5350270Y-25547998D01*
X5399344Y-25580788D01*
X5465813Y-25625202D01*
X5465824Y-25625208D01*
X5513250Y-25644852D01*
X5594213Y-25678388D01*
X5730514Y-25705500D01*
X5730515Y-25705500D01*
X5869485Y-25705500D01*
X5869486Y-25705500D01*
X6005787Y-25678388D01*
X6134180Y-25625206D01*
X6249730Y-25547998D01*
X6347998Y-25449730D01*
X6425206Y-25334180D01*
X6478388Y-25205787D01*
X6505500Y-25069486D01*
X6505500Y-24930514D01*
X6505499Y-24930511D01*
X9494500Y-24930511D01*
X9494500Y-25069488D01*
X9521612Y-25205786D01*
X9521612Y-25205788D01*
X9574791Y-25334175D01*
X9574797Y-25334186D01*
X9618634Y-25399791D01*
X9652002Y-25449730D01*
X9750270Y-25547998D01*
X9799344Y-25580788D01*
X9865813Y-25625202D01*
X9865824Y-25625208D01*
X9913250Y-25644852D01*
X9994213Y-25678388D01*
X10130514Y-25705500D01*
X10130515Y-25705500D01*
X10269485Y-25705500D01*
X10269486Y-25705500D01*
X10405787Y-25678388D01*
X10534180Y-25625206D01*
X10649730Y-25547998D01*
X10747998Y-25449730D01*
X10825206Y-25334180D01*
X10878388Y-25205787D01*
X10905500Y-25069486D01*
X10905500Y-24930514D01*
X10878388Y-24794213D01*
X10839928Y-24701361D01*
X10834615Y-24688535D01*
X10825208Y-24665824D01*
X10825202Y-24665813D01*
X10818318Y-24655511D01*
X20794500Y-24655511D01*
X20794500Y-24794488D01*
X20821612Y-24930786D01*
X20821612Y-24930788D01*
X20874791Y-25059175D01*
X20874797Y-25059186D01*
X20921245Y-25128699D01*
X20952002Y-25174730D01*
X21050270Y-25272998D01*
X21098934Y-25305514D01*
X21165813Y-25350202D01*
X21165824Y-25350208D01*
X21213250Y-25369852D01*
X21294213Y-25403388D01*
X21430514Y-25430500D01*
X21430515Y-25430500D01*
X21569485Y-25430500D01*
X21569486Y-25430500D01*
X21705787Y-25403388D01*
X21834180Y-25350206D01*
X21901071Y-25305511D01*
X30294500Y-25305511D01*
X30294500Y-25444488D01*
X30321612Y-25580786D01*
X30321612Y-25580788D01*
X30374791Y-25709175D01*
X30374797Y-25709186D01*
X30421245Y-25778699D01*
X30452002Y-25824730D01*
X30550270Y-25922998D01*
X30619158Y-25969027D01*
X30665813Y-26000202D01*
X30665824Y-26000208D01*
X30713250Y-26019852D01*
X30794213Y-26053388D01*
X30930514Y-26080500D01*
X30930515Y-26080500D01*
X31069485Y-26080500D01*
X31069486Y-26080500D01*
X31205787Y-26053388D01*
X31334180Y-26000206D01*
X31401071Y-25955511D01*
X33294500Y-25955511D01*
X33294500Y-26094488D01*
X33321612Y-26230786D01*
X33321612Y-26230788D01*
X33374791Y-26359175D01*
X33374797Y-26359186D01*
X33410865Y-26413164D01*
X33452002Y-26474730D01*
X33550270Y-26572998D01*
X33619158Y-26619027D01*
X33665813Y-26650202D01*
X33665824Y-26650208D01*
X33713250Y-26669852D01*
X33794213Y-26703388D01*
X33930514Y-26730500D01*
X33930515Y-26730500D01*
X34069485Y-26730500D01*
X34069486Y-26730500D01*
X34205787Y-26703388D01*
X34334180Y-26650206D01*
X34401071Y-26605511D01*
X35294500Y-26605511D01*
X35294500Y-26744488D01*
X35321612Y-26880786D01*
X35321612Y-26880788D01*
X35374791Y-27009175D01*
X35374797Y-27009186D01*
X35418379Y-27074409D01*
X35452002Y-27124730D01*
X35550270Y-27222998D01*
X35619158Y-27269027D01*
X35665813Y-27300202D01*
X35665824Y-27300208D01*
X35713250Y-27319852D01*
X35794213Y-27353388D01*
X35930514Y-27380500D01*
X35930515Y-27380500D01*
X36069485Y-27380500D01*
X36069486Y-27380500D01*
X36205787Y-27353388D01*
X36334180Y-27300206D01*
X36449730Y-27222998D01*
X36547998Y-27124730D01*
X36625206Y-27009180D01*
X36678388Y-26880787D01*
X36705500Y-26744486D01*
X36705500Y-26605514D01*
X36678388Y-26469213D01*
X36655172Y-26413164D01*
X36625208Y-26340824D01*
X36625202Y-26340813D01*
X36580246Y-26273533D01*
X36547998Y-26225270D01*
X36449730Y-26127002D01*
X36380135Y-26080500D01*
X36334186Y-26049797D01*
X36334175Y-26049791D01*
X36205787Y-25996612D01*
X36069488Y-25969500D01*
X36069486Y-25969500D01*
X35930514Y-25969500D01*
X35930511Y-25969500D01*
X35794213Y-25996612D01*
X35794211Y-25996612D01*
X35665824Y-26049791D01*
X35665813Y-26049797D01*
X35550270Y-26127002D01*
X35550266Y-26127005D01*
X35452005Y-26225266D01*
X35452002Y-26225270D01*
X35374797Y-26340813D01*
X35374791Y-26340824D01*
X35321612Y-26469211D01*
X35321612Y-26469213D01*
X35294500Y-26605511D01*
X34401071Y-26605511D01*
X34449730Y-26572998D01*
X34547998Y-26474730D01*
X34625206Y-26359180D01*
X34678388Y-26230787D01*
X34705500Y-26094486D01*
X34705500Y-25955514D01*
X34678388Y-25819213D01*
X34660660Y-25776415D01*
X34625208Y-25690824D01*
X34625202Y-25690813D01*
X34581361Y-25625202D01*
X34547998Y-25575270D01*
X34449730Y-25477002D01*
X34380135Y-25430500D01*
X34334186Y-25399797D01*
X34334175Y-25399791D01*
X34205787Y-25346612D01*
X34069488Y-25319500D01*
X34069486Y-25319500D01*
X33930514Y-25319500D01*
X33930511Y-25319500D01*
X33794213Y-25346612D01*
X33794211Y-25346612D01*
X33665824Y-25399791D01*
X33665813Y-25399797D01*
X33550270Y-25477002D01*
X33550266Y-25477005D01*
X33452005Y-25575266D01*
X33452002Y-25575270D01*
X33374797Y-25690813D01*
X33374791Y-25690824D01*
X33321612Y-25819211D01*
X33321612Y-25819213D01*
X33294500Y-25955511D01*
X31401071Y-25955511D01*
X31449730Y-25922998D01*
X31547998Y-25824730D01*
X31625206Y-25709180D01*
X31672106Y-25595952D01*
X31711843Y-25549428D01*
X31716684Y-25546645D01*
X40363630Y-20898912D01*
X40423837Y-20888017D01*
X40478950Y-20914591D01*
X40507918Y-20968485D01*
X40509500Y-20986115D01*
X40509500Y-49024710D01*
X40490593Y-49082901D01*
X40441093Y-49118865D01*
X40379907Y-49118865D01*
X40364481Y-49112364D01*
X36714327Y-47196032D01*
X36671594Y-47152243D01*
X36668882Y-47146263D01*
X36625208Y-47040824D01*
X36625202Y-47040813D01*
X36594027Y-46994158D01*
X36547998Y-46925270D01*
X36449730Y-46827002D01*
X36401063Y-46794484D01*
X36334186Y-46749797D01*
X36334175Y-46749791D01*
X36205787Y-46696612D01*
X36069488Y-46669500D01*
X36069486Y-46669500D01*
X35930514Y-46669500D01*
X35930511Y-46669500D01*
X35794213Y-46696612D01*
X35794211Y-46696612D01*
X35665824Y-46749791D01*
X35665813Y-46749797D01*
X35550270Y-46827002D01*
X35550266Y-46827005D01*
X35452005Y-46925266D01*
X35452002Y-46925270D01*
X35374797Y-47040813D01*
X35374791Y-47040824D01*
X35321612Y-47169211D01*
X35321612Y-47169213D01*
X35294500Y-47305511D01*
X35294500Y-47444488D01*
X35321612Y-47580786D01*
X35321612Y-47580788D01*
X35374791Y-47709175D01*
X35374797Y-47709186D01*
X35421245Y-47778699D01*
X35452002Y-47824730D01*
X35550270Y-47922998D01*
X35598934Y-47955514D01*
X35665813Y-48000202D01*
X35665824Y-48000208D01*
X35713250Y-48019852D01*
X35794213Y-48053388D01*
X35930514Y-48080500D01*
X35930515Y-48080500D01*
X36069485Y-48080500D01*
X36069486Y-48080500D01*
X36194053Y-48055722D01*
X36254814Y-48062914D01*
X36259386Y-48065166D01*
X40761525Y-50428788D01*
X40764980Y-50430691D01*
X40810674Y-50457074D01*
X40810678Y-50457075D01*
X40815937Y-50459253D01*
X40823842Y-50462343D01*
X40829176Y-50464306D01*
X40880641Y-50475903D01*
X40884503Y-50476855D01*
X40935423Y-50490500D01*
X40941035Y-50491238D01*
X40949526Y-50492183D01*
X40955163Y-50492696D01*
X40955165Y-50492697D01*
X40955166Y-50492696D01*
X40955167Y-50492697D01*
X40996978Y-50491017D01*
X41007865Y-50490579D01*
X41011839Y-50490500D01*
X41064578Y-50490500D01*
X41070215Y-50489757D01*
X41078641Y-50488476D01*
X41084206Y-50487514D01*
X41084208Y-50487513D01*
X41084212Y-50487513D01*
X41134572Y-50471826D01*
X41138381Y-50470724D01*
X41162334Y-50464306D01*
X41189326Y-50457074D01*
X41189331Y-50457071D01*
X41194635Y-50454874D01*
X41202263Y-50451533D01*
X41207517Y-50449106D01*
X41207521Y-50449105D01*
X41252110Y-50420915D01*
X41255465Y-50418886D01*
X41301174Y-50392498D01*
X41301179Y-50392492D01*
X41305696Y-50389027D01*
X41312311Y-50383737D01*
X41316682Y-50380095D01*
X41316687Y-50380092D01*
X41352459Y-50341323D01*
X41355189Y-50338481D01*
X41392498Y-50301174D01*
X41392503Y-50301164D01*
X41395997Y-50296613D01*
X41400924Y-50289918D01*
X41404268Y-50285178D01*
X41404267Y-50285178D01*
X41404270Y-50285176D01*
X41428790Y-50238468D01*
X41430665Y-50235064D01*
X41457074Y-50189326D01*
X41457074Y-50189323D01*
X41459248Y-50184075D01*
X41462314Y-50176232D01*
X41464303Y-50170826D01*
X41464304Y-50170825D01*
X41475907Y-50119331D01*
X41476822Y-50115616D01*
X41490500Y-50064576D01*
X41490500Y-50064571D01*
X41491234Y-50058996D01*
X41492187Y-50050433D01*
X41492697Y-50044832D01*
X41490580Y-49992144D01*
X41490500Y-49988169D01*
X41490500Y-32443890D01*
X42099500Y-32443890D01*
X42099500Y-34316110D01*
X42110276Y-34390072D01*
X42166049Y-34504157D01*
X42255843Y-34593951D01*
X42369928Y-34649724D01*
X42443890Y-34660500D01*
X42630345Y-34660500D01*
X42688536Y-34679407D01*
X42724500Y-34728907D01*
X42724500Y-34790093D01*
X42688537Y-34839591D01*
X42606463Y-34899222D01*
X42545811Y-34943288D01*
X42403288Y-35085811D01*
X42284816Y-35248873D01*
X42193314Y-35428457D01*
X42131028Y-35620153D01*
X42099500Y-35819218D01*
X42099500Y-36020781D01*
X42131028Y-36219846D01*
X42193314Y-36411542D01*
X42270632Y-36563289D01*
X42284818Y-36591129D01*
X42403289Y-36754190D01*
X42545810Y-36896711D01*
X42708871Y-37015182D01*
X42708873Y-37015183D01*
X42878849Y-37101790D01*
X42922114Y-37145055D01*
X42931685Y-37205487D01*
X42903908Y-37260004D01*
X42878849Y-37278210D01*
X42708873Y-37364816D01*
X42545811Y-37483288D01*
X42403288Y-37625811D01*
X42284816Y-37788873D01*
X42193314Y-37968457D01*
X42131028Y-38160153D01*
X42099500Y-38359218D01*
X42099500Y-38560781D01*
X42131028Y-38759846D01*
X42193314Y-38951542D01*
X42271090Y-39104188D01*
X42284818Y-39131129D01*
X42403289Y-39294190D01*
X42545810Y-39436711D01*
X42708871Y-39555182D01*
X42708873Y-39555183D01*
X42878849Y-39641790D01*
X42922114Y-39685055D01*
X42931685Y-39745487D01*
X42903908Y-39800004D01*
X42878849Y-39818210D01*
X42708873Y-39904816D01*
X42545811Y-40023288D01*
X42403288Y-40165811D01*
X42284816Y-40328873D01*
X42193314Y-40508457D01*
X42131028Y-40700153D01*
X42099500Y-40899218D01*
X42099500Y-41100781D01*
X42131028Y-41299846D01*
X42193314Y-41491542D01*
X42282112Y-41665820D01*
X42284818Y-41671129D01*
X42403289Y-41834190D01*
X42545810Y-41976711D01*
X42708871Y-42095182D01*
X42708873Y-42095183D01*
X42878849Y-42181790D01*
X42922114Y-42225055D01*
X42931685Y-42285487D01*
X42903908Y-42340004D01*
X42878849Y-42358210D01*
X42708873Y-42444816D01*
X42545811Y-42563288D01*
X42403288Y-42705811D01*
X42284816Y-42868873D01*
X42193314Y-43048457D01*
X42131028Y-43240153D01*
X42099500Y-43439218D01*
X42099500Y-43640781D01*
X42131028Y-43839846D01*
X42131030Y-43839851D01*
X42193314Y-44031542D01*
X42284818Y-44211129D01*
X42403289Y-44374190D01*
X42545810Y-44516711D01*
X42708871Y-44635182D01*
X42708873Y-44635183D01*
X42878849Y-44721790D01*
X42922114Y-44765055D01*
X42931685Y-44825487D01*
X42903908Y-44880004D01*
X42878849Y-44898210D01*
X42708873Y-44984816D01*
X42545811Y-45103288D01*
X42403288Y-45245811D01*
X42284816Y-45408873D01*
X42193314Y-45588457D01*
X42131028Y-45780153D01*
X42099500Y-45979218D01*
X42099500Y-46180781D01*
X42131028Y-46379846D01*
X42193314Y-46571542D01*
X42284137Y-46749794D01*
X42284818Y-46751129D01*
X42403289Y-46914190D01*
X42545810Y-47056711D01*
X42708871Y-47175182D01*
X42787399Y-47215194D01*
X42878849Y-47261790D01*
X42922114Y-47305055D01*
X42931685Y-47365487D01*
X42903908Y-47420004D01*
X42878849Y-47438210D01*
X42708873Y-47524816D01*
X42545811Y-47643288D01*
X42403288Y-47785811D01*
X42284816Y-47948873D01*
X42193314Y-48128457D01*
X42131028Y-48320153D01*
X42099500Y-48519218D01*
X42099500Y-48720781D01*
X42131028Y-48919846D01*
X42193314Y-49111542D01*
X42253933Y-49230515D01*
X42284818Y-49291129D01*
X42403289Y-49454190D01*
X42545810Y-49596711D01*
X42708871Y-49715182D01*
X42888458Y-49806686D01*
X43080149Y-49868970D01*
X43080150Y-49868970D01*
X43080153Y-49868971D01*
X43279219Y-49900500D01*
X43279222Y-49900500D01*
X43480781Y-49900500D01*
X43679846Y-49868971D01*
X43679847Y-49868970D01*
X43679851Y-49868970D01*
X43871542Y-49806686D01*
X44051129Y-49715182D01*
X44214190Y-49596711D01*
X44356711Y-49454190D01*
X44475182Y-49291129D01*
X44566686Y-49111542D01*
X44628970Y-48919851D01*
X44635157Y-48880787D01*
X44660500Y-48720781D01*
X44660500Y-48519218D01*
X44628971Y-48320153D01*
X44616218Y-48280903D01*
X44566686Y-48128458D01*
X44475182Y-47948871D01*
X44356711Y-47785810D01*
X44214190Y-47643289D01*
X44051129Y-47524818D01*
X44051128Y-47524817D01*
X44051126Y-47524816D01*
X43967548Y-47482231D01*
X43881149Y-47438209D01*
X43837885Y-47394945D01*
X43828314Y-47334513D01*
X43856091Y-47279997D01*
X43881147Y-47261791D01*
X44051129Y-47175182D01*
X44214190Y-47056711D01*
X44356711Y-46914190D01*
X44475182Y-46751129D01*
X44566686Y-46571542D01*
X44628970Y-46379851D01*
X44660500Y-46180778D01*
X44660500Y-45979222D01*
X44660500Y-45979218D01*
X44628971Y-45780153D01*
X44628970Y-45780149D01*
X44566686Y-45588458D01*
X44475182Y-45408871D01*
X44356711Y-45245810D01*
X44214190Y-45103289D01*
X44051129Y-44984818D01*
X44051128Y-44984817D01*
X44051126Y-44984816D01*
X43967548Y-44942231D01*
X43881149Y-44898209D01*
X43837885Y-44854945D01*
X43828314Y-44794513D01*
X43856091Y-44739997D01*
X43881147Y-44721791D01*
X44051129Y-44635182D01*
X44214190Y-44516711D01*
X44356711Y-44374190D01*
X44475182Y-44211129D01*
X44566686Y-44031542D01*
X44628970Y-43839851D01*
X44660500Y-43640778D01*
X44660500Y-43439222D01*
X44660500Y-43439218D01*
X44628971Y-43240153D01*
X44628970Y-43240149D01*
X44566686Y-43048458D01*
X44475182Y-42868871D01*
X44356711Y-42705810D01*
X44214190Y-42563289D01*
X44051129Y-42444818D01*
X44051128Y-42444817D01*
X44051126Y-42444816D01*
X43967548Y-42402231D01*
X43881149Y-42358209D01*
X43837885Y-42314945D01*
X43828314Y-42254513D01*
X43856091Y-42199997D01*
X43881147Y-42181791D01*
X44051129Y-42095182D01*
X44214190Y-41976711D01*
X44356711Y-41834190D01*
X44475182Y-41671129D01*
X44566686Y-41491542D01*
X44628970Y-41299851D01*
X44660500Y-41100778D01*
X44660500Y-40899222D01*
X44660500Y-40899218D01*
X44628971Y-40700153D01*
X44628970Y-40700149D01*
X44566686Y-40508458D01*
X44475182Y-40328871D01*
X44356711Y-40165810D01*
X44214190Y-40023289D01*
X44051129Y-39904818D01*
X44051128Y-39904817D01*
X44051126Y-39904816D01*
X43967548Y-39862231D01*
X43881149Y-39818209D01*
X43837885Y-39774945D01*
X43828314Y-39714513D01*
X43856091Y-39659997D01*
X43881147Y-39641791D01*
X44051129Y-39555182D01*
X44214190Y-39436711D01*
X44356711Y-39294190D01*
X44475182Y-39131129D01*
X44566686Y-38951542D01*
X44628970Y-38759851D01*
X44634223Y-38726685D01*
X44660500Y-38560781D01*
X44660500Y-38359218D01*
X44628971Y-38160153D01*
X44587183Y-38031542D01*
X44566686Y-37968458D01*
X44475182Y-37788871D01*
X44356711Y-37625810D01*
X44214190Y-37483289D01*
X44051129Y-37364818D01*
X44051128Y-37364817D01*
X44051126Y-37364816D01*
X43910743Y-37293288D01*
X43881149Y-37278209D01*
X43837885Y-37234945D01*
X43828314Y-37174513D01*
X43856091Y-37119997D01*
X43881147Y-37101791D01*
X44051129Y-37015182D01*
X44214190Y-36896711D01*
X44356711Y-36754190D01*
X44475182Y-36591129D01*
X44566686Y-36411542D01*
X44628970Y-36219851D01*
X44634223Y-36186686D01*
X44660500Y-36020781D01*
X44660500Y-35819218D01*
X44628971Y-35620153D01*
X44587183Y-35491542D01*
X44566686Y-35428458D01*
X44475182Y-35248871D01*
X44356711Y-35085810D01*
X44214190Y-34943289D01*
X44071462Y-34839591D01*
X44035500Y-34790093D01*
X44035500Y-34728907D01*
X44071464Y-34679407D01*
X44129655Y-34660500D01*
X44316106Y-34660500D01*
X44316110Y-34660500D01*
X44390072Y-34649724D01*
X44504157Y-34593951D01*
X44593951Y-34504157D01*
X44649724Y-34390072D01*
X44660500Y-34316110D01*
X44660500Y-33279218D01*
X57339500Y-33279218D01*
X57339500Y-33480781D01*
X57371028Y-33679846D01*
X57433314Y-33871542D01*
X57510632Y-34023289D01*
X57524818Y-34051129D01*
X57643289Y-34214190D01*
X57785810Y-34356711D01*
X57948871Y-34475182D01*
X57948873Y-34475183D01*
X58118849Y-34561790D01*
X58162114Y-34605055D01*
X58171685Y-34665487D01*
X58143908Y-34720004D01*
X58118849Y-34738210D01*
X57948873Y-34824816D01*
X57785811Y-34943288D01*
X57643288Y-35085811D01*
X57524816Y-35248873D01*
X57433314Y-35428457D01*
X57371028Y-35620153D01*
X57339500Y-35819218D01*
X57339500Y-36020781D01*
X57371028Y-36219846D01*
X57433314Y-36411542D01*
X57510632Y-36563289D01*
X57524818Y-36591129D01*
X57643289Y-36754190D01*
X57785810Y-36896711D01*
X57948871Y-37015182D01*
X57948873Y-37015183D01*
X58118849Y-37101790D01*
X58162114Y-37145055D01*
X58171685Y-37205487D01*
X58143908Y-37260004D01*
X58118849Y-37278210D01*
X57948873Y-37364816D01*
X57785811Y-37483288D01*
X57643288Y-37625811D01*
X57524816Y-37788873D01*
X57433314Y-37968457D01*
X57371028Y-38160153D01*
X57339500Y-38359218D01*
X57339500Y-38560781D01*
X57371028Y-38759846D01*
X57433314Y-38951542D01*
X57511090Y-39104188D01*
X57524818Y-39131129D01*
X57643289Y-39294190D01*
X57785810Y-39436711D01*
X57948871Y-39555182D01*
X57948873Y-39555183D01*
X58118849Y-39641790D01*
X58162114Y-39685055D01*
X58171685Y-39745487D01*
X58143908Y-39800004D01*
X58118849Y-39818210D01*
X57948873Y-39904816D01*
X57785811Y-40023288D01*
X57643288Y-40165811D01*
X57524816Y-40328873D01*
X57433314Y-40508457D01*
X57371028Y-40700153D01*
X57339500Y-40899218D01*
X57339500Y-41100781D01*
X57371028Y-41299846D01*
X57433314Y-41491542D01*
X57522112Y-41665820D01*
X57524818Y-41671129D01*
X57643289Y-41834190D01*
X57785810Y-41976711D01*
X57948871Y-42095182D01*
X57948873Y-42095183D01*
X58118849Y-42181790D01*
X58162114Y-42225055D01*
X58171685Y-42285487D01*
X58143908Y-42340004D01*
X58118849Y-42358210D01*
X57948873Y-42444816D01*
X57785811Y-42563288D01*
X57643288Y-42705811D01*
X57524816Y-42868873D01*
X57433314Y-43048457D01*
X57371028Y-43240153D01*
X57339500Y-43439218D01*
X57339500Y-43640781D01*
X57371028Y-43839846D01*
X57371030Y-43839851D01*
X57433314Y-44031542D01*
X57524818Y-44211129D01*
X57643289Y-44374190D01*
X57785810Y-44516711D01*
X57948871Y-44635182D01*
X57948873Y-44635183D01*
X58118849Y-44721790D01*
X58162114Y-44765055D01*
X58171685Y-44825487D01*
X58143908Y-44880004D01*
X58118849Y-44898210D01*
X57948873Y-44984816D01*
X57785811Y-45103288D01*
X57643288Y-45245811D01*
X57524816Y-45408873D01*
X57433314Y-45588457D01*
X57371028Y-45780153D01*
X57339500Y-45979218D01*
X57339500Y-46180781D01*
X57371028Y-46379846D01*
X57433314Y-46571542D01*
X57524137Y-46749794D01*
X57524818Y-46751129D01*
X57643289Y-46914190D01*
X57785810Y-47056711D01*
X57948871Y-47175182D01*
X58027399Y-47215194D01*
X58118849Y-47261790D01*
X58162114Y-47305055D01*
X58171685Y-47365487D01*
X58143908Y-47420004D01*
X58118849Y-47438210D01*
X57948873Y-47524816D01*
X57785811Y-47643288D01*
X57643288Y-47785811D01*
X57524816Y-47948873D01*
X57433314Y-48128457D01*
X57371028Y-48320153D01*
X57339500Y-48519218D01*
X57339500Y-48720781D01*
X57371028Y-48919846D01*
X57433314Y-49111542D01*
X57493933Y-49230515D01*
X57524818Y-49291129D01*
X57643289Y-49454190D01*
X57785810Y-49596711D01*
X57948871Y-49715182D01*
X58128458Y-49806686D01*
X58320149Y-49868970D01*
X58320150Y-49868970D01*
X58320153Y-49868971D01*
X58519219Y-49900500D01*
X58519222Y-49900500D01*
X58720781Y-49900500D01*
X58919846Y-49868971D01*
X58919847Y-49868970D01*
X58919851Y-49868970D01*
X59111542Y-49806686D01*
X59291129Y-49715182D01*
X59454190Y-49596711D01*
X59596711Y-49454190D01*
X59715182Y-49291129D01*
X59806686Y-49111542D01*
X59868970Y-48919851D01*
X59875157Y-48880787D01*
X59900500Y-48720781D01*
X59900500Y-48519218D01*
X59868970Y-48320147D01*
X59856218Y-48280903D01*
X59847441Y-48253890D01*
X85719500Y-48253890D01*
X85719500Y-50126110D01*
X85730276Y-50200072D01*
X85786049Y-50314157D01*
X85875843Y-50403951D01*
X85989928Y-50459724D01*
X86063890Y-50470500D01*
X86250345Y-50470500D01*
X86308536Y-50489407D01*
X86344500Y-50538907D01*
X86344500Y-50600093D01*
X86308537Y-50649591D01*
X86231587Y-50705499D01*
X86165811Y-50753288D01*
X86023288Y-50895811D01*
X85904816Y-51058873D01*
X85813314Y-51238457D01*
X85751028Y-51430153D01*
X85719500Y-51629218D01*
X85719500Y-51830781D01*
X85751028Y-52029846D01*
X85751030Y-52029851D01*
X85813314Y-52221542D01*
X85904818Y-52401129D01*
X86023289Y-52564190D01*
X86165810Y-52706711D01*
X86328871Y-52825182D01*
X86328873Y-52825183D01*
X86498849Y-52911790D01*
X86542114Y-52955055D01*
X86551685Y-53015487D01*
X86523908Y-53070004D01*
X86498849Y-53088210D01*
X86328873Y-53174816D01*
X86165811Y-53293288D01*
X86023288Y-53435811D01*
X85904816Y-53598873D01*
X85813314Y-53778457D01*
X85751028Y-53970153D01*
X85719500Y-54169218D01*
X85719500Y-54370781D01*
X85751028Y-54569846D01*
X85762184Y-54604180D01*
X85813314Y-54761542D01*
X85904818Y-54941129D01*
X86023289Y-55104190D01*
X86165810Y-55246711D01*
X86328871Y-55365182D01*
X86328873Y-55365183D01*
X86498849Y-55451790D01*
X86542114Y-55495055D01*
X86551685Y-55555487D01*
X86523908Y-55610004D01*
X86498849Y-55628210D01*
X86328873Y-55714816D01*
X86165811Y-55833288D01*
X86023288Y-55975811D01*
X85904816Y-56138873D01*
X85813314Y-56318457D01*
X85751028Y-56510153D01*
X85719500Y-56709218D01*
X85719500Y-56910781D01*
X85751028Y-57109846D01*
X85751030Y-57109851D01*
X85813314Y-57301542D01*
X85904818Y-57481129D01*
X86023289Y-57644190D01*
X86165810Y-57786711D01*
X86328871Y-57905182D01*
X86508458Y-57996686D01*
X86700149Y-58058970D01*
X86700150Y-58058970D01*
X86700153Y-58058971D01*
X86899219Y-58090500D01*
X86899222Y-58090500D01*
X87100781Y-58090500D01*
X87299846Y-58058971D01*
X87299847Y-58058970D01*
X87299851Y-58058970D01*
X87491542Y-57996686D01*
X87671129Y-57905182D01*
X87834190Y-57786711D01*
X87976711Y-57644190D01*
X88095182Y-57481129D01*
X88186686Y-57301542D01*
X88248970Y-57109851D01*
X88280500Y-56910778D01*
X88280500Y-56709222D01*
X88280500Y-56709218D01*
X88248971Y-56510153D01*
X88248970Y-56510149D01*
X88186686Y-56318458D01*
X88095182Y-56138871D01*
X87976711Y-55975810D01*
X87834190Y-55833289D01*
X87671129Y-55714818D01*
X87671128Y-55714817D01*
X87671126Y-55714816D01*
X87587548Y-55672231D01*
X87501149Y-55628209D01*
X87457885Y-55584945D01*
X87448314Y-55524513D01*
X87476091Y-55469997D01*
X87501147Y-55451791D01*
X87671129Y-55365182D01*
X87834190Y-55246711D01*
X87976711Y-55104190D01*
X88095182Y-54941129D01*
X88186686Y-54761542D01*
X88248970Y-54569851D01*
X88263868Y-54475788D01*
X88280500Y-54370781D01*
X88280500Y-54169218D01*
X88248971Y-53970153D01*
X88237817Y-53935824D01*
X88186686Y-53778458D01*
X88095182Y-53598871D01*
X87976711Y-53435810D01*
X87834190Y-53293289D01*
X87671129Y-53174818D01*
X87671128Y-53174817D01*
X87671126Y-53174816D01*
X87587548Y-53132231D01*
X87501149Y-53088209D01*
X87457885Y-53044945D01*
X87448314Y-52984513D01*
X87476091Y-52929997D01*
X87501147Y-52911791D01*
X87671129Y-52825182D01*
X87834190Y-52706711D01*
X87976711Y-52564190D01*
X88095182Y-52401129D01*
X88186686Y-52221542D01*
X88248970Y-52029851D01*
X88280500Y-51830778D01*
X88280500Y-51629222D01*
X88280500Y-51629218D01*
X88248971Y-51430153D01*
X88248970Y-51430149D01*
X88186686Y-51238458D01*
X88095182Y-51058871D01*
X87976711Y-50895810D01*
X87834190Y-50753289D01*
X87691462Y-50649591D01*
X87655500Y-50600093D01*
X87655500Y-50538907D01*
X87691464Y-50489407D01*
X87749655Y-50470500D01*
X87936106Y-50470500D01*
X87936110Y-50470500D01*
X88010072Y-50459724D01*
X88124157Y-50403951D01*
X88213951Y-50314157D01*
X88269724Y-50200072D01*
X88280500Y-50126110D01*
X88280500Y-48253890D01*
X88269724Y-48179928D01*
X88213951Y-48065843D01*
X88124157Y-47976049D01*
X88010072Y-47920276D01*
X87936110Y-47909500D01*
X86063890Y-47909500D01*
X85989928Y-47920276D01*
X85875844Y-47976048D01*
X85786048Y-48065844D01*
X85755439Y-48128457D01*
X85730276Y-48179928D01*
X85719500Y-48253890D01*
X59847441Y-48253890D01*
X59806686Y-48128458D01*
X59715182Y-47948871D01*
X59596711Y-47785810D01*
X59454190Y-47643289D01*
X59291129Y-47524818D01*
X59291128Y-47524817D01*
X59291126Y-47524816D01*
X59207548Y-47482231D01*
X59121149Y-47438209D01*
X59077885Y-47394945D01*
X59068314Y-47334513D01*
X59096091Y-47279997D01*
X59121147Y-47261791D01*
X59291129Y-47175182D01*
X59454190Y-47056711D01*
X59596711Y-46914190D01*
X59715182Y-46751129D01*
X59806686Y-46571542D01*
X59868970Y-46379851D01*
X59900500Y-46180778D01*
X59900500Y-45979222D01*
X59900500Y-45979218D01*
X59868971Y-45780153D01*
X59868970Y-45780149D01*
X59806686Y-45588458D01*
X59715182Y-45408871D01*
X59596711Y-45245810D01*
X59454190Y-45103289D01*
X59291129Y-44984818D01*
X59291128Y-44984817D01*
X59291126Y-44984816D01*
X59207548Y-44942231D01*
X59121149Y-44898209D01*
X59077885Y-44854945D01*
X59068314Y-44794513D01*
X59096091Y-44739997D01*
X59121147Y-44721791D01*
X59291129Y-44635182D01*
X59454190Y-44516711D01*
X59596711Y-44374190D01*
X59715182Y-44211129D01*
X59806686Y-44031542D01*
X59868970Y-43839851D01*
X59900500Y-43640778D01*
X59900500Y-43439222D01*
X59900500Y-43439218D01*
X59868971Y-43240153D01*
X59868970Y-43240149D01*
X59806686Y-43048458D01*
X59715182Y-42868871D01*
X59596711Y-42705810D01*
X59454190Y-42563289D01*
X59291129Y-42444818D01*
X59291128Y-42444817D01*
X59291126Y-42444816D01*
X59207548Y-42402231D01*
X59121149Y-42358209D01*
X59077885Y-42314945D01*
X59068314Y-42254513D01*
X59096091Y-42199997D01*
X59121147Y-42181791D01*
X59291129Y-42095182D01*
X59454190Y-41976711D01*
X59596711Y-41834190D01*
X59715182Y-41671129D01*
X59806686Y-41491542D01*
X59868970Y-41299851D01*
X59900500Y-41100778D01*
X59900500Y-40899222D01*
X59900500Y-40899218D01*
X59868971Y-40700153D01*
X59868970Y-40700149D01*
X59806686Y-40508458D01*
X59715182Y-40328871D01*
X59596711Y-40165810D01*
X59454190Y-40023289D01*
X59291129Y-39904818D01*
X59291128Y-39904817D01*
X59291126Y-39904816D01*
X59207548Y-39862231D01*
X59121149Y-39818209D01*
X59077885Y-39774945D01*
X59068314Y-39714513D01*
X59096091Y-39659997D01*
X59121147Y-39641791D01*
X59291129Y-39555182D01*
X59454190Y-39436711D01*
X59596711Y-39294190D01*
X59715182Y-39131129D01*
X59806686Y-38951542D01*
X59868970Y-38759851D01*
X59874223Y-38726685D01*
X59900500Y-38560781D01*
X59900500Y-38359218D01*
X59868971Y-38160153D01*
X59827183Y-38031542D01*
X59806686Y-37968458D01*
X59715182Y-37788871D01*
X59596711Y-37625810D01*
X59454190Y-37483289D01*
X59291129Y-37364818D01*
X59291128Y-37364817D01*
X59291126Y-37364816D01*
X59150743Y-37293288D01*
X59121149Y-37278209D01*
X59077885Y-37234945D01*
X59068314Y-37174513D01*
X59096091Y-37119997D01*
X59121147Y-37101791D01*
X59291129Y-37015182D01*
X59454190Y-36896711D01*
X59596711Y-36754190D01*
X59715182Y-36591129D01*
X59806686Y-36411542D01*
X59868970Y-36219851D01*
X59874223Y-36186686D01*
X59900500Y-36020781D01*
X59900500Y-35819218D01*
X59868971Y-35620153D01*
X59827183Y-35491542D01*
X59806686Y-35428458D01*
X59715182Y-35248871D01*
X59596711Y-35085810D01*
X59454190Y-34943289D01*
X59291129Y-34824818D01*
X59291128Y-34824817D01*
X59291126Y-34824816D01*
X59207548Y-34782231D01*
X59121149Y-34738209D01*
X59077885Y-34694945D01*
X59068314Y-34634513D01*
X59096091Y-34579997D01*
X59121147Y-34561791D01*
X59291129Y-34475182D01*
X59454190Y-34356711D01*
X59596711Y-34214190D01*
X59715182Y-34051129D01*
X59806686Y-33871542D01*
X59868970Y-33679851D01*
X59868971Y-33679846D01*
X59900500Y-33480781D01*
X59900500Y-33279218D01*
X59868971Y-33080153D01*
X59868970Y-33080149D01*
X59806686Y-32888458D01*
X59715182Y-32708871D01*
X59596711Y-32545810D01*
X59454190Y-32403289D01*
X59291129Y-32284818D01*
X59291128Y-32284817D01*
X59291126Y-32284816D01*
X59111542Y-32193314D01*
X58919846Y-32131028D01*
X58720781Y-32099500D01*
X58720778Y-32099500D01*
X58519222Y-32099500D01*
X58519219Y-32099500D01*
X58320153Y-32131028D01*
X58128457Y-32193314D01*
X57948873Y-32284816D01*
X57785811Y-32403288D01*
X57643288Y-32545811D01*
X57524816Y-32708873D01*
X57433314Y-32888457D01*
X57371028Y-33080153D01*
X57339500Y-33279218D01*
X44660500Y-33279218D01*
X44660500Y-32443890D01*
X44649724Y-32369928D01*
X44593951Y-32255843D01*
X44504157Y-32166049D01*
X44390072Y-32110276D01*
X44316110Y-32099500D01*
X42443890Y-32099500D01*
X42369928Y-32110276D01*
X42255844Y-32166048D01*
X42166048Y-32255844D01*
X42151885Y-32284816D01*
X42110276Y-32369928D01*
X42099500Y-32443890D01*
X41490500Y-32443890D01*
X41490500Y-31523890D01*
X85719500Y-31523890D01*
X85719500Y-33396110D01*
X85730276Y-33470072D01*
X85786049Y-33584157D01*
X85875843Y-33673951D01*
X85989928Y-33729724D01*
X86063890Y-33740500D01*
X86250345Y-33740500D01*
X86308536Y-33759407D01*
X86344500Y-33808907D01*
X86344500Y-33870093D01*
X86308537Y-33919591D01*
X86204835Y-33994935D01*
X86165811Y-34023288D01*
X86023288Y-34165811D01*
X85904816Y-34328873D01*
X85813314Y-34508457D01*
X85751028Y-34700153D01*
X85719500Y-34899218D01*
X85719500Y-35100781D01*
X85751028Y-35299846D01*
X85792817Y-35428458D01*
X85813314Y-35491542D01*
X85904818Y-35671129D01*
X86023289Y-35834190D01*
X86165810Y-35976711D01*
X86328871Y-36095182D01*
X86328873Y-36095183D01*
X86498849Y-36181790D01*
X86542114Y-36225055D01*
X86551685Y-36285487D01*
X86523908Y-36340004D01*
X86498849Y-36358210D01*
X86328873Y-36444816D01*
X86165811Y-36563288D01*
X86023288Y-36705811D01*
X85904816Y-36868873D01*
X85813314Y-37048457D01*
X85751028Y-37240153D01*
X85719500Y-37439218D01*
X85719500Y-37640781D01*
X85751028Y-37839846D01*
X85813314Y-38031542D01*
X85904818Y-38211129D01*
X86023289Y-38374190D01*
X86165810Y-38516711D01*
X86328871Y-38635182D01*
X86508458Y-38726686D01*
X86700149Y-38788970D01*
X86700150Y-38788970D01*
X86700153Y-38788971D01*
X86899219Y-38820500D01*
X86899222Y-38820500D01*
X87100781Y-38820500D01*
X87299846Y-38788971D01*
X87299847Y-38788970D01*
X87299851Y-38788970D01*
X87491542Y-38726686D01*
X87671129Y-38635182D01*
X87834190Y-38516711D01*
X87976711Y-38374190D01*
X88095182Y-38211129D01*
X88186686Y-38031542D01*
X88248970Y-37839851D01*
X88257044Y-37788873D01*
X88280500Y-37640781D01*
X88280500Y-37439218D01*
X88248971Y-37240153D01*
X88247279Y-37234945D01*
X88186686Y-37048458D01*
X88095182Y-36868871D01*
X87976711Y-36705810D01*
X87834190Y-36563289D01*
X87671129Y-36444818D01*
X87671128Y-36444817D01*
X87671126Y-36444816D01*
X87587548Y-36402231D01*
X87501149Y-36358209D01*
X87457885Y-36314945D01*
X87448314Y-36254513D01*
X87476091Y-36199997D01*
X87501147Y-36181791D01*
X87671129Y-36095182D01*
X87834190Y-35976711D01*
X87976711Y-35834190D01*
X88095182Y-35671129D01*
X88186686Y-35491542D01*
X88248970Y-35299851D01*
X88257044Y-35248873D01*
X88280500Y-35100781D01*
X88280500Y-34899218D01*
X88248971Y-34700153D01*
X88247279Y-34694945D01*
X88186686Y-34508458D01*
X88095182Y-34328871D01*
X87976711Y-34165810D01*
X87834190Y-34023289D01*
X87691462Y-33919591D01*
X87655500Y-33870093D01*
X87655500Y-33808907D01*
X87691464Y-33759407D01*
X87749655Y-33740500D01*
X87936106Y-33740500D01*
X87936110Y-33740500D01*
X88010072Y-33729724D01*
X88124157Y-33673951D01*
X88213951Y-33584157D01*
X88269724Y-33470072D01*
X88280500Y-33396110D01*
X88280500Y-31523890D01*
X88269724Y-31449928D01*
X88213951Y-31335843D01*
X88124157Y-31246049D01*
X88010072Y-31190276D01*
X87936110Y-31179500D01*
X86063890Y-31179500D01*
X85989928Y-31190276D01*
X85875844Y-31246048D01*
X85786048Y-31335844D01*
X85739768Y-31430511D01*
X85730276Y-31449928D01*
X85719500Y-31523890D01*
X41490500Y-31523890D01*
X41490500Y-20589500D01*
X41509407Y-20531309D01*
X41558907Y-20495345D01*
X41589500Y-20490500D01*
X44910500Y-20490500D01*
X44968691Y-20509407D01*
X45004655Y-20558907D01*
X45009500Y-20589500D01*
X45009500Y-24451764D01*
X44990593Y-24509955D01*
X44980504Y-24521768D01*
X44952005Y-24550266D01*
X44952002Y-24550270D01*
X44874797Y-24665813D01*
X44874791Y-24665824D01*
X44821612Y-24794211D01*
X44821612Y-24794213D01*
X44794500Y-24930511D01*
X44794500Y-25069488D01*
X44821612Y-25205786D01*
X44821612Y-25205788D01*
X44874791Y-25334175D01*
X44874797Y-25334186D01*
X44918634Y-25399791D01*
X44952002Y-25449730D01*
X45050270Y-25547998D01*
X45099344Y-25580788D01*
X45165813Y-25625202D01*
X45165824Y-25625208D01*
X45213250Y-25644852D01*
X45294213Y-25678388D01*
X45430514Y-25705500D01*
X45430515Y-25705500D01*
X45569485Y-25705500D01*
X45569486Y-25705500D01*
X45705787Y-25678388D01*
X45834180Y-25625206D01*
X45949730Y-25547998D01*
X46047998Y-25449730D01*
X46125206Y-25334180D01*
X46178388Y-25205787D01*
X46205500Y-25069486D01*
X46205500Y-24930514D01*
X46178388Y-24794213D01*
X46139928Y-24701361D01*
X46125208Y-24665824D01*
X46125202Y-24665813D01*
X46094027Y-24619158D01*
X46047998Y-24550270D01*
X46019496Y-24521768D01*
X45991719Y-24467251D01*
X45990500Y-24451764D01*
X45990500Y-19935425D01*
X45990500Y-19935424D01*
X45957074Y-19810674D01*
X45957072Y-19810671D01*
X45957072Y-19810669D01*
X45892501Y-19698830D01*
X45892499Y-19698828D01*
X45892498Y-19698826D01*
X45801174Y-19607502D01*
X45801171Y-19607500D01*
X45801169Y-19607498D01*
X45689329Y-19542927D01*
X45689331Y-19542927D01*
X45660062Y-19535085D01*
X45564576Y-19509500D01*
X45564574Y-19509500D01*
X41008976Y-19509500D01*
X41005967Y-19509454D01*
X41003923Y-19509391D01*
X40950371Y-19507762D01*
X40943915Y-19508414D01*
X40943879Y-19508059D01*
X40941812Y-19508300D01*
X40941859Y-19508653D01*
X40935425Y-19509500D01*
X40935424Y-19509500D01*
X40919403Y-19513792D01*
X40881713Y-19523890D01*
X40878801Y-19524623D01*
X40824656Y-19537381D01*
X40818596Y-19539679D01*
X40818471Y-19539350D01*
X40816526Y-19540121D01*
X40816661Y-19540446D01*
X40810674Y-19542925D01*
X40775142Y-19563439D01*
X40762496Y-19570740D01*
X40759885Y-19572196D01*
X34790675Y-22780646D01*
X34730468Y-22791542D01*
X34675354Y-22764968D01*
X34652342Y-22731332D01*
X34625206Y-22665820D01*
X34625204Y-22665817D01*
X34625202Y-22665813D01*
X34594027Y-22619158D01*
X34547998Y-22550270D01*
X34449730Y-22452002D01*
X34403699Y-22421245D01*
X34334186Y-22374797D01*
X34334175Y-22374791D01*
X34205787Y-22321612D01*
X34069488Y-22294500D01*
X34069486Y-22294500D01*
X33930514Y-22294500D01*
X33930511Y-22294500D01*
X33794213Y-22321612D01*
X33794211Y-22321612D01*
X33665824Y-22374791D01*
X33665813Y-22374797D01*
X33550270Y-22452002D01*
X33550266Y-22452005D01*
X33452005Y-22550266D01*
X33452002Y-22550270D01*
X33374797Y-22665813D01*
X33374791Y-22665824D01*
X33321612Y-22794211D01*
X33321612Y-22794213D01*
X33294500Y-22930511D01*
X33294500Y-23069488D01*
X33321612Y-23205786D01*
X33321612Y-23205788D01*
X33374791Y-23334175D01*
X33374797Y-23334187D01*
X33416261Y-23396240D01*
X33432870Y-23455128D01*
X33411693Y-23512532D01*
X33380817Y-23538444D01*
X31251919Y-24682727D01*
X31191712Y-24693623D01*
X31185734Y-24692623D01*
X31069488Y-24669500D01*
X31069486Y-24669500D01*
X30930514Y-24669500D01*
X30930511Y-24669500D01*
X30794213Y-24696612D01*
X30794211Y-24696612D01*
X30665824Y-24749791D01*
X30665813Y-24749797D01*
X30550270Y-24827002D01*
X30550266Y-24827005D01*
X30452005Y-24925266D01*
X30452002Y-24925270D01*
X30374797Y-25040813D01*
X30374791Y-25040824D01*
X30321612Y-25169211D01*
X30321612Y-25169213D01*
X30294500Y-25305511D01*
X21901071Y-25305511D01*
X21949730Y-25272998D01*
X22047998Y-25174730D01*
X22125206Y-25059180D01*
X22178388Y-24930787D01*
X22205500Y-24794486D01*
X22205500Y-24655514D01*
X22178388Y-24519213D01*
X22125206Y-24390820D01*
X22125205Y-24390818D01*
X22125202Y-24390813D01*
X22094027Y-24344158D01*
X22047998Y-24275270D01*
X21949730Y-24177002D01*
X21903699Y-24146245D01*
X21834186Y-24099797D01*
X21834175Y-24099791D01*
X21705787Y-24046612D01*
X21569488Y-24019500D01*
X21569486Y-24019500D01*
X21430514Y-24019500D01*
X21430511Y-24019500D01*
X21294213Y-24046612D01*
X21294211Y-24046612D01*
X21165824Y-24099791D01*
X21165813Y-24099797D01*
X21050270Y-24177002D01*
X21050266Y-24177005D01*
X20952005Y-24275266D01*
X20952002Y-24275270D01*
X20874797Y-24390813D01*
X20874791Y-24390824D01*
X20821612Y-24519211D01*
X20821612Y-24519213D01*
X20794500Y-24655511D01*
X10818318Y-24655511D01*
X10794027Y-24619158D01*
X10747998Y-24550270D01*
X10649730Y-24452002D01*
X10603699Y-24421245D01*
X10534186Y-24374797D01*
X10534175Y-24374791D01*
X10405787Y-24321612D01*
X10269488Y-24294500D01*
X10269486Y-24294500D01*
X10130514Y-24294500D01*
X10130511Y-24294500D01*
X9994213Y-24321612D01*
X9994211Y-24321612D01*
X9865824Y-24374791D01*
X9865813Y-24374797D01*
X9750270Y-24452002D01*
X9750266Y-24452005D01*
X9652005Y-24550266D01*
X9652002Y-24550270D01*
X9574797Y-24665813D01*
X9574791Y-24665824D01*
X9521612Y-24794211D01*
X9521612Y-24794213D01*
X9494500Y-24930511D01*
X6505499Y-24930511D01*
X6478388Y-24794213D01*
X6439928Y-24701361D01*
X6425208Y-24665824D01*
X6425202Y-24665813D01*
X6394027Y-24619158D01*
X6347998Y-24550270D01*
X6249730Y-24452002D01*
X6203699Y-24421245D01*
X6134186Y-24374797D01*
X6134175Y-24374791D01*
X6005787Y-24321612D01*
X5869488Y-24294500D01*
X5869486Y-24294500D01*
X5730514Y-24294500D01*
X5730511Y-24294500D01*
X5594213Y-24321612D01*
X5594211Y-24321612D01*
X5465824Y-24374791D01*
X5465813Y-24374797D01*
X5350270Y-24452002D01*
X5350266Y-24452005D01*
X5252005Y-24550266D01*
X5252002Y-24550270D01*
X5174797Y-24665813D01*
X5174791Y-24665824D01*
X5121612Y-24794211D01*
X5121612Y-24794213D01*
X5094500Y-24930511D01*
X1000000Y-24930511D01*
X1000000Y-19930511D01*
X5094500Y-19930511D01*
X5094500Y-20069488D01*
X5121612Y-20205786D01*
X5121612Y-20205788D01*
X5174791Y-20334175D01*
X5174797Y-20334186D01*
X5221245Y-20403699D01*
X5252002Y-20449730D01*
X5350270Y-20547998D01*
X5412382Y-20589500D01*
X5465813Y-20625202D01*
X5465824Y-20625208D01*
X5513250Y-20644852D01*
X5594213Y-20678388D01*
X5730514Y-20705500D01*
X5730515Y-20705500D01*
X5869485Y-20705500D01*
X5869486Y-20705500D01*
X6005787Y-20678388D01*
X6134180Y-20625206D01*
X6249730Y-20547998D01*
X6347998Y-20449730D01*
X6425206Y-20334180D01*
X6478388Y-20205787D01*
X6505500Y-20069486D01*
X6505500Y-19930514D01*
X6505499Y-19930511D01*
X9494500Y-19930511D01*
X9494500Y-20069488D01*
X9521612Y-20205786D01*
X9521612Y-20205788D01*
X9574791Y-20334175D01*
X9574797Y-20334186D01*
X9621245Y-20403699D01*
X9652002Y-20449730D01*
X9750270Y-20547998D01*
X9812382Y-20589500D01*
X9865813Y-20625202D01*
X9865824Y-20625208D01*
X9913250Y-20644852D01*
X9994213Y-20678388D01*
X10130514Y-20705500D01*
X10130515Y-20705500D01*
X10269485Y-20705500D01*
X10269486Y-20705500D01*
X10405787Y-20678388D01*
X10534180Y-20625206D01*
X10649730Y-20547998D01*
X10747998Y-20449730D01*
X10825206Y-20334180D01*
X10878388Y-20205787D01*
X10905500Y-20069486D01*
X10905500Y-19930514D01*
X10878388Y-19794213D01*
X10841761Y-19705787D01*
X10825208Y-19665824D01*
X10825202Y-19665813D01*
X10786239Y-19607502D01*
X10747998Y-19550270D01*
X10649730Y-19452002D01*
X10617567Y-19430511D01*
X58294500Y-19430511D01*
X58294500Y-19569488D01*
X58295039Y-19572196D01*
X58320227Y-19698826D01*
X58321612Y-19705786D01*
X58321612Y-19705788D01*
X58374791Y-19834175D01*
X58374797Y-19834186D01*
X58421245Y-19903699D01*
X58452002Y-19949730D01*
X58550270Y-20047998D01*
X58619158Y-20094027D01*
X58665813Y-20125202D01*
X58665824Y-20125208D01*
X58713250Y-20144852D01*
X58794213Y-20178388D01*
X58930514Y-20205500D01*
X58930515Y-20205500D01*
X59069485Y-20205500D01*
X59069486Y-20205500D01*
X59205787Y-20178388D01*
X59334180Y-20125206D01*
X59449730Y-20047998D01*
X59547998Y-19949730D01*
X59625206Y-19834180D01*
X59678388Y-19705787D01*
X59705500Y-19569486D01*
X59705500Y-19430514D01*
X59705499Y-19430511D01*
X63294500Y-19430511D01*
X63294500Y-19569488D01*
X63295039Y-19572196D01*
X63320227Y-19698826D01*
X63321612Y-19705786D01*
X63321612Y-19705788D01*
X63374791Y-19834175D01*
X63374797Y-19834186D01*
X63421245Y-19903699D01*
X63452002Y-19949730D01*
X63550270Y-20047998D01*
X63619158Y-20094027D01*
X63665813Y-20125202D01*
X63665824Y-20125208D01*
X63713250Y-20144852D01*
X63794213Y-20178388D01*
X63930514Y-20205500D01*
X63930515Y-20205500D01*
X64069485Y-20205500D01*
X64069486Y-20205500D01*
X64205787Y-20178388D01*
X64334180Y-20125206D01*
X64449730Y-20047998D01*
X64547998Y-19949730D01*
X64625206Y-19834180D01*
X64678388Y-19705787D01*
X64705500Y-19569486D01*
X64705500Y-19430514D01*
X64678388Y-19294213D01*
X64625206Y-19165820D01*
X64625205Y-19165818D01*
X64625202Y-19165813D01*
X64594027Y-19119158D01*
X64547998Y-19050270D01*
X64449730Y-18952002D01*
X64403699Y-18921245D01*
X64334186Y-18874797D01*
X64334175Y-18874791D01*
X64205787Y-18821612D01*
X64069488Y-18794500D01*
X64069486Y-18794500D01*
X63930514Y-18794500D01*
X63930511Y-18794500D01*
X63794213Y-18821612D01*
X63794211Y-18821612D01*
X63665824Y-18874791D01*
X63665813Y-18874797D01*
X63550270Y-18952002D01*
X63550266Y-18952005D01*
X63452005Y-19050266D01*
X63452002Y-19050270D01*
X63374797Y-19165813D01*
X63374791Y-19165824D01*
X63321612Y-19294211D01*
X63321612Y-19294213D01*
X63294500Y-19430511D01*
X59705499Y-19430511D01*
X59678388Y-19294213D01*
X59625206Y-19165820D01*
X59625205Y-19165818D01*
X59625202Y-19165813D01*
X59594027Y-19119158D01*
X59547998Y-19050270D01*
X59449730Y-18952002D01*
X59403699Y-18921245D01*
X59334186Y-18874797D01*
X59334175Y-18874791D01*
X59205787Y-18821612D01*
X59069488Y-18794500D01*
X59069486Y-18794500D01*
X58930514Y-18794500D01*
X58930511Y-18794500D01*
X58794213Y-18821612D01*
X58794211Y-18821612D01*
X58665824Y-18874791D01*
X58665813Y-18874797D01*
X58550270Y-18952002D01*
X58550266Y-18952005D01*
X58452005Y-19050266D01*
X58452002Y-19050270D01*
X58374797Y-19165813D01*
X58374791Y-19165824D01*
X58321612Y-19294211D01*
X58321612Y-19294213D01*
X58294500Y-19430511D01*
X10617567Y-19430511D01*
X10603699Y-19421245D01*
X10534186Y-19374797D01*
X10534175Y-19374791D01*
X10405787Y-19321612D01*
X10269488Y-19294500D01*
X10269486Y-19294500D01*
X10130514Y-19294500D01*
X10130511Y-19294500D01*
X9994213Y-19321612D01*
X9994211Y-19321612D01*
X9865824Y-19374791D01*
X9865813Y-19374797D01*
X9750270Y-19452002D01*
X9750266Y-19452005D01*
X9652005Y-19550266D01*
X9652002Y-19550270D01*
X9574797Y-19665813D01*
X9574791Y-19665824D01*
X9521612Y-19794211D01*
X9521612Y-19794213D01*
X9494500Y-19930511D01*
X6505499Y-19930511D01*
X6478388Y-19794213D01*
X6441761Y-19705787D01*
X6425208Y-19665824D01*
X6425202Y-19665813D01*
X6386239Y-19607502D01*
X6347998Y-19550270D01*
X6249730Y-19452002D01*
X6203699Y-19421245D01*
X6134186Y-19374797D01*
X6134175Y-19374791D01*
X6005787Y-19321612D01*
X5869488Y-19294500D01*
X5869486Y-19294500D01*
X5730514Y-19294500D01*
X5730511Y-19294500D01*
X5594213Y-19321612D01*
X5594211Y-19321612D01*
X5465824Y-19374791D01*
X5465813Y-19374797D01*
X5350270Y-19452002D01*
X5350266Y-19452005D01*
X5252005Y-19550266D01*
X5252002Y-19550270D01*
X5174797Y-19665813D01*
X5174791Y-19665824D01*
X5121612Y-19794211D01*
X5121612Y-19794213D01*
X5094500Y-19930511D01*
X1000000Y-19930511D01*
X1000000Y-15930511D01*
X38294500Y-15930511D01*
X38294500Y-16069488D01*
X38321612Y-16205786D01*
X38321612Y-16205788D01*
X38374791Y-16334175D01*
X38374797Y-16334186D01*
X38421245Y-16403699D01*
X38452002Y-16449730D01*
X38550270Y-16547998D01*
X38619158Y-16594027D01*
X38665813Y-16625202D01*
X38665824Y-16625208D01*
X38713250Y-16644852D01*
X38794213Y-16678388D01*
X38930514Y-16705500D01*
X38930515Y-16705500D01*
X39069485Y-16705500D01*
X39069486Y-16705500D01*
X39205787Y-16678388D01*
X39334180Y-16625206D01*
X39449730Y-16547998D01*
X39547998Y-16449730D01*
X39625206Y-16334180D01*
X39678388Y-16205787D01*
X39705500Y-16069486D01*
X39705500Y-15930514D01*
X39678388Y-15794213D01*
X39630412Y-15678388D01*
X39625208Y-15665824D01*
X39625202Y-15665813D01*
X39594027Y-15619158D01*
X39547998Y-15550270D01*
X39449730Y-15452002D01*
X39403699Y-15421245D01*
X39334186Y-15374797D01*
X39334175Y-15374791D01*
X39205787Y-15321612D01*
X39069488Y-15294500D01*
X39069486Y-15294500D01*
X38930514Y-15294500D01*
X38930511Y-15294500D01*
X38794213Y-15321612D01*
X38794211Y-15321612D01*
X38665824Y-15374791D01*
X38665813Y-15374797D01*
X38550270Y-15452002D01*
X38550266Y-15452005D01*
X38452005Y-15550266D01*
X38452002Y-15550270D01*
X38374797Y-15665813D01*
X38374791Y-15665824D01*
X38321612Y-15794211D01*
X38321612Y-15794213D01*
X38294500Y-15930511D01*
X1000000Y-15930511D01*
X1000000Y-14930511D01*
X9794500Y-14930511D01*
X9794500Y-15069488D01*
X9821612Y-15205786D01*
X9821612Y-15205788D01*
X9874791Y-15334175D01*
X9874797Y-15334186D01*
X9901929Y-15374791D01*
X9952002Y-15449730D01*
X10050270Y-15547998D01*
X10119158Y-15594027D01*
X10165813Y-15625202D01*
X10165824Y-15625208D01*
X10213250Y-15644852D01*
X10294213Y-15678388D01*
X10430514Y-15705500D01*
X10430515Y-15705500D01*
X10569485Y-15705500D01*
X10569486Y-15705500D01*
X10705787Y-15678388D01*
X10834180Y-15625206D01*
X10949730Y-15547998D01*
X11047998Y-15449730D01*
X11125206Y-15334180D01*
X11178388Y-15205787D01*
X11205500Y-15069486D01*
X11205500Y-14930514D01*
X11178388Y-14794213D01*
X11160281Y-14750499D01*
X11125208Y-14665824D01*
X11125202Y-14665813D01*
X11094027Y-14619158D01*
X11047998Y-14550270D01*
X10949730Y-14452002D01*
X10903699Y-14421245D01*
X10834186Y-14374797D01*
X10834175Y-14374791D01*
X10705787Y-14321612D01*
X10569488Y-14294500D01*
X10569486Y-14294500D01*
X10430514Y-14294500D01*
X10430511Y-14294500D01*
X10294213Y-14321612D01*
X10294211Y-14321612D01*
X10165824Y-14374791D01*
X10165813Y-14374797D01*
X10050270Y-14452002D01*
X10050266Y-14452005D01*
X9952005Y-14550266D01*
X9952002Y-14550270D01*
X9874797Y-14665813D01*
X9874791Y-14665824D01*
X9821612Y-14794211D01*
X9821612Y-14794213D01*
X9794500Y-14930511D01*
X1000000Y-14930511D01*
X1000000Y-12352494D01*
X14749500Y-12352494D01*
X14749500Y-12647506D01*
X14788007Y-12939993D01*
X14816947Y-13047998D01*
X14864361Y-13224953D01*
X14977253Y-13497499D01*
X14977255Y-13497503D01*
X14977257Y-13497507D01*
X15124762Y-13752994D01*
X15124764Y-13752997D01*
X15304348Y-13987035D01*
X15304350Y-13987037D01*
X15304354Y-13987042D01*
X15512958Y-14195646D01*
X15512962Y-14195649D01*
X15512964Y-14195651D01*
X15677119Y-14321612D01*
X15747006Y-14375238D01*
X16002493Y-14522743D01*
X16275048Y-14635639D01*
X16560007Y-14711993D01*
X16852494Y-14750500D01*
X16852495Y-14750500D01*
X17147505Y-14750500D01*
X17147506Y-14750500D01*
X17439993Y-14711993D01*
X17724952Y-14635639D01*
X17997507Y-14522743D01*
X18252994Y-14375238D01*
X18487042Y-14195646D01*
X18695646Y-13987042D01*
X18875238Y-13752994D01*
X19022743Y-13497507D01*
X19135639Y-13224952D01*
X19211993Y-12939993D01*
X19250500Y-12647506D01*
X19250500Y-12352494D01*
X19211993Y-12060007D01*
X19150500Y-11830511D01*
X52394500Y-11830511D01*
X52394500Y-11969488D01*
X52421612Y-12105786D01*
X52421612Y-12105788D01*
X52474791Y-12234175D01*
X52474797Y-12234186D01*
X52514905Y-12294211D01*
X52552002Y-12349730D01*
X52650270Y-12447998D01*
X52719158Y-12494027D01*
X52765813Y-12525202D01*
X52765824Y-12525208D01*
X52813250Y-12544852D01*
X52894213Y-12578388D01*
X53030514Y-12605500D01*
X53030515Y-12605500D01*
X53169485Y-12605500D01*
X53169486Y-12605500D01*
X53305787Y-12578388D01*
X53434180Y-12525206D01*
X53549730Y-12447998D01*
X53567217Y-12430511D01*
X62294500Y-12430511D01*
X62294500Y-12569488D01*
X62321612Y-12705786D01*
X62321612Y-12705788D01*
X62374791Y-12834175D01*
X62374797Y-12834186D01*
X62421245Y-12903699D01*
X62452002Y-12949730D01*
X62550270Y-13047998D01*
X62619158Y-13094027D01*
X62665813Y-13125202D01*
X62665824Y-13125208D01*
X62713250Y-13144852D01*
X62794213Y-13178388D01*
X62930514Y-13205500D01*
X62930515Y-13205500D01*
X63069485Y-13205500D01*
X63069486Y-13205500D01*
X63205787Y-13178388D01*
X63334180Y-13125206D01*
X63449730Y-13047998D01*
X63547998Y-12949730D01*
X63625206Y-12834180D01*
X63678388Y-12705787D01*
X63705500Y-12569486D01*
X63705500Y-12430514D01*
X63689981Y-12352494D01*
X72749500Y-12352494D01*
X72749500Y-12647506D01*
X72788007Y-12939993D01*
X72816947Y-13047998D01*
X72864361Y-13224953D01*
X72977253Y-13497499D01*
X72977255Y-13497503D01*
X72977257Y-13497507D01*
X73124762Y-13752994D01*
X73124764Y-13752997D01*
X73304348Y-13987035D01*
X73304350Y-13987037D01*
X73304354Y-13987042D01*
X73512958Y-14195646D01*
X73512962Y-14195649D01*
X73512964Y-14195651D01*
X73677119Y-14321612D01*
X73747006Y-14375238D01*
X74002493Y-14522743D01*
X74275048Y-14635639D01*
X74560007Y-14711993D01*
X74852494Y-14750500D01*
X74852495Y-14750500D01*
X75147505Y-14750500D01*
X75147506Y-14750500D01*
X75439993Y-14711993D01*
X75724952Y-14635639D01*
X75997507Y-14522743D01*
X76252994Y-14375238D01*
X76487042Y-14195646D01*
X76695646Y-13987042D01*
X76875238Y-13752994D01*
X77022743Y-13497507D01*
X77135639Y-13224952D01*
X77211993Y-12939993D01*
X77250500Y-12647506D01*
X77250500Y-12352494D01*
X77211993Y-12060007D01*
X77135639Y-11775048D01*
X77022743Y-11502493D01*
X76875238Y-11247006D01*
X76875235Y-11247002D01*
X76695651Y-11012964D01*
X76695649Y-11012962D01*
X76695646Y-11012958D01*
X76487042Y-10804354D01*
X76487037Y-10804350D01*
X76487035Y-10804348D01*
X76252997Y-10624764D01*
X76252994Y-10624762D01*
X75997507Y-10477257D01*
X75997503Y-10477255D01*
X75997499Y-10477253D01*
X75724953Y-10364361D01*
X75658183Y-10346470D01*
X75439993Y-10288007D01*
X75439986Y-10288006D01*
X75147506Y-10249500D01*
X74852494Y-10249500D01*
X74852493Y-10249500D01*
X74560013Y-10288006D01*
X74560011Y-10288006D01*
X74560007Y-10288007D01*
X74408584Y-10328580D01*
X74275046Y-10364361D01*
X74002500Y-10477253D01*
X73747002Y-10624764D01*
X73512964Y-10804348D01*
X73304348Y-11012964D01*
X73124764Y-11247002D01*
X72977253Y-11502500D01*
X72864361Y-11775046D01*
X72828580Y-11908584D01*
X72788007Y-12060007D01*
X72749500Y-12352494D01*
X63689981Y-12352494D01*
X63678388Y-12294213D01*
X63625206Y-12165820D01*
X63625205Y-12165818D01*
X63625202Y-12165813D01*
X63585093Y-12105787D01*
X63547998Y-12050270D01*
X63449730Y-11952002D01*
X63403699Y-11921245D01*
X63334186Y-11874797D01*
X63334175Y-11874791D01*
X63205787Y-11821612D01*
X63069488Y-11794500D01*
X63069486Y-11794500D01*
X62930514Y-11794500D01*
X62930511Y-11794500D01*
X62794213Y-11821612D01*
X62794211Y-11821612D01*
X62665824Y-11874791D01*
X62665813Y-11874797D01*
X62550270Y-11952002D01*
X62550266Y-11952005D01*
X62452005Y-12050266D01*
X62452002Y-12050270D01*
X62374797Y-12165813D01*
X62374791Y-12165824D01*
X62321612Y-12294211D01*
X62321612Y-12294213D01*
X62294500Y-12430511D01*
X53567217Y-12430511D01*
X53647998Y-12349730D01*
X53725206Y-12234180D01*
X53778388Y-12105787D01*
X53805500Y-11969486D01*
X53805500Y-11830514D01*
X53778388Y-11694213D01*
X53725206Y-11565820D01*
X53725205Y-11565818D01*
X53725202Y-11565813D01*
X53682892Y-11502493D01*
X53647998Y-11450270D01*
X53549730Y-11352002D01*
X53503699Y-11321245D01*
X53434186Y-11274797D01*
X53434175Y-11274791D01*
X53305787Y-11221612D01*
X53169488Y-11194500D01*
X53169486Y-11194500D01*
X53030514Y-11194500D01*
X53030511Y-11194500D01*
X52894213Y-11221612D01*
X52894211Y-11221612D01*
X52765824Y-11274791D01*
X52765813Y-11274797D01*
X52650270Y-11352002D01*
X52650266Y-11352005D01*
X52552005Y-11450266D01*
X52552002Y-11450270D01*
X52474797Y-11565813D01*
X52474791Y-11565824D01*
X52421612Y-11694211D01*
X52421612Y-11694213D01*
X52394500Y-11830511D01*
X19150500Y-11830511D01*
X19135639Y-11775048D01*
X19022743Y-11502493D01*
X18875238Y-11247006D01*
X18875235Y-11247002D01*
X18695651Y-11012964D01*
X18695649Y-11012962D01*
X18695646Y-11012958D01*
X18487042Y-10804354D01*
X18487037Y-10804350D01*
X18487035Y-10804348D01*
X18252997Y-10624764D01*
X18252994Y-10624762D01*
X17997507Y-10477257D01*
X17997503Y-10477255D01*
X17997499Y-10477253D01*
X17724953Y-10364361D01*
X17658183Y-10346470D01*
X17439993Y-10288007D01*
X17439986Y-10288006D01*
X17147506Y-10249500D01*
X16852494Y-10249500D01*
X16852493Y-10249500D01*
X16560013Y-10288006D01*
X16560011Y-10288006D01*
X16560007Y-10288007D01*
X16408584Y-10328580D01*
X16275046Y-10364361D01*
X16002500Y-10477253D01*
X15747002Y-10624764D01*
X15512964Y-10804348D01*
X15304348Y-11012964D01*
X15124764Y-11247002D01*
X14977253Y-11502500D01*
X14864361Y-11775046D01*
X14828580Y-11908584D01*
X14788007Y-12060007D01*
X14749500Y-12352494D01*
X1000000Y-12352494D01*
X1000000Y-8930511D01*
X26794500Y-8930511D01*
X26794500Y-9069488D01*
X26821612Y-9205786D01*
X26821612Y-9205788D01*
X26874791Y-9334175D01*
X26874797Y-9334186D01*
X26899160Y-9370647D01*
X26952002Y-9449730D01*
X27050270Y-9547998D01*
X27102533Y-9582919D01*
X27165813Y-9625202D01*
X27165824Y-9625208D01*
X27213250Y-9644852D01*
X27294213Y-9678388D01*
X27430514Y-9705500D01*
X27430515Y-9705500D01*
X27569485Y-9705500D01*
X27569486Y-9705500D01*
X27705787Y-9678388D01*
X27834180Y-9625206D01*
X27949730Y-9547998D01*
X28047998Y-9449730D01*
X28060840Y-9430511D01*
X38294500Y-9430511D01*
X38294500Y-9569488D01*
X38321612Y-9705786D01*
X38321612Y-9705788D01*
X38374791Y-9834175D01*
X38374797Y-9834186D01*
X38387644Y-9853412D01*
X38452002Y-9949730D01*
X38550270Y-10047998D01*
X38608222Y-10086720D01*
X38665813Y-10125202D01*
X38665824Y-10125208D01*
X38713250Y-10144852D01*
X38794213Y-10178388D01*
X38930514Y-10205500D01*
X38930515Y-10205500D01*
X39069485Y-10205500D01*
X39069486Y-10205500D01*
X39205787Y-10178388D01*
X39334180Y-10125206D01*
X39449730Y-10047998D01*
X39547998Y-9949730D01*
X39572356Y-9913275D01*
X42119500Y-9913275D01*
X42119500Y-10086724D01*
X42153337Y-10256831D01*
X42153337Y-10256833D01*
X42219708Y-10417068D01*
X42219714Y-10417080D01*
X42288620Y-10520203D01*
X42316071Y-10561286D01*
X42438714Y-10683929D01*
X42500197Y-10725010D01*
X42582919Y-10780285D01*
X42582931Y-10780291D01*
X42641011Y-10804348D01*
X42743168Y-10846663D01*
X42913278Y-10880500D01*
X42913279Y-10880500D01*
X43086721Y-10880500D01*
X43086722Y-10880500D01*
X43256832Y-10846663D01*
X43417073Y-10780289D01*
X43417075Y-10780287D01*
X43417080Y-10780285D01*
X43458719Y-10752461D01*
X43561286Y-10683929D01*
X43683929Y-10561286D01*
X43758469Y-10449729D01*
X43780285Y-10417080D01*
X43780291Y-10417068D01*
X43814626Y-10334175D01*
X43846663Y-10256832D01*
X43880500Y-10086722D01*
X43880500Y-9930511D01*
X58294500Y-9930511D01*
X58294500Y-10069488D01*
X58321612Y-10205786D01*
X58321612Y-10205788D01*
X58374791Y-10334175D01*
X58374797Y-10334186D01*
X58394960Y-10364361D01*
X58452002Y-10449730D01*
X58550270Y-10547998D01*
X58619158Y-10594027D01*
X58665813Y-10625202D01*
X58665824Y-10625208D01*
X58713250Y-10644852D01*
X58794213Y-10678388D01*
X58930514Y-10705500D01*
X58930515Y-10705500D01*
X59069485Y-10705500D01*
X59069486Y-10705500D01*
X59205787Y-10678388D01*
X59334180Y-10625206D01*
X59449730Y-10547998D01*
X59547998Y-10449730D01*
X59625206Y-10334180D01*
X59678388Y-10205787D01*
X59705500Y-10069486D01*
X59705500Y-9930514D01*
X59678388Y-9794213D01*
X59641761Y-9705787D01*
X59625208Y-9665824D01*
X59625202Y-9665813D01*
X59569821Y-9582931D01*
X59547998Y-9550270D01*
X59449730Y-9452002D01*
X59403699Y-9421245D01*
X59334186Y-9374797D01*
X59334175Y-9374791D01*
X59205787Y-9321612D01*
X59069488Y-9294500D01*
X59069486Y-9294500D01*
X58930514Y-9294500D01*
X58930511Y-9294500D01*
X58794213Y-9321612D01*
X58794211Y-9321612D01*
X58665824Y-9374791D01*
X58665813Y-9374797D01*
X58550270Y-9452002D01*
X58550266Y-9452005D01*
X58452005Y-9550266D01*
X58452002Y-9550270D01*
X58374797Y-9665813D01*
X58374791Y-9665824D01*
X58321612Y-9794211D01*
X58321612Y-9794213D01*
X58294500Y-9930511D01*
X43880500Y-9930511D01*
X43880500Y-9913278D01*
X43846663Y-9743168D01*
X43814622Y-9665813D01*
X43780291Y-9582931D01*
X43780285Y-9582919D01*
X43725010Y-9500197D01*
X43683929Y-9438714D01*
X43561286Y-9316071D01*
X43520203Y-9288620D01*
X43417080Y-9219714D01*
X43417068Y-9219708D01*
X43256832Y-9153337D01*
X43086724Y-9119500D01*
X43086722Y-9119500D01*
X42913278Y-9119500D01*
X42913275Y-9119500D01*
X42743168Y-9153337D01*
X42743166Y-9153337D01*
X42582931Y-9219708D01*
X42582919Y-9219714D01*
X42438714Y-9316071D01*
X42438710Y-9316074D01*
X42316074Y-9438710D01*
X42316071Y-9438714D01*
X42219714Y-9582919D01*
X42219708Y-9582931D01*
X42153337Y-9743166D01*
X42153337Y-9743168D01*
X42119500Y-9913275D01*
X39572356Y-9913275D01*
X39625206Y-9834180D01*
X39678388Y-9705787D01*
X39705500Y-9569486D01*
X39705500Y-9430514D01*
X39678388Y-9294213D01*
X39641761Y-9205787D01*
X39625208Y-9165824D01*
X39625202Y-9165813D01*
X39594027Y-9119158D01*
X39547998Y-9050270D01*
X39449730Y-8952002D01*
X39403699Y-8921245D01*
X39334186Y-8874797D01*
X39334175Y-8874791D01*
X39205787Y-8821612D01*
X39069488Y-8794500D01*
X39069486Y-8794500D01*
X38930514Y-8794500D01*
X38930511Y-8794500D01*
X38794213Y-8821612D01*
X38794211Y-8821612D01*
X38665824Y-8874791D01*
X38665813Y-8874797D01*
X38550270Y-8952002D01*
X38550266Y-8952005D01*
X38452005Y-9050266D01*
X38452002Y-9050270D01*
X38374797Y-9165813D01*
X38374791Y-9165824D01*
X38321612Y-9294211D01*
X38321612Y-9294213D01*
X38294500Y-9430511D01*
X28060840Y-9430511D01*
X28125206Y-9334180D01*
X28178388Y-9205787D01*
X28205500Y-9069486D01*
X28205500Y-8930514D01*
X28178388Y-8794213D01*
X28125206Y-8665820D01*
X28125205Y-8665818D01*
X28125202Y-8665813D01*
X28094027Y-8619158D01*
X28047998Y-8550270D01*
X27949730Y-8452002D01*
X27903699Y-8421245D01*
X27834186Y-8374797D01*
X27834175Y-8374791D01*
X27705787Y-8321612D01*
X27569488Y-8294500D01*
X27569486Y-8294500D01*
X27430514Y-8294500D01*
X27430511Y-8294500D01*
X27294213Y-8321612D01*
X27294211Y-8321612D01*
X27165824Y-8374791D01*
X27165813Y-8374797D01*
X27050270Y-8452002D01*
X27050266Y-8452005D01*
X26952005Y-8550266D01*
X26952002Y-8550270D01*
X26874797Y-8665813D01*
X26874791Y-8665824D01*
X26821612Y-8794211D01*
X26821612Y-8794213D01*
X26794500Y-8930511D01*
X1000000Y-8930511D01*
X1000000Y-6430511D01*
X66294500Y-6430511D01*
X66294500Y-6569488D01*
X66321612Y-6705786D01*
X66321612Y-6705788D01*
X66374791Y-6834175D01*
X66374797Y-6834186D01*
X66421245Y-6903699D01*
X66452002Y-6949730D01*
X66550270Y-7047998D01*
X66619158Y-7094027D01*
X66665813Y-7125202D01*
X66665824Y-7125208D01*
X66713250Y-7144852D01*
X66794213Y-7178388D01*
X66930514Y-7205500D01*
X66930515Y-7205500D01*
X67069485Y-7205500D01*
X67069486Y-7205500D01*
X67205787Y-7178388D01*
X67334180Y-7125206D01*
X67449730Y-7047998D01*
X67547998Y-6949730D01*
X67625206Y-6834180D01*
X67678388Y-6705787D01*
X67705500Y-6569486D01*
X67705500Y-6430514D01*
X67678388Y-6294213D01*
X67659648Y-6248970D01*
X67625208Y-6165824D01*
X67625202Y-6165813D01*
X67578007Y-6095182D01*
X67547998Y-6050270D01*
X67449730Y-5952002D01*
X67403699Y-5921245D01*
X67334186Y-5874797D01*
X67334175Y-5874791D01*
X67205787Y-5821612D01*
X67069488Y-5794500D01*
X67069486Y-5794500D01*
X66930514Y-5794500D01*
X66930511Y-5794500D01*
X66794213Y-5821612D01*
X66794211Y-5821612D01*
X66665824Y-5874791D01*
X66665813Y-5874797D01*
X66550270Y-5952002D01*
X66550266Y-5952005D01*
X66452005Y-6050266D01*
X66452002Y-6050270D01*
X66374797Y-6165813D01*
X66374791Y-6165824D01*
X66321612Y-6294211D01*
X66321612Y-6294213D01*
X66294500Y-6430511D01*
X1000000Y-6430511D01*
X1000000Y-4063890D01*
X23449500Y-4063890D01*
X23449500Y-5936110D01*
X23460276Y-6010072D01*
X23516049Y-6124157D01*
X23605843Y-6213951D01*
X23719928Y-6269724D01*
X23793890Y-6280500D01*
X23793893Y-6280500D01*
X25666106Y-6280500D01*
X25666110Y-6280500D01*
X25740072Y-6269724D01*
X25854157Y-6213951D01*
X25943951Y-6124157D01*
X25999724Y-6010072D01*
X26010500Y-5936110D01*
X26010500Y-5749655D01*
X26029407Y-5691464D01*
X26078907Y-5655500D01*
X26140093Y-5655500D01*
X26189591Y-5691462D01*
X26293289Y-5834190D01*
X26435810Y-5976711D01*
X26598871Y-6095182D01*
X26778458Y-6186686D01*
X26970149Y-6248970D01*
X26970150Y-6248970D01*
X26970153Y-6248971D01*
X27169219Y-6280500D01*
X27169222Y-6280500D01*
X27370781Y-6280500D01*
X27569846Y-6248971D01*
X27569847Y-6248970D01*
X27569851Y-6248970D01*
X27761542Y-6186686D01*
X27941129Y-6095182D01*
X28104190Y-5976711D01*
X28246711Y-5834190D01*
X28365182Y-5671129D01*
X28456686Y-5491542D01*
X28518970Y-5299851D01*
X28550500Y-5100778D01*
X28550500Y-4899222D01*
X28550500Y-4899218D01*
X28518971Y-4700153D01*
X28518970Y-4700149D01*
X28456686Y-4508458D01*
X28416970Y-4430511D01*
X62294500Y-4430511D01*
X62294500Y-4430514D01*
X62294500Y-4569486D01*
X62320491Y-4700153D01*
X62321612Y-4705786D01*
X62321612Y-4705788D01*
X62374791Y-4834175D01*
X62374797Y-4834186D01*
X62418251Y-4899218D01*
X62452002Y-4949730D01*
X62550270Y-5047998D01*
X62619158Y-5094027D01*
X62665813Y-5125202D01*
X62665824Y-5125208D01*
X62713250Y-5144852D01*
X62794213Y-5178388D01*
X62930514Y-5205500D01*
X62930515Y-5205500D01*
X63069485Y-5205500D01*
X63069486Y-5205500D01*
X63205787Y-5178388D01*
X63334180Y-5125206D01*
X63449730Y-5047998D01*
X63547998Y-4949730D01*
X63625206Y-4834180D01*
X63678388Y-4705787D01*
X63705500Y-4569486D01*
X63705500Y-4430514D01*
X63678388Y-4294213D01*
X63630412Y-4178388D01*
X63625208Y-4165824D01*
X63625202Y-4165813D01*
X63594027Y-4119158D01*
X63547998Y-4050270D01*
X63449730Y-3952002D01*
X63403699Y-3921245D01*
X63334186Y-3874797D01*
X63334175Y-3874791D01*
X63205787Y-3821612D01*
X63069488Y-3794500D01*
X63069486Y-3794500D01*
X62930514Y-3794500D01*
X62930511Y-3794500D01*
X62794213Y-3821612D01*
X62794211Y-3821612D01*
X62665824Y-3874791D01*
X62665813Y-3874797D01*
X62550270Y-3952002D01*
X62550266Y-3952005D01*
X62452005Y-4050266D01*
X62452002Y-4050270D01*
X62374797Y-4165813D01*
X62374791Y-4165824D01*
X62321612Y-4294211D01*
X62321612Y-4294213D01*
X62294500Y-4430511D01*
X28416970Y-4430511D01*
X28365182Y-4328871D01*
X28246711Y-4165810D01*
X28104190Y-4023289D01*
X27941129Y-3904818D01*
X27941128Y-3904817D01*
X27941126Y-3904816D01*
X27761542Y-3813314D01*
X27569846Y-3751028D01*
X27370781Y-3719500D01*
X27370778Y-3719500D01*
X27169222Y-3719500D01*
X27169219Y-3719500D01*
X26970153Y-3751028D01*
X26778457Y-3813314D01*
X26598873Y-3904816D01*
X26435811Y-4023288D01*
X26293284Y-4165815D01*
X26189592Y-4308535D01*
X26140092Y-4344499D01*
X26078907Y-4344498D01*
X26029407Y-4308534D01*
X26010500Y-4250344D01*
X26010500Y-4063893D01*
X26010500Y-4063890D01*
X25999724Y-3989928D01*
X25943951Y-3875843D01*
X25854157Y-3786049D01*
X25740072Y-3730276D01*
X25666110Y-3719500D01*
X23793890Y-3719500D01*
X23719928Y-3730276D01*
X23605844Y-3786048D01*
X23516048Y-3875844D01*
X23460276Y-3989928D01*
X23449500Y-4063890D01*
X1000000Y-4063890D01*
X1000000Y-3748821D01*
X1018907Y-3690630D01*
X1028996Y-3678817D01*
X1277302Y-3430511D01*
X47294500Y-3430511D01*
X47294500Y-3569488D01*
X47321612Y-3705786D01*
X47321612Y-3705788D01*
X47374791Y-3834175D01*
X47374797Y-3834186D01*
X47401929Y-3874791D01*
X47452002Y-3949730D01*
X47550270Y-4047998D01*
X47619158Y-4094027D01*
X47665813Y-4125202D01*
X47665824Y-4125208D01*
X47713250Y-4144852D01*
X47794213Y-4178388D01*
X47930514Y-4205500D01*
X47930515Y-4205500D01*
X48069485Y-4205500D01*
X48069486Y-4205500D01*
X48205787Y-4178388D01*
X48334180Y-4125206D01*
X48449730Y-4047998D01*
X48547998Y-3949730D01*
X48625206Y-3834180D01*
X48678388Y-3705787D01*
X48705500Y-3569486D01*
X48705500Y-3430514D01*
X48705499Y-3430511D01*
X51294500Y-3430511D01*
X51294500Y-3569488D01*
X51321612Y-3705786D01*
X51321612Y-3705788D01*
X51374791Y-3834175D01*
X51374797Y-3834186D01*
X51401929Y-3874791D01*
X51452002Y-3949730D01*
X51550270Y-4047998D01*
X51619158Y-4094027D01*
X51665813Y-4125202D01*
X51665824Y-4125208D01*
X51713250Y-4144852D01*
X51794213Y-4178388D01*
X51930514Y-4205500D01*
X51930515Y-4205500D01*
X52069485Y-4205500D01*
X52069486Y-4205500D01*
X52205787Y-4178388D01*
X52334180Y-4125206D01*
X52449730Y-4047998D01*
X52547998Y-3949730D01*
X52625206Y-3834180D01*
X52678388Y-3705787D01*
X52705500Y-3569486D01*
X52705500Y-3430514D01*
X52678388Y-3294213D01*
X52625206Y-3165820D01*
X52625205Y-3165818D01*
X52625202Y-3165813D01*
X52594027Y-3119158D01*
X52547998Y-3050270D01*
X52449730Y-2952002D01*
X52403699Y-2921245D01*
X52334186Y-2874797D01*
X52334175Y-2874791D01*
X52205787Y-2821612D01*
X52069488Y-2794500D01*
X52069486Y-2794500D01*
X51930514Y-2794500D01*
X51930511Y-2794500D01*
X51794213Y-2821612D01*
X51794211Y-2821612D01*
X51665824Y-2874791D01*
X51665813Y-2874797D01*
X51550270Y-2952002D01*
X51550266Y-2952005D01*
X51452005Y-3050266D01*
X51452002Y-3050270D01*
X51374797Y-3165813D01*
X51374791Y-3165824D01*
X51321612Y-3294211D01*
X51321612Y-3294213D01*
X51294500Y-3430511D01*
X48705499Y-3430511D01*
X48678388Y-3294213D01*
X48625206Y-3165820D01*
X48625205Y-3165818D01*
X48625202Y-3165813D01*
X48594027Y-3119158D01*
X48547998Y-3050270D01*
X48449730Y-2952002D01*
X48403699Y-2921245D01*
X48334186Y-2874797D01*
X48334175Y-2874791D01*
X48205787Y-2821612D01*
X48069488Y-2794500D01*
X48069486Y-2794500D01*
X47930514Y-2794500D01*
X47930511Y-2794500D01*
X47794213Y-2821612D01*
X47794211Y-2821612D01*
X47665824Y-2874791D01*
X47665813Y-2874797D01*
X47550270Y-2952002D01*
X47550266Y-2952005D01*
X47452005Y-3050266D01*
X47452002Y-3050270D01*
X47374797Y-3165813D01*
X47374791Y-3165824D01*
X47321612Y-3294211D01*
X47321612Y-3294213D01*
X47294500Y-3430511D01*
X1277302Y-3430511D01*
X3678817Y-1028996D01*
X3733334Y-1001219D01*
X3748821Y-1000000D01*
X88251178Y-1000000D01*
X88309369Y-1018907D01*
G37*
%TD.AperFunction*%
%TD*%
M02*
