%TF.GenerationSoftware,KiCad,Pcbnew,10.0.5*%
%TF.CreationDate,2026-08-06T22:40:01+08:00*%
%TF.ProjectId,BrufikMobileBase,42727566-696b-44d6-9f62-696c65426173,0.1*%
%TF.SameCoordinates,Original*%
%TF.FileFunction,Paste,Top*%
%TF.FilePolarity,Positive*%
%FSLAX46Y46*%
G04 Gerber Fmt 4.6, Leading zero omitted, Abs format (unit mm)*
G04 Created by KiCad (PCBNEW 10.0.5) date 2026-08-06 22:40:01*
%MOMM*%
%LPD*%
G01*
G04 APERTURE LIST*
%ADD10R,1.600000X0.400000*%
%ADD11R,3.200000X3.100000*%
%ADD12R,1.400000X0.800000*%
%ADD13R,1.800000X2.600000*%
%ADD14R,1.600000X1.400000*%
%ADD15R,2.500000X3.200000*%
%ADD16R,2.600000X4.500000*%
%ADD17R,2.500000X3.000000*%
%ADD18R,2.800000X2.400000*%
G04 APERTURE END LIST*
D10*
%TO.C,U3*%
X23000000Y-46725000D03*
X23000000Y-47375000D03*
X23000000Y-48025000D03*
X23000000Y-48675000D03*
X23000000Y-49325000D03*
X23000000Y-49975000D03*
X23000000Y-50625000D03*
X23000000Y-51275000D03*
X29000000Y-51275000D03*
X29000000Y-50625000D03*
X29000000Y-49975000D03*
X29000000Y-49324999D03*
X29000000Y-48675000D03*
X29000000Y-48025000D03*
X29000000Y-47375000D03*
X29000000Y-46725000D03*
D11*
X26000000Y-49000000D03*
%TD*%
D12*
%TO.C,U1*%
X53100000Y-11900000D03*
X53100000Y-10000000D03*
X53100000Y-8100000D03*
X56900000Y-8100000D03*
X56900000Y-10000000D03*
X56900000Y-11900000D03*
%TD*%
D13*
%TO.C,C9*%
X7500000Y-15000000D03*
X10500000Y-15000000D03*
%TD*%
D14*
%TO.C,C10*%
X32500000Y-31500000D03*
X35500000Y-31500000D03*
%TD*%
D13*
%TO.C,C12*%
X16500000Y-42000000D03*
X19500000Y-42000000D03*
%TD*%
%TO.C,C1*%
X52000000Y-3500000D03*
X52000000Y-6500000D03*
%TD*%
D14*
%TO.C,R1*%
X63000000Y-4500000D03*
X63000000Y-7500000D03*
%TD*%
%TO.C,R4*%
X64000000Y-16500000D03*
X64000000Y-19500000D03*
%TD*%
%TO.C,C14*%
X33500000Y-52500000D03*
X36500000Y-52500000D03*
%TD*%
%TO.C,C5*%
X55000000Y-13500000D03*
X55000000Y-16500000D03*
%TD*%
D15*
%TO.C,R7*%
X5800000Y-20000000D03*
X10200000Y-20000000D03*
%TD*%
D13*
%TO.C,C4*%
X39000000Y-13000000D03*
X39000000Y-16000000D03*
%TD*%
D14*
%TO.C,C2*%
X48000000Y-3500000D03*
X48000000Y-6500000D03*
%TD*%
%TO.C,C6*%
X67000000Y-6500000D03*
X67000000Y-9500000D03*
%TD*%
%TO.C,R3*%
X59000000Y-16500000D03*
X59000000Y-19500000D03*
%TD*%
D15*
%TO.C,R8*%
X5800000Y-25000000D03*
X10200000Y-25000000D03*
%TD*%
D16*
%TO.C,L1*%
X44600000Y-10000000D03*
X49400000Y-10000000D03*
%TD*%
D14*
%TO.C,C13*%
X33500000Y-49300000D03*
X36500000Y-49300000D03*
%TD*%
D15*
%TO.C,R9*%
X5800000Y-50000000D03*
X10200000Y-50000000D03*
%TD*%
D14*
%TO.C,C17*%
X20500000Y-64000000D03*
X23500000Y-64000000D03*
%TD*%
%TO.C,R5*%
X42500000Y-25000000D03*
X45500000Y-25000000D03*
%TD*%
%TO.C,R2*%
X63000000Y-9500000D03*
X63000000Y-12500000D03*
%TD*%
D10*
%TO.C,U2*%
X23000000Y-24725000D03*
X23000000Y-25375000D03*
X23000000Y-26025000D03*
X23000000Y-26675000D03*
X23000000Y-27325000D03*
X23000000Y-27975000D03*
X23000000Y-28625000D03*
X23000000Y-29275000D03*
X29000000Y-29275000D03*
X29000000Y-28625000D03*
X29000000Y-27974999D03*
X29000000Y-27325000D03*
X29000000Y-26674999D03*
X29000000Y-26025000D03*
X29000000Y-25375000D03*
X29000000Y-24724999D03*
D11*
X26000000Y-27000000D03*
%TD*%
D17*
%TO.C,F1*%
X38300000Y-65000000D03*
X43700000Y-65000000D03*
%TD*%
D13*
%TO.C,C3*%
X39000000Y-6500000D03*
X39000000Y-9500000D03*
%TD*%
D14*
%TO.C,C16*%
X9000000Y-35500000D03*
X9000000Y-38500000D03*
%TD*%
%TO.C,C15*%
X24500000Y-9000000D03*
X27500000Y-9000000D03*
%TD*%
D18*
%TO.C,D1*%
X48500000Y-59000000D03*
X53500000Y-59000000D03*
%TD*%
D14*
%TO.C,C11*%
X32500000Y-35000000D03*
X35500000Y-35000000D03*
%TD*%
M02*
