%TF.GenerationSoftware,KiCad,Pcbnew,10.0.5*%
%TF.CreationDate,2026-08-06T22:40:01+08:00*%
%TF.ProjectId,BrufikMobileBase,42727566-696b-44d6-9f62-696c65426173,0.1*%
%TF.SameCoordinates,Original*%
%TF.FileFunction,Legend,Bot*%
%TF.FilePolarity,Positive*%
%FSLAX46Y46*%
G04 Gerber Fmt 4.6, Leading zero omitted, Abs format (unit mm)*
G04 Created by KiCad (PCBNEW 10.0.5) date 2026-08-06 22:40:01*
%MOMM*%
%LPD*%
G01*
G04 APERTURE LIST*
G04 APERTURE END LIST*
%LPC*%
G36*
X45841481Y-67872284D02*
G01*
X45851213Y-67878787D01*
X45857716Y-67888519D01*
X45860000Y-67900000D01*
X45860000Y-70100000D01*
X45857716Y-70111481D01*
X45851213Y-70121213D01*
X45841481Y-70127716D01*
X45830000Y-70130000D01*
X43630000Y-70130000D01*
X43618519Y-70127716D01*
X43608787Y-70121213D01*
X43602284Y-70111481D01*
X43600000Y-70100000D01*
X43600000Y-67900000D01*
X43602284Y-67888519D01*
X43608787Y-67878787D01*
X43618519Y-67872284D01*
X43630000Y-67870000D01*
X45830000Y-67870000D01*
X45841481Y-67872284D01*
G37*
G36*
X47533793Y-67901222D02*
G01*
X47702432Y-67956016D01*
X47860423Y-68036517D01*
X48003876Y-68140741D01*
X48129259Y-68266124D01*
X48233483Y-68409577D01*
X48313984Y-68567568D01*
X48368778Y-68736207D01*
X48396517Y-68911341D01*
X48396517Y-69088659D01*
X48368778Y-69263793D01*
X48313984Y-69432432D01*
X48233483Y-69590423D01*
X48129259Y-69733876D01*
X48003876Y-69859259D01*
X47860423Y-69963483D01*
X47702432Y-70043984D01*
X47533793Y-70098778D01*
X47358659Y-70126517D01*
X47181341Y-70126517D01*
X47006207Y-70098778D01*
X46837568Y-70043984D01*
X46679577Y-69963483D01*
X46536124Y-69859259D01*
X46410741Y-69733876D01*
X46306517Y-69590423D01*
X46226016Y-69432432D01*
X46171222Y-69263793D01*
X46143483Y-69088659D01*
X46143483Y-68911341D01*
X46171222Y-68736207D01*
X46226016Y-68567568D01*
X46306517Y-68409577D01*
X46410741Y-68266124D01*
X46536124Y-68140741D01*
X46679577Y-68036517D01*
X46837568Y-67956016D01*
X47006207Y-67901222D01*
X47181341Y-67873483D01*
X47358659Y-67873483D01*
X47533793Y-67901222D01*
G37*
G36*
X19641481Y-68072284D02*
G01*
X19651213Y-68078787D01*
X19657716Y-68088519D01*
X19660000Y-68100000D01*
X19660000Y-69900000D01*
X19657716Y-69911481D01*
X19651213Y-69921213D01*
X19641481Y-69927716D01*
X19630000Y-69930000D01*
X17830000Y-69930000D01*
X17818519Y-69927716D01*
X17808787Y-69921213D01*
X17802284Y-69911481D01*
X17800000Y-69900000D01*
X17800000Y-68100000D01*
X17802284Y-68088519D01*
X17808787Y-68078787D01*
X17818519Y-68072284D01*
X17830000Y-68070000D01*
X19630000Y-68070000D01*
X19641481Y-68072284D01*
G37*
G36*
X33641480Y-68072284D02*
G01*
X33651212Y-68078787D01*
X33657715Y-68088519D01*
X33659999Y-68100000D01*
X33659999Y-69900000D01*
X33657715Y-69911481D01*
X33651212Y-69921213D01*
X33641480Y-69927716D01*
X33629999Y-69930000D01*
X31829999Y-69930000D01*
X31818518Y-69927716D01*
X31808786Y-69921213D01*
X31802283Y-69911481D01*
X31799999Y-69900000D01*
X31799999Y-68100000D01*
X31802283Y-68088519D01*
X31808786Y-68078787D01*
X31818518Y-68072284D01*
X31829999Y-68070000D01*
X33629999Y-68070000D01*
X33641480Y-68072284D01*
G37*
G36*
X21539965Y-68110045D02*
G01*
X21708399Y-68179813D01*
X21859986Y-68281100D01*
X21988900Y-68410014D01*
X22090187Y-68561601D01*
X22159955Y-68730035D01*
X22195522Y-68908844D01*
X22195522Y-69091156D01*
X22159955Y-69269965D01*
X22090187Y-69438399D01*
X21988900Y-69589986D01*
X21859986Y-69718900D01*
X21708399Y-69820187D01*
X21539965Y-69889955D01*
X21361156Y-69925522D01*
X21178844Y-69925522D01*
X21000035Y-69889955D01*
X20831601Y-69820187D01*
X20680014Y-69718900D01*
X20551100Y-69589986D01*
X20449813Y-69438399D01*
X20380045Y-69269965D01*
X20344478Y-69091156D01*
X20344478Y-68908844D01*
X20380045Y-68730035D01*
X20449813Y-68561601D01*
X20551100Y-68410014D01*
X20680014Y-68281100D01*
X20831601Y-68179813D01*
X21000035Y-68110045D01*
X21178844Y-68074478D01*
X21361156Y-68074478D01*
X21539965Y-68110045D01*
G37*
G36*
X35539965Y-68110045D02*
G01*
X35708399Y-68179813D01*
X35859986Y-68281100D01*
X35988900Y-68410014D01*
X36090187Y-68561601D01*
X36159955Y-68730035D01*
X36195522Y-68908844D01*
X36195522Y-69091156D01*
X36159955Y-69269965D01*
X36090187Y-69438399D01*
X35988900Y-69589986D01*
X35859986Y-69718900D01*
X35708399Y-69820187D01*
X35539965Y-69889955D01*
X35361156Y-69925522D01*
X35178844Y-69925522D01*
X35000035Y-69889955D01*
X34831601Y-69820187D01*
X34680014Y-69718900D01*
X34551100Y-69589986D01*
X34449813Y-69438399D01*
X34380045Y-69269965D01*
X34344478Y-69091156D01*
X34344478Y-68908844D01*
X34380045Y-68730035D01*
X34449813Y-68561601D01*
X34551100Y-68410014D01*
X34680014Y-68281100D01*
X34831601Y-68179813D01*
X35000035Y-68110045D01*
X35178844Y-68074478D01*
X35361156Y-68074478D01*
X35539965Y-68110045D01*
G37*
G36*
X81311481Y-63672284D02*
G01*
X81321213Y-63678787D01*
X81327716Y-63688519D01*
X81330000Y-63700000D01*
X81330000Y-66300000D01*
X81327716Y-66311481D01*
X81321213Y-66321213D01*
X81311481Y-66327716D01*
X81300000Y-66330000D01*
X78700000Y-66330000D01*
X78688519Y-66327716D01*
X78678787Y-66321213D01*
X78672284Y-66311481D01*
X78670000Y-66300000D01*
X78670000Y-63700000D01*
X78672284Y-63688519D01*
X78678787Y-63678787D01*
X78688519Y-63672284D01*
X78700000Y-63670000D01*
X81300000Y-63670000D01*
X81311481Y-63672284D01*
G37*
G36*
X87311481Y-63672284D02*
G01*
X87321213Y-63678787D01*
X87327716Y-63688519D01*
X87330000Y-63700000D01*
X87330000Y-66300000D01*
X87327716Y-66311481D01*
X87321213Y-66321213D01*
X87311481Y-66327716D01*
X87300000Y-66330000D01*
X84700000Y-66330000D01*
X84688519Y-66327716D01*
X84678787Y-66321213D01*
X84672284Y-66311481D01*
X84670000Y-66300000D01*
X84670000Y-63700000D01*
X84672284Y-63688519D01*
X84678787Y-63678787D01*
X84688519Y-63672284D01*
X84700000Y-63670000D01*
X87300000Y-63670000D01*
X87311481Y-63672284D01*
G37*
G36*
X55711481Y-62772284D02*
G01*
X55721213Y-62778787D01*
X55727716Y-62788519D01*
X55730000Y-62800000D01*
X55730000Y-65200000D01*
X55727716Y-65211481D01*
X55721213Y-65221213D01*
X55711481Y-65227716D01*
X55700000Y-65230000D01*
X53300000Y-65230000D01*
X53288519Y-65227716D01*
X53278787Y-65221213D01*
X53272284Y-65211481D01*
X53270000Y-65200000D01*
X53270000Y-62800000D01*
X53272284Y-62788519D01*
X53278787Y-62778787D01*
X53288519Y-62772284D01*
X53300000Y-62770000D01*
X55700000Y-62770000D01*
X55711481Y-62772284D01*
G37*
G36*
X60711481Y-62772284D02*
G01*
X60721213Y-62778787D01*
X60727716Y-62788519D01*
X60730000Y-62800000D01*
X60730000Y-65200000D01*
X60727716Y-65211481D01*
X60721213Y-65221213D01*
X60711481Y-65227716D01*
X60700000Y-65230000D01*
X58300000Y-65230000D01*
X58288519Y-65227716D01*
X58278787Y-65221213D01*
X58272284Y-65211481D01*
X58270000Y-65200000D01*
X58270000Y-62800000D01*
X58272284Y-62788519D01*
X58278787Y-62778787D01*
X58288519Y-62772284D01*
X58300000Y-62770000D01*
X60700000Y-62770000D01*
X60711481Y-62772284D01*
G37*
G36*
X17357015Y-59705163D02*
G01*
X17588234Y-59767118D01*
X17809388Y-59858723D01*
X18016694Y-59978411D01*
X18206603Y-60124133D01*
X18375867Y-60293397D01*
X18521589Y-60483306D01*
X18641277Y-60690612D01*
X18732882Y-60911766D01*
X18794837Y-61142985D01*
X18826082Y-61380312D01*
X18826082Y-61619688D01*
X18794837Y-61857015D01*
X18732882Y-62088234D01*
X18641277Y-62309388D01*
X18521589Y-62516694D01*
X18375867Y-62706603D01*
X18206603Y-62875867D01*
X18016694Y-63021589D01*
X17809388Y-63141277D01*
X17588234Y-63232882D01*
X17357015Y-63294837D01*
X17119688Y-63326082D01*
X16880312Y-63326082D01*
X16642985Y-63294837D01*
X16411766Y-63232882D01*
X16190612Y-63141277D01*
X15983306Y-63021589D01*
X15793397Y-62875867D01*
X15624133Y-62706603D01*
X15478411Y-62516694D01*
X15358723Y-62309388D01*
X15267118Y-62088234D01*
X15205163Y-61857015D01*
X15173918Y-61619688D01*
X15173918Y-61380312D01*
X15205163Y-61142985D01*
X15267118Y-60911766D01*
X15358723Y-60690612D01*
X15478411Y-60483306D01*
X15624133Y-60293397D01*
X15793397Y-60124133D01*
X15983306Y-59978411D01*
X16190612Y-59858723D01*
X16411766Y-59767118D01*
X16642985Y-59705163D01*
X16880312Y-59673918D01*
X17119688Y-59673918D01*
X17357015Y-59705163D01*
G37*
G36*
X75357015Y-59705163D02*
G01*
X75588234Y-59767118D01*
X75809388Y-59858723D01*
X76016694Y-59978411D01*
X76206603Y-60124133D01*
X76375867Y-60293397D01*
X76521589Y-60483306D01*
X76641277Y-60690612D01*
X76732882Y-60911766D01*
X76794837Y-61142985D01*
X76826082Y-61380312D01*
X76826082Y-61619688D01*
X76794837Y-61857015D01*
X76732882Y-62088234D01*
X76641277Y-62309388D01*
X76521589Y-62516694D01*
X76375867Y-62706603D01*
X76206603Y-62875867D01*
X76016694Y-63021589D01*
X75809388Y-63141277D01*
X75588234Y-63232882D01*
X75357015Y-63294837D01*
X75119688Y-63326082D01*
X74880312Y-63326082D01*
X74642985Y-63294837D01*
X74411766Y-63232882D01*
X74190612Y-63141277D01*
X73983306Y-63021589D01*
X73793397Y-62875867D01*
X73624133Y-62706603D01*
X73478411Y-62516694D01*
X73358723Y-62309388D01*
X73267118Y-62088234D01*
X73205163Y-61857015D01*
X73173918Y-61619688D01*
X73173918Y-61380312D01*
X73205163Y-61142985D01*
X73267118Y-60911766D01*
X73358723Y-60690612D01*
X73478411Y-60483306D01*
X73624133Y-60293397D01*
X73793397Y-60124133D01*
X73983306Y-59978411D01*
X74190612Y-59858723D01*
X74411766Y-59767118D01*
X74642985Y-59705163D01*
X74880312Y-59673918D01*
X75119688Y-59673918D01*
X75357015Y-59705163D01*
G37*
G36*
X87269965Y-55920045D02*
G01*
X87438399Y-55989813D01*
X87589986Y-56091100D01*
X87718900Y-56220014D01*
X87820187Y-56371601D01*
X87889955Y-56540035D01*
X87925522Y-56718844D01*
X87925522Y-56901156D01*
X87889955Y-57079965D01*
X87820187Y-57248399D01*
X87718900Y-57399986D01*
X87589986Y-57528900D01*
X87438399Y-57630187D01*
X87269965Y-57699955D01*
X87091156Y-57735522D01*
X86908844Y-57735522D01*
X86730035Y-57699955D01*
X86561601Y-57630187D01*
X86410014Y-57528900D01*
X86281100Y-57399986D01*
X86179813Y-57248399D01*
X86110045Y-57079965D01*
X86074478Y-56901156D01*
X86074478Y-56718844D01*
X86110045Y-56540035D01*
X86179813Y-56371601D01*
X86281100Y-56220014D01*
X86410014Y-56091100D01*
X86561601Y-55989813D01*
X86730035Y-55920045D01*
X86908844Y-55884478D01*
X87091156Y-55884478D01*
X87269965Y-55920045D01*
G37*
G36*
X87269965Y-53380045D02*
G01*
X87438399Y-53449813D01*
X87589986Y-53551100D01*
X87718900Y-53680014D01*
X87820187Y-53831601D01*
X87889955Y-54000035D01*
X87925522Y-54178844D01*
X87925522Y-54361156D01*
X87889955Y-54539965D01*
X87820187Y-54708399D01*
X87718900Y-54859986D01*
X87589986Y-54988900D01*
X87438399Y-55090187D01*
X87269965Y-55159955D01*
X87091156Y-55195522D01*
X86908844Y-55195522D01*
X86730035Y-55159955D01*
X86561601Y-55090187D01*
X86410014Y-54988900D01*
X86281100Y-54859986D01*
X86179813Y-54708399D01*
X86110045Y-54539965D01*
X86074478Y-54361156D01*
X86074478Y-54178844D01*
X86110045Y-54000035D01*
X86179813Y-53831601D01*
X86281100Y-53680014D01*
X86410014Y-53551100D01*
X86561601Y-53449813D01*
X86730035Y-53380045D01*
X86908844Y-53344478D01*
X87091156Y-53344478D01*
X87269965Y-53380045D01*
G37*
G36*
X87269965Y-50840045D02*
G01*
X87438399Y-50909813D01*
X87589986Y-51011100D01*
X87718900Y-51140014D01*
X87820187Y-51291601D01*
X87889955Y-51460035D01*
X87925522Y-51638844D01*
X87925522Y-51821156D01*
X87889955Y-51999965D01*
X87820187Y-52168399D01*
X87718900Y-52319986D01*
X87589986Y-52448900D01*
X87438399Y-52550187D01*
X87269965Y-52619955D01*
X87091156Y-52655522D01*
X86908844Y-52655522D01*
X86730035Y-52619955D01*
X86561601Y-52550187D01*
X86410014Y-52448900D01*
X86281100Y-52319986D01*
X86179813Y-52168399D01*
X86110045Y-51999965D01*
X86074478Y-51821156D01*
X86074478Y-51638844D01*
X86110045Y-51460035D01*
X86179813Y-51291601D01*
X86281100Y-51140014D01*
X86410014Y-51011100D01*
X86561601Y-50909813D01*
X86730035Y-50840045D01*
X86908844Y-50804478D01*
X87091156Y-50804478D01*
X87269965Y-50840045D01*
G37*
G36*
X87911481Y-48262284D02*
G01*
X87921213Y-48268787D01*
X87927716Y-48278519D01*
X87930000Y-48290000D01*
X87930000Y-50090000D01*
X87927716Y-50101481D01*
X87921213Y-50111213D01*
X87911481Y-50117716D01*
X87900000Y-50120000D01*
X86100000Y-50120000D01*
X86088519Y-50117716D01*
X86078787Y-50111213D01*
X86072284Y-50101481D01*
X86070000Y-50090000D01*
X86070000Y-48290000D01*
X86072284Y-48278519D01*
X86078787Y-48268787D01*
X86088519Y-48262284D01*
X86100000Y-48260000D01*
X87900000Y-48260000D01*
X87911481Y-48262284D01*
G37*
G36*
X43649965Y-47730045D02*
G01*
X43818399Y-47799813D01*
X43969986Y-47901100D01*
X44098900Y-48030014D01*
X44200187Y-48181601D01*
X44269955Y-48350035D01*
X44305522Y-48528844D01*
X44305522Y-48711156D01*
X44269955Y-48889965D01*
X44200187Y-49058399D01*
X44098900Y-49209986D01*
X43969986Y-49338900D01*
X43818399Y-49440187D01*
X43649965Y-49509955D01*
X43471156Y-49545522D01*
X43288844Y-49545522D01*
X43110035Y-49509955D01*
X42941601Y-49440187D01*
X42790014Y-49338900D01*
X42661100Y-49209986D01*
X42559813Y-49058399D01*
X42490045Y-48889965D01*
X42454478Y-48711156D01*
X42454478Y-48528844D01*
X42490045Y-48350035D01*
X42559813Y-48181601D01*
X42661100Y-48030014D01*
X42790014Y-47901100D01*
X42941601Y-47799813D01*
X43110035Y-47730045D01*
X43288844Y-47694478D01*
X43471156Y-47694478D01*
X43649965Y-47730045D01*
G37*
G36*
X58889965Y-47730045D02*
G01*
X59058399Y-47799813D01*
X59209986Y-47901100D01*
X59338900Y-48030014D01*
X59440187Y-48181601D01*
X59509955Y-48350035D01*
X59545522Y-48528844D01*
X59545522Y-48711156D01*
X59509955Y-48889965D01*
X59440187Y-49058399D01*
X59338900Y-49209986D01*
X59209986Y-49338900D01*
X59058399Y-49440187D01*
X58889965Y-49509955D01*
X58711156Y-49545522D01*
X58528844Y-49545522D01*
X58350035Y-49509955D01*
X58181601Y-49440187D01*
X58030014Y-49338900D01*
X57901100Y-49209986D01*
X57799813Y-49058399D01*
X57730045Y-48889965D01*
X57694478Y-48711156D01*
X57694478Y-48528844D01*
X57730045Y-48350035D01*
X57799813Y-48181601D01*
X57901100Y-48030014D01*
X58030014Y-47901100D01*
X58181601Y-47799813D01*
X58350035Y-47730045D01*
X58528844Y-47694478D01*
X58711156Y-47694478D01*
X58889965Y-47730045D01*
G37*
G36*
X43649965Y-45190045D02*
G01*
X43818399Y-45259813D01*
X43969986Y-45361100D01*
X44098900Y-45490014D01*
X44200187Y-45641601D01*
X44269955Y-45810035D01*
X44305522Y-45988844D01*
X44305522Y-46171156D01*
X44269955Y-46349965D01*
X44200187Y-46518399D01*
X44098900Y-46669986D01*
X43969986Y-46798900D01*
X43818399Y-46900187D01*
X43649965Y-46969955D01*
X43471156Y-47005522D01*
X43288844Y-47005522D01*
X43110035Y-46969955D01*
X42941601Y-46900187D01*
X42790014Y-46798900D01*
X42661100Y-46669986D01*
X42559813Y-46518399D01*
X42490045Y-46349965D01*
X42454478Y-46171156D01*
X42454478Y-45988844D01*
X42490045Y-45810035D01*
X42559813Y-45641601D01*
X42661100Y-45490014D01*
X42790014Y-45361100D01*
X42941601Y-45259813D01*
X43110035Y-45190045D01*
X43288844Y-45154478D01*
X43471156Y-45154478D01*
X43649965Y-45190045D01*
G37*
G36*
X58889965Y-45190045D02*
G01*
X59058399Y-45259813D01*
X59209986Y-45361100D01*
X59338900Y-45490014D01*
X59440187Y-45641601D01*
X59509955Y-45810035D01*
X59545522Y-45988844D01*
X59545522Y-46171156D01*
X59509955Y-46349965D01*
X59440187Y-46518399D01*
X59338900Y-46669986D01*
X59209986Y-46798900D01*
X59058399Y-46900187D01*
X58889965Y-46969955D01*
X58711156Y-47005522D01*
X58528844Y-47005522D01*
X58350035Y-46969955D01*
X58181601Y-46900187D01*
X58030014Y-46798900D01*
X57901100Y-46669986D01*
X57799813Y-46518399D01*
X57730045Y-46349965D01*
X57694478Y-46171156D01*
X57694478Y-45988844D01*
X57730045Y-45810035D01*
X57799813Y-45641601D01*
X57901100Y-45490014D01*
X58030014Y-45361100D01*
X58181601Y-45259813D01*
X58350035Y-45190045D01*
X58528844Y-45154478D01*
X58711156Y-45154478D01*
X58889965Y-45190045D01*
G37*
G36*
X43649965Y-42650045D02*
G01*
X43818399Y-42719813D01*
X43969986Y-42821100D01*
X44098900Y-42950014D01*
X44200187Y-43101601D01*
X44269955Y-43270035D01*
X44305522Y-43448844D01*
X44305522Y-43631156D01*
X44269955Y-43809965D01*
X44200187Y-43978399D01*
X44098900Y-44129986D01*
X43969986Y-44258900D01*
X43818399Y-44360187D01*
X43649965Y-44429955D01*
X43471156Y-44465522D01*
X43288844Y-44465522D01*
X43110035Y-44429955D01*
X42941601Y-44360187D01*
X42790014Y-44258900D01*
X42661100Y-44129986D01*
X42559813Y-43978399D01*
X42490045Y-43809965D01*
X42454478Y-43631156D01*
X42454478Y-43448844D01*
X42490045Y-43270035D01*
X42559813Y-43101601D01*
X42661100Y-42950014D01*
X42790014Y-42821100D01*
X42941601Y-42719813D01*
X43110035Y-42650045D01*
X43288844Y-42614478D01*
X43471156Y-42614478D01*
X43649965Y-42650045D01*
G37*
G36*
X58889965Y-42650045D02*
G01*
X59058399Y-42719813D01*
X59209986Y-42821100D01*
X59338900Y-42950014D01*
X59440187Y-43101601D01*
X59509955Y-43270035D01*
X59545522Y-43448844D01*
X59545522Y-43631156D01*
X59509955Y-43809965D01*
X59440187Y-43978399D01*
X59338900Y-44129986D01*
X59209986Y-44258900D01*
X59058399Y-44360187D01*
X58889965Y-44429955D01*
X58711156Y-44465522D01*
X58528844Y-44465522D01*
X58350035Y-44429955D01*
X58181601Y-44360187D01*
X58030014Y-44258900D01*
X57901100Y-44129986D01*
X57799813Y-43978399D01*
X57730045Y-43809965D01*
X57694478Y-43631156D01*
X57694478Y-43448844D01*
X57730045Y-43270035D01*
X57799813Y-43101601D01*
X57901100Y-42950014D01*
X58030014Y-42821100D01*
X58181601Y-42719813D01*
X58350035Y-42650045D01*
X58528844Y-42614478D01*
X58711156Y-42614478D01*
X58889965Y-42650045D01*
G37*
G36*
X43649965Y-40110045D02*
G01*
X43818399Y-40179813D01*
X43969986Y-40281100D01*
X44098900Y-40410014D01*
X44200187Y-40561601D01*
X44269955Y-40730035D01*
X44305522Y-40908844D01*
X44305522Y-41091156D01*
X44269955Y-41269965D01*
X44200187Y-41438399D01*
X44098900Y-41589986D01*
X43969986Y-41718900D01*
X43818399Y-41820187D01*
X43649965Y-41889955D01*
X43471156Y-41925522D01*
X43288844Y-41925522D01*
X43110035Y-41889955D01*
X42941601Y-41820187D01*
X42790014Y-41718900D01*
X42661100Y-41589986D01*
X42559813Y-41438399D01*
X42490045Y-41269965D01*
X42454478Y-41091156D01*
X42454478Y-40908844D01*
X42490045Y-40730035D01*
X42559813Y-40561601D01*
X42661100Y-40410014D01*
X42790014Y-40281100D01*
X42941601Y-40179813D01*
X43110035Y-40110045D01*
X43288844Y-40074478D01*
X43471156Y-40074478D01*
X43649965Y-40110045D01*
G37*
G36*
X58889965Y-40110045D02*
G01*
X59058399Y-40179813D01*
X59209986Y-40281100D01*
X59338900Y-40410014D01*
X59440187Y-40561601D01*
X59509955Y-40730035D01*
X59545522Y-40908844D01*
X59545522Y-41091156D01*
X59509955Y-41269965D01*
X59440187Y-41438399D01*
X59338900Y-41589986D01*
X59209986Y-41718900D01*
X59058399Y-41820187D01*
X58889965Y-41889955D01*
X58711156Y-41925522D01*
X58528844Y-41925522D01*
X58350035Y-41889955D01*
X58181601Y-41820187D01*
X58030014Y-41718900D01*
X57901100Y-41589986D01*
X57799813Y-41438399D01*
X57730045Y-41269965D01*
X57694478Y-41091156D01*
X57694478Y-40908844D01*
X57730045Y-40730035D01*
X57799813Y-40561601D01*
X57901100Y-40410014D01*
X58030014Y-40281100D01*
X58181601Y-40179813D01*
X58350035Y-40110045D01*
X58528844Y-40074478D01*
X58711156Y-40074478D01*
X58889965Y-40110045D01*
G37*
G36*
X43649965Y-37570045D02*
G01*
X43818399Y-37639813D01*
X43969986Y-37741100D01*
X44098900Y-37870014D01*
X44200187Y-38021601D01*
X44269955Y-38190035D01*
X44305522Y-38368844D01*
X44305522Y-38551156D01*
X44269955Y-38729965D01*
X44200187Y-38898399D01*
X44098900Y-39049986D01*
X43969986Y-39178900D01*
X43818399Y-39280187D01*
X43649965Y-39349955D01*
X43471156Y-39385522D01*
X43288844Y-39385522D01*
X43110035Y-39349955D01*
X42941601Y-39280187D01*
X42790014Y-39178900D01*
X42661100Y-39049986D01*
X42559813Y-38898399D01*
X42490045Y-38729965D01*
X42454478Y-38551156D01*
X42454478Y-38368844D01*
X42490045Y-38190035D01*
X42559813Y-38021601D01*
X42661100Y-37870014D01*
X42790014Y-37741100D01*
X42941601Y-37639813D01*
X43110035Y-37570045D01*
X43288844Y-37534478D01*
X43471156Y-37534478D01*
X43649965Y-37570045D01*
G37*
G36*
X58889965Y-37570045D02*
G01*
X59058399Y-37639813D01*
X59209986Y-37741100D01*
X59338900Y-37870014D01*
X59440187Y-38021601D01*
X59509955Y-38190035D01*
X59545522Y-38368844D01*
X59545522Y-38551156D01*
X59509955Y-38729965D01*
X59440187Y-38898399D01*
X59338900Y-39049986D01*
X59209986Y-39178900D01*
X59058399Y-39280187D01*
X58889965Y-39349955D01*
X58711156Y-39385522D01*
X58528844Y-39385522D01*
X58350035Y-39349955D01*
X58181601Y-39280187D01*
X58030014Y-39178900D01*
X57901100Y-39049986D01*
X57799813Y-38898399D01*
X57730045Y-38729965D01*
X57694478Y-38551156D01*
X57694478Y-38368844D01*
X57730045Y-38190035D01*
X57799813Y-38021601D01*
X57901100Y-37870014D01*
X58030014Y-37741100D01*
X58181601Y-37639813D01*
X58350035Y-37570045D01*
X58528844Y-37534478D01*
X58711156Y-37534478D01*
X58889965Y-37570045D01*
G37*
G36*
X5269965Y-37380045D02*
G01*
X5438399Y-37449813D01*
X5589986Y-37551100D01*
X5718900Y-37680014D01*
X5820187Y-37831601D01*
X5889955Y-38000035D01*
X5925522Y-38178844D01*
X5925522Y-38361156D01*
X5889955Y-38539965D01*
X5820187Y-38708399D01*
X5718900Y-38859986D01*
X5589986Y-38988900D01*
X5438399Y-39090187D01*
X5269965Y-39159955D01*
X5091156Y-39195522D01*
X4908844Y-39195522D01*
X4730035Y-39159955D01*
X4561601Y-39090187D01*
X4410014Y-38988900D01*
X4281100Y-38859986D01*
X4179813Y-38708399D01*
X4110045Y-38539965D01*
X4074478Y-38361156D01*
X4074478Y-38178844D01*
X4110045Y-38000035D01*
X4179813Y-37831601D01*
X4281100Y-37680014D01*
X4410014Y-37551100D01*
X4561601Y-37449813D01*
X4730035Y-37380045D01*
X4908844Y-37344478D01*
X5091156Y-37344478D01*
X5269965Y-37380045D01*
G37*
G36*
X87269965Y-36650045D02*
G01*
X87438399Y-36719813D01*
X87589986Y-36821100D01*
X87718900Y-36950014D01*
X87820187Y-37101601D01*
X87889955Y-37270035D01*
X87925522Y-37448844D01*
X87925522Y-37631156D01*
X87889955Y-37809965D01*
X87820187Y-37978399D01*
X87718900Y-38129986D01*
X87589986Y-38258900D01*
X87438399Y-38360187D01*
X87269965Y-38429955D01*
X87091156Y-38465522D01*
X86908844Y-38465522D01*
X86730035Y-38429955D01*
X86561601Y-38360187D01*
X86410014Y-38258900D01*
X86281100Y-38129986D01*
X86179813Y-37978399D01*
X86110045Y-37809965D01*
X86074478Y-37631156D01*
X86074478Y-37448844D01*
X86110045Y-37270035D01*
X86179813Y-37101601D01*
X86281100Y-36950014D01*
X86410014Y-36821100D01*
X86561601Y-36719813D01*
X86730035Y-36650045D01*
X86908844Y-36614478D01*
X87091156Y-36614478D01*
X87269965Y-36650045D01*
G37*
G36*
X43649965Y-35030045D02*
G01*
X43818399Y-35099813D01*
X43969986Y-35201100D01*
X44098900Y-35330014D01*
X44200187Y-35481601D01*
X44269955Y-35650035D01*
X44305522Y-35828844D01*
X44305522Y-36011156D01*
X44269955Y-36189965D01*
X44200187Y-36358399D01*
X44098900Y-36509986D01*
X43969986Y-36638900D01*
X43818399Y-36740187D01*
X43649965Y-36809955D01*
X43471156Y-36845522D01*
X43288844Y-36845522D01*
X43110035Y-36809955D01*
X42941601Y-36740187D01*
X42790014Y-36638900D01*
X42661100Y-36509986D01*
X42559813Y-36358399D01*
X42490045Y-36189965D01*
X42454478Y-36011156D01*
X42454478Y-35828844D01*
X42490045Y-35650035D01*
X42559813Y-35481601D01*
X42661100Y-35330014D01*
X42790014Y-35201100D01*
X42941601Y-35099813D01*
X43110035Y-35030045D01*
X43288844Y-34994478D01*
X43471156Y-34994478D01*
X43649965Y-35030045D01*
G37*
G36*
X58889965Y-35030045D02*
G01*
X59058399Y-35099813D01*
X59209986Y-35201100D01*
X59338900Y-35330014D01*
X59440187Y-35481601D01*
X59509955Y-35650035D01*
X59545522Y-35828844D01*
X59545522Y-36011156D01*
X59509955Y-36189965D01*
X59440187Y-36358399D01*
X59338900Y-36509986D01*
X59209986Y-36638900D01*
X59058399Y-36740187D01*
X58889965Y-36809955D01*
X58711156Y-36845522D01*
X58528844Y-36845522D01*
X58350035Y-36809955D01*
X58181601Y-36740187D01*
X58030014Y-36638900D01*
X57901100Y-36509986D01*
X57799813Y-36358399D01*
X57730045Y-36189965D01*
X57694478Y-36011156D01*
X57694478Y-35828844D01*
X57730045Y-35650035D01*
X57799813Y-35481601D01*
X57901100Y-35330014D01*
X58030014Y-35201100D01*
X58181601Y-35099813D01*
X58350035Y-35030045D01*
X58528844Y-34994478D01*
X58711156Y-34994478D01*
X58889965Y-35030045D01*
G37*
G36*
X5911481Y-34802284D02*
G01*
X5921213Y-34808787D01*
X5927716Y-34818519D01*
X5930000Y-34830000D01*
X5930000Y-36630000D01*
X5927716Y-36641481D01*
X5921213Y-36651213D01*
X5911481Y-36657716D01*
X5900000Y-36660000D01*
X4100000Y-36660000D01*
X4088519Y-36657716D01*
X4078787Y-36651213D01*
X4072284Y-36641481D01*
X4070000Y-36630000D01*
X4070000Y-34830000D01*
X4072284Y-34818519D01*
X4078787Y-34808787D01*
X4088519Y-34802284D01*
X4100000Y-34800000D01*
X5900000Y-34800000D01*
X5911481Y-34802284D01*
G37*
G36*
X87269965Y-34110045D02*
G01*
X87438399Y-34179813D01*
X87589986Y-34281100D01*
X87718900Y-34410014D01*
X87820187Y-34561601D01*
X87889955Y-34730035D01*
X87925522Y-34908844D01*
X87925522Y-35091156D01*
X87889955Y-35269965D01*
X87820187Y-35438399D01*
X87718900Y-35589986D01*
X87589986Y-35718900D01*
X87438399Y-35820187D01*
X87269965Y-35889955D01*
X87091156Y-35925522D01*
X86908844Y-35925522D01*
X86730035Y-35889955D01*
X86561601Y-35820187D01*
X86410014Y-35718900D01*
X86281100Y-35589986D01*
X86179813Y-35438399D01*
X86110045Y-35269965D01*
X86074478Y-35091156D01*
X86074478Y-34908844D01*
X86110045Y-34730035D01*
X86179813Y-34561601D01*
X86281100Y-34410014D01*
X86410014Y-34281100D01*
X86561601Y-34179813D01*
X86730035Y-34110045D01*
X86908844Y-34074478D01*
X87091156Y-34074478D01*
X87269965Y-34110045D01*
G37*
G36*
X44291481Y-32452284D02*
G01*
X44301213Y-32458787D01*
X44307716Y-32468519D01*
X44310000Y-32480000D01*
X44310000Y-34280000D01*
X44307716Y-34291481D01*
X44301213Y-34301213D01*
X44291481Y-34307716D01*
X44280000Y-34310000D01*
X42480000Y-34310000D01*
X42468519Y-34307716D01*
X42458787Y-34301213D01*
X42452284Y-34291481D01*
X42450000Y-34280000D01*
X42450000Y-32480000D01*
X42452284Y-32468519D01*
X42458787Y-32458787D01*
X42468519Y-32452284D01*
X42480000Y-32450000D01*
X44280000Y-32450000D01*
X44291481Y-32452284D01*
G37*
G36*
X58889965Y-32490045D02*
G01*
X59058399Y-32559813D01*
X59209986Y-32661100D01*
X59338900Y-32790014D01*
X59440187Y-32941601D01*
X59509955Y-33110035D01*
X59545522Y-33288844D01*
X59545522Y-33471156D01*
X59509955Y-33649965D01*
X59440187Y-33818399D01*
X59338900Y-33969986D01*
X59209986Y-34098900D01*
X59058399Y-34200187D01*
X58889965Y-34269955D01*
X58711156Y-34305522D01*
X58528844Y-34305522D01*
X58350035Y-34269955D01*
X58181601Y-34200187D01*
X58030014Y-34098900D01*
X57901100Y-33969986D01*
X57799813Y-33818399D01*
X57730045Y-33649965D01*
X57694478Y-33471156D01*
X57694478Y-33288844D01*
X57730045Y-33110035D01*
X57799813Y-32941601D01*
X57901100Y-32790014D01*
X58030014Y-32661100D01*
X58181601Y-32559813D01*
X58350035Y-32490045D01*
X58528844Y-32454478D01*
X58711156Y-32454478D01*
X58889965Y-32490045D01*
G37*
G36*
X87911481Y-31532284D02*
G01*
X87921213Y-31538787D01*
X87927716Y-31548519D01*
X87930000Y-31560000D01*
X87930000Y-33360000D01*
X87927716Y-33371481D01*
X87921213Y-33381213D01*
X87911481Y-33387716D01*
X87900000Y-33390000D01*
X86100000Y-33390000D01*
X86088519Y-33387716D01*
X86078787Y-33381213D01*
X86072284Y-33371481D01*
X86070000Y-33360000D01*
X86070000Y-31560000D01*
X86072284Y-31548519D01*
X86078787Y-31538787D01*
X86088519Y-31532284D01*
X86100000Y-31530000D01*
X87900000Y-31530000D01*
X87911481Y-31532284D01*
G37*
G36*
X17357015Y-10705163D02*
G01*
X17588234Y-10767118D01*
X17809388Y-10858723D01*
X18016694Y-10978411D01*
X18206603Y-11124133D01*
X18375867Y-11293397D01*
X18521589Y-11483306D01*
X18641277Y-11690612D01*
X18732882Y-11911766D01*
X18794837Y-12142985D01*
X18826082Y-12380312D01*
X18826082Y-12619688D01*
X18794837Y-12857015D01*
X18732882Y-13088234D01*
X18641277Y-13309388D01*
X18521589Y-13516694D01*
X18375867Y-13706603D01*
X18206603Y-13875867D01*
X18016694Y-14021589D01*
X17809388Y-14141277D01*
X17588234Y-14232882D01*
X17357015Y-14294837D01*
X17119688Y-14326082D01*
X16880312Y-14326082D01*
X16642985Y-14294837D01*
X16411766Y-14232882D01*
X16190612Y-14141277D01*
X15983306Y-14021589D01*
X15793397Y-13875867D01*
X15624133Y-13706603D01*
X15478411Y-13516694D01*
X15358723Y-13309388D01*
X15267118Y-13088234D01*
X15205163Y-12857015D01*
X15173918Y-12619688D01*
X15173918Y-12380312D01*
X15205163Y-12142985D01*
X15267118Y-11911766D01*
X15358723Y-11690612D01*
X15478411Y-11483306D01*
X15624133Y-11293397D01*
X15793397Y-11124133D01*
X15983306Y-10978411D01*
X16190612Y-10858723D01*
X16411766Y-10767118D01*
X16642985Y-10705163D01*
X16880312Y-10673918D01*
X17119688Y-10673918D01*
X17357015Y-10705163D01*
G37*
G36*
X75357015Y-10705163D02*
G01*
X75588234Y-10767118D01*
X75809388Y-10858723D01*
X76016694Y-10978411D01*
X76206603Y-11124133D01*
X76375867Y-11293397D01*
X76521589Y-11483306D01*
X76641277Y-11690612D01*
X76732882Y-11911766D01*
X76794837Y-12142985D01*
X76826082Y-12380312D01*
X76826082Y-12619688D01*
X76794837Y-12857015D01*
X76732882Y-13088234D01*
X76641277Y-13309388D01*
X76521589Y-13516694D01*
X76375867Y-13706603D01*
X76206603Y-13875867D01*
X76016694Y-14021589D01*
X75809388Y-14141277D01*
X75588234Y-14232882D01*
X75357015Y-14294837D01*
X75119688Y-14326082D01*
X74880312Y-14326082D01*
X74642985Y-14294837D01*
X74411766Y-14232882D01*
X74190612Y-14141277D01*
X73983306Y-14021589D01*
X73793397Y-13875867D01*
X73624133Y-13706603D01*
X73478411Y-13516694D01*
X73358723Y-13309388D01*
X73267118Y-13088234D01*
X73205163Y-12857015D01*
X73173918Y-12619688D01*
X73173918Y-12380312D01*
X73205163Y-12142985D01*
X73267118Y-11911766D01*
X73358723Y-11690612D01*
X73478411Y-11483306D01*
X73624133Y-11293397D01*
X73793397Y-11124133D01*
X73983306Y-10978411D01*
X74190612Y-10858723D01*
X74411766Y-10767118D01*
X74642985Y-10705163D01*
X74880312Y-10673918D01*
X75119688Y-10673918D01*
X75357015Y-10705163D01*
G37*
G36*
X25641481Y-4072284D02*
G01*
X25651213Y-4078787D01*
X25657716Y-4088519D01*
X25660000Y-4100000D01*
X25660000Y-5900000D01*
X25657716Y-5911481D01*
X25651213Y-5921213D01*
X25641481Y-5927716D01*
X25630000Y-5930000D01*
X23830000Y-5930000D01*
X23818519Y-5927716D01*
X23808787Y-5921213D01*
X23802284Y-5911481D01*
X23800000Y-5900000D01*
X23800000Y-4100000D01*
X23802284Y-4088519D01*
X23808787Y-4078787D01*
X23818519Y-4072284D01*
X23830000Y-4070000D01*
X25630000Y-4070000D01*
X25641481Y-4072284D01*
G37*
G36*
X27539965Y-4110045D02*
G01*
X27708399Y-4179813D01*
X27859986Y-4281100D01*
X27988900Y-4410014D01*
X28090187Y-4561601D01*
X28159955Y-4730035D01*
X28195522Y-4908844D01*
X28195522Y-5091156D01*
X28159955Y-5269965D01*
X28090187Y-5438399D01*
X27988900Y-5589986D01*
X27859986Y-5718900D01*
X27708399Y-5820187D01*
X27539965Y-5889955D01*
X27361156Y-5925522D01*
X27178844Y-5925522D01*
X27000035Y-5889955D01*
X26831601Y-5820187D01*
X26680014Y-5718900D01*
X26551100Y-5589986D01*
X26449813Y-5438399D01*
X26380045Y-5269965D01*
X26344478Y-5091156D01*
X26344478Y-4908844D01*
X26380045Y-4730035D01*
X26449813Y-4561601D01*
X26551100Y-4410014D01*
X26680014Y-4281100D01*
X26831601Y-4179813D01*
X27000035Y-4110045D01*
X27178844Y-4074478D01*
X27361156Y-4074478D01*
X27539965Y-4110045D01*
G37*
%LPD*%
M02*
